<svg width="24" height="25" viewBox="0 0 24 25" fill="none" xmlns="http://www.w3.org/2000/svg">
<path d="M21.3175 7.96952L20.8239 7.11292C20.4506 6.46509 20.264 6.14118 19.9464 6.01201C19.6288 5.88285 19.2696 5.98477 18.5513 6.18861L17.3311 6.53231C16.8725 6.63807 16.3913 6.57807 15.9726 6.36292L15.6357 6.16855C15.2766 5.93856 15.0004 5.59946 14.8475 5.20087L14.5136 4.20349C14.294 3.54347 14.1842 3.21346 13.9228 3.0247C13.6615 2.83594 13.3143 2.83594 12.6199 2.83594H11.5051C10.8108 2.83594 10.4636 2.83594 10.2022 3.0247C9.94085 3.21346 9.83106 3.54347 9.61149 4.20349L9.27753 5.20087C9.12465 5.59946 8.84845 5.93856 8.48937 6.16855L8.15249 6.36292C7.73374 6.57807 7.25259 6.63807 6.79398 6.53231L5.57375 6.18861C4.85541 5.98477 4.49625 5.88285 4.17867 6.01201C3.86109 6.14118 3.67445 6.46509 3.30115 7.11292L2.80757 7.96952C2.45766 8.57677 2.2827 8.8804 2.31666 9.20362C2.35061 9.52684 2.58483 9.78731 3.05326 10.3082L4.0843 11.4609C4.3363 11.7799 4.51521 12.3359 4.51521 12.8358C4.51521 13.3359 4.33636 13.8917 4.08433 14.2108L3.05326 15.3635C2.58483 15.8845 2.35062 16.1449 2.31666 16.4682C2.2827 16.7914 2.45766 17.095 2.80757 17.7022L3.30114 18.5588C3.67443 19.2066 3.86109 19.5306 4.17867 19.6597C4.49625 19.7889 4.85542 19.687 5.57377 19.4831L6.79394 19.1394C7.25263 19.0336 7.73387 19.0937 8.15267 19.3089L8.4895 19.5033C8.84851 19.7333 9.12464 20.0723 9.2775 20.4709L9.61149 21.4684C9.83106 22.1284 9.94085 22.4584 10.2022 22.6472C10.4636 22.8359 10.8108 22.8359 11.5051 22.8359H12.6199C13.3143 22.8359 13.6615 22.8359 13.9228 22.6472C14.1842 22.4584 14.294 22.1284 14.5136 21.4684L14.8476 20.4709C15.0004 20.0723 15.2765 19.7333 15.6356 19.5033L15.9724 19.3089C16.3912 19.0937 16.8724 19.0336 17.3311 19.1394L18.5513 19.4831C19.2696 19.687 19.6288 19.7889 19.9464 19.6597C20.264 19.5306 20.4506 19.2066 20.8239 18.5588L21.3175 17.7022C21.6674 17.095 21.8423 16.7914 21.8084 16.4682C21.7744 16.1449 21.5402 15.8845 21.0718 15.3635L20.0407 14.2108C19.7887 13.8917 19.6098 13.3359 19.6098 12.8358C19.6098 12.3359 19.7888 11.7799 20.0407 11.4609L21.0718 10.3082C21.5402 9.78731 21.7744 9.52684 21.8084 9.20362C21.8423 8.8804 21.6674 8.57677 21.3175 7.96952Z" stroke="#344054" stroke-width="1.5" stroke-linecap="round"/>
<path d="M15.5195 12.8281C15.5195 14.7611 13.9525 16.3281 12.0195 16.3281C10.0865 16.3281 8.51953 14.7611 8.51953 12.8281C8.51953 10.8951 10.0865 9.32812 12.0195 9.32812C13.9525 9.32812 15.5195 10.8951 15.5195 12.8281Z" stroke="#344054" stroke-width="1.5"/>
</svg>
