<svg width="24" height="25" viewBox="0 0 24 25" fill="none" xmlns="http://www.w3.org/2000/svg">
<path d="M14.998 15.6656V17.0719C14.998 19.7235 14.998 21.0493 14.1193 21.8731C13.2406 22.6968 11.8264 22.6968 8.99805 22.6968C6.16962 22.6968 4.75541 22.6968 3.87673 21.8731C2.99805 21.0493 2.99805 19.7235 2.99805 17.0719V12.2505C2.99805 9.59878 2.99805 8.27296 3.87673 7.4492C4.45861 6.9037 5.22501 6.75308 5.99805 6.71191" stroke="#344054" stroke-width="1.5" stroke-linecap="round"/>
<path d="M8.99805 19.6968H9.00703" stroke="#344054" stroke-width="2" stroke-linecap="round" stroke-linejoin="round"/>
<path d="M14.9981 4.19678C12.8911 3.01475 11.6226 2.78734 9.99814 2.69678C9.35128 2.81401 9.1465 3.04802 8.99814 3.69678V9.69678C8.99308 10.611 9.19599 10.9527 9.99814 11.1968C12.1754 11.5447 13.2178 11.86 14.875 12.6386C14.9531 12.6753 15.0442 12.6769 15.1236 12.6429C16.7228 11.957 17.756 11.5729 18.9425 11.35C19.6385 11.2192 20.5045 11.2095 20.8504 10.5915C20.9717 10.3748 21.0133 10.0939 20.9981 9.69678V3.69678C20.7944 3.05283 20.5752 2.83553 19.9981 2.69678C18.2425 2.7935 17.1801 3.04184 14.9981 4.19678ZM14.9981 4.19678L14.998 12.1968" stroke="#344054" stroke-width="1.5" stroke-linecap="round" stroke-linejoin="round"/>
</svg>
