<svg width="24" height="25" viewBox="0 0 24 25" fill="none" xmlns="http://www.w3.org/2000/svg">
<path d="M6.57757 16.0473C5.1628 16.8897 1.45336 18.6098 3.71266 20.7623C4.81631 21.8137 6.04549 22.5657 7.59087 22.5657H16.4091C17.9545 22.5657 19.1837 21.8137 20.2873 20.7623C22.5466 18.6098 18.8372 16.8897 17.4224 16.0473C14.1048 14.0718 9.89519 14.0718 6.57757 16.0473Z" stroke="#344054" stroke-width="1.5" stroke-linecap="round" stroke-linejoin="round"/>
<path d="M16.5 7.06567C16.5 9.55095 14.4853 11.5657 12 11.5657C9.51472 11.5657 7.5 9.55095 7.5 7.06567C7.5 4.58039 9.51472 2.56567 12 2.56567C14.4853 2.56567 16.5 4.58039 16.5 7.06567Z" stroke="#344054" stroke-width="1.5"/>
</svg>
