<svg width="24" height="24" viewBox="0 0 24 24" fill="none" xmlns="http://www.w3.org/2000/svg">
<path fill-rule="evenodd" clip-rule="evenodd" d="M13.4565 1.26264C13.2071 1.23407 10.5436 1.26287 10.5436 1.26287C10.2656 1.29471 9.97337 1.36812 9.70064 1.56537C9.42804 1.76252 9.26624 2.01718 9.14844 2.27126C9.04264 2.49948 8.60974 3.79642 8.50959 4.09802C8.43185 4.51294 8.0042 5.26596 6.91551 4.95864C6.91551 4.95864 5.04518 4.42955 4.78104 4.38755C4.48729 4.34084 4.16593 4.33488 3.83362 4.47024C3.50143 4.60555 3.27539 4.83438 3.09742 5.07302C2.93729 5.28773 1.66743 7.55256 1.66743 7.55256C1.55549 7.81144 1.47292 8.10372 1.50828 8.44078C1.54364 8.77788 1.68508 9.04658 1.84835 9.27649C1.99495 9.48293 3.44422 11.1029 3.44422 11.1029C3.70919 11.4042 4.08015 12.1849 3.44424 12.8969C3.44424 12.8969 1.99495 14.5169 1.84835 14.7234C1.68508 14.9533 1.54364 15.222 1.50828 15.5591C1.47292 15.8961 1.5555 16.1884 1.66743 16.4473C1.66743 16.4473 2.93728 18.7121 3.09741 18.9268C3.27538 19.1654 3.50143 19.3943 3.83363 19.5296C4.16594 19.665 4.48731 19.659 4.78107 19.6123C5.0452 19.5703 6.91546 19.0412 6.91546 19.0412C7.30798 18.9129 8.17632 18.9054 8.50956 19.9018C8.6097 20.2034 9.04264 21.5005 9.14844 21.7287C9.26624 21.9828 9.42803 22.2374 9.70064 22.4346C9.97337 22.6318 10.2657 22.7055 10.5436 22.7373C10.793 22.7659 13.4565 22.7373 13.4565 22.7373C13.7344 22.7055 14.0267 22.6318 14.2994 22.4346C14.572 22.2374 14.7338 21.9828 14.8516 21.7287C14.9574 21.5005 15.3904 20.2034 15.4905 19.9018C15.61 19.4987 16.0962 18.7623 17.0846 19.0412C17.4126 19.1344 18.9549 19.5703 19.219 19.6123C19.5128 19.659 19.8341 19.665 20.1664 19.5296C20.4987 19.3943 20.7247 19.1654 20.9027 18.9268C21.0628 18.7121 22.3326 16.4473 22.3326 16.4473C22.4446 16.1884 22.5272 15.8961 22.4918 15.5591C22.4564 15.222 22.315 14.9533 22.1517 14.7234C22.0051 14.5169 20.7696 13.135 20.5558 12.897C19.9524 12.2214 20.3044 11.4194 20.5559 11.1029C20.6207 11.0307 20.7796 10.8532 20.9736 10.6352C21.419 10.1346 22.0496 9.4203 22.1517 9.27649C22.315 9.04658 22.4564 8.77788 22.4918 8.44078C22.5272 8.10371 22.4446 7.81144 22.3326 7.55256L20.9027 5.07302C20.7247 4.83438 20.4986 4.60555 20.1665 4.47024C19.8342 4.33488 19.5128 4.34084 19.219 4.38755C18.9549 4.42955 17.4126 4.86537 17.0846 4.95864C16.1466 5.22323 15.631 4.49513 15.4905 4.09801C15.3903 3.79643 14.9574 2.49947 14.8516 2.27126C14.7338 2.01718 14.572 1.76252 14.2994 1.56537C14.0267 1.36812 13.7344 1.29448 13.4565 1.26264ZM12.0002 6.751C10.4814 6.751 9.25015 7.98221 9.25015 9.501C9.25015 11.0198 10.4814 12.251 12.0002 12.251C13.5189 12.251 14.7502 11.0198 14.7502 9.501C14.7502 7.98221 13.5189 6.751 12.0002 6.751ZM9.14933 16.3765C9.71941 15.391 10.7831 14.7307 12.0001 14.7307C13.2171 14.7307 14.2808 15.391 14.8509 16.3765C15.0583 16.7351 15.5171 16.8576 15.8757 16.6502C16.2342 16.4428 16.3567 15.984 16.1493 15.6254C15.3222 14.1955 13.7743 13.2307 12.0001 13.2307C10.226 13.2307 8.6781 14.1955 7.85092 15.6254C7.64351 15.984 7.76603 16.4428 8.12458 16.6502C8.48313 16.8576 8.94192 16.7351 9.14933 16.3765Z" fill="#18465A"/>
</svg>
