<svg width="24" height="25" viewBox="0 0 24 25" fill="none" xmlns="http://www.w3.org/2000/svg">
<path d="M15.6046 5.25567L17.7291 3.13119C18.7041 2.15614 20.285 2.15614 21.26 3.13119C22.2351 4.10623 22.2351 5.6871 21.26 6.66214L19.1384 8.78374C20.6019 11.6712 20.201 15.2611 17.9357 17.7638C18.1536 18.5941 17.9371 19.5146 17.2864 20.1654C16.3113 21.1404 14.7305 21.1404 13.7554 20.1654L4.26577 10.6757C3.29072 9.70067 3.29072 8.11981 4.26577 7.14476C4.90315 6.50737 5.79941 6.28665 6.6161 6.48257C9.11623 4.20427 12.7113 3.79531 15.6046 5.25567ZM18.3143 7.48651L20.1994 5.60148C20.5886 5.21222 20.5886 4.58111 20.1994 4.19185C19.8101 3.80258 19.179 3.80258 18.7897 4.19185L16.9036 6.07797C17.165 6.28123 17.4167 6.50296 17.6569 6.74316C17.894 6.98033 18.1132 7.22867 18.3143 7.48651ZM5.32643 8.20542C4.93717 8.59468 4.93717 9.2258 5.32643 9.61506L14.8161 19.1047C15.2054 19.494 15.8365 19.494 16.2257 19.1047C16.615 18.7155 16.615 18.0843 16.2257 17.6951L6.73607 8.20542C6.34681 7.81616 5.71569 7.81616 5.32643 8.20542ZM7.78033 17.6802C8.07322 17.3873 8.07322 16.9125 7.78033 16.6196C7.48744 16.3267 7.01256 16.3267 6.71967 16.6196L4.71967 18.6196C4.42678 18.9125 4.42678 19.3873 4.71967 19.6802C5.01256 19.9731 5.48744 19.9731 5.78033 19.6802L7.78033 17.6802ZM10.2803 19.1196C10.5732 19.4125 10.5732 19.8873 10.2803 20.1802L8.28033 22.1802C7.98744 22.4731 7.51256 22.4731 7.21967 22.1802C6.92678 21.8873 6.92678 21.4125 7.21967 21.1196L9.21967 19.1196C9.51256 18.8267 9.98744 18.8267 10.2803 19.1196ZM5.28033 15.1802C5.57322 14.8873 5.57322 14.4125 5.28033 14.1196C4.98744 13.8267 4.51256 13.8267 4.21967 14.1196L2.21967 16.1196C1.92678 16.4125 1.92678 16.8873 2.21967 17.1802C2.51256 17.4731 2.98744 17.4731 3.28033 17.1802L5.28033 15.1802ZM17.0963 16.4356C19.1219 13.8841 18.9552 10.1629 16.5962 7.80382C14.2371 5.44478 10.5159 5.27809 7.9644 7.30376L17.0963 16.4356Z" fill="#344054"/>
</svg>
