<svg width="24" height="25" viewBox="0 0 24 25" fill="none" xmlns="http://www.w3.org/2000/svg">
<path d="M6.75 4.3999H17.25C18.7125 4.3999 19.9084 5.5416 19.995 6.98238L20 7.1499L20.0006 10.5036C21.0968 10.8139 21.9147 11.7871 21.9937 12.9627L22 13.1499V20.6499C22 21.0641 21.6642 21.3999 21.25 21.3999C20.8703 21.3999 20.5565 21.1177 20.5068 20.7517L20.5 20.6499V18.3999H3.5V20.6499C3.5 21.0296 3.21785 21.3434 2.85177 21.3931L2.75 21.3999C2.3703 21.3999 2.05651 21.1177 2.00685 20.7517L2 20.6499V13.1499C2 11.891 2.84596 10.8296 4.00044 10.5033L4 7.1499C4 5.68737 5.1417 4.4915 6.58248 4.40492L6.75 4.3999ZM19.25 11.8999H4.75C4.10279 11.8999 3.57047 12.3918 3.50645 13.0221L3.5 13.1499V16.8999H20.5V13.1499C20.5 12.5027 20.0081 11.9704 19.3778 11.9064L19.25 11.8999ZM17.25 5.8999H6.75C6.10279 5.8999 5.57047 6.39177 5.50645 7.02209L5.5 7.1499V10.3999H7C7 9.84762 7.44772 9.3999 8 9.3999H10C10.5128 9.3999 10.9355 9.78594 10.9933 10.2833L11 10.3999H13C13 9.84762 13.4477 9.3999 14 9.3999H16C16.5128 9.3999 16.9355 9.78594 16.9933 10.2833L17 10.3999H18.5V7.1499C18.5 6.50269 18.0081 5.97037 17.3778 5.90635L17.25 5.8999Z" fill="#344054"/>
</svg>
