<svg width="48" height="48" viewBox="0 0 48 48" fill="none" xmlns="http://www.w3.org/2000/svg">
<path d="M30.635 6.70909C31.8023 7.1737 32.6276 8.01114 33.3675 9.23888L33.6113 9.66261L34.5158 11.3969L34.5455 11.4453L34.5726 11.4875L34.6494 11.5925C35.0614 12.0415 35.7511 12.3128 36.2062 12.3128C40.3758 12.3128 43.7813 15.5873 43.9901 19.7038L44.0002 20.1048V31.6948C44.0002 37.0387 39.7799 41.3997 34.4913 41.6256L34.0602 41.6348H13.9402C8.59492 41.6348 4.23519 37.415 4.00943 32.1259L4.00024 31.6948V20.1048C4.00024 15.8019 7.4902 12.3128 11.7942 12.3128C12.2478 12.3128 12.9384 12.0411 13.3511 11.5925L13.3653 11.5757L13.3831 11.5524L13.486 11.3947L14.3879 9.66316C15.1918 8.20211 16.0663 7.22541 17.364 6.7089C19.742 5.76334 28.2588 5.76334 30.635 6.70909ZM18.473 9.49642C18.0302 9.67266 17.6293 10.0806 17.2015 10.7878L17.0163 11.1094L16.2466 12.5976L16.0571 12.9404C15.899 13.2035 15.7408 13.4255 15.5601 13.6223C14.6393 14.6233 13.3172 15.2014 12.1419 15.2982L11.7942 15.3128L11.4661 15.3238C9.08019 15.4851 7.17267 17.3922 7.01131 19.7768L7.00024 20.1048V31.6948C7.00024 35.3993 9.90373 38.4268 13.5595 38.6245L13.9402 38.6348H34.0602C37.7641 38.6348 40.7922 35.7301 40.99 32.0754L41.0002 31.6948V20.1048C41.0002 17.5692 39.0287 15.4925 36.5344 15.3238L36.2062 15.3128L35.858 15.2982C34.6809 15.2013 33.3588 14.6231 32.4391 13.621C32.2609 13.4268 32.1035 13.2063 31.9463 12.9455L31.9086 12.8808L31.8635 12.8005L31.6314 12.365L30.9835 11.1099C30.5461 10.3157 30.1455 9.83031 29.713 9.58638L29.5255 9.49642L29.2869 9.41709C27.2286 8.83532 20.0691 8.86176 18.473 9.49642ZM23.9996 18.3982C28.3401 18.3982 31.8576 21.9157 31.8576 26.2562C31.8576 30.5966 28.3401 34.1142 23.9996 34.1142C19.6592 34.1142 16.1416 30.5966 16.1416 26.2562C16.1416 21.9157 19.6592 18.3982 23.9996 18.3982ZM23.9996 21.3982C21.3161 21.3982 19.1416 23.5726 19.1416 26.2562C19.1416 28.9397 21.3161 31.1142 23.9996 31.1142C26.6832 31.1142 28.8576 28.9397 28.8576 26.2562C28.8576 23.5726 26.6832 21.3982 23.9996 21.3982ZM35.0088 17.0002C36.1134 17.0002 37.0088 17.8956 37.0088 19.0002C37.0088 20.0258 36.2368 20.8712 35.2421 20.9867L35.0088 21.0002C33.8863 21.0002 32.9908 20.1047 32.9908 19.0002C32.9908 17.9745 33.7629 17.1291 34.7576 17.0136L35.0088 17.0002Z" fill="#0A113C"/>
</svg>
