<svg width="48" height="22" viewBox="0 0 48 22" fill="none" xmlns="http://www.w3.org/2000/svg">
<g id="Image 2">
<g id="Iconly/Light-Outline/Image-2">
<g id="Image-2">
<path id="Combined-Shape" fill-rule="evenodd" clip-rule="evenodd" d="M32.6049 4C35.8209 4 38.5949 5.074 40.6249 7.108C42.7469 9.232 43.9109 12.322 43.9069 15.81L43.9098 29.8028C43.9133 29.8566 43.9139 29.9106 43.9116 29.9645L43.9069 32.1C43.9069 39.162 39.3609 43.908 32.5949 43.908H15.3029C8.54285 43.908 4.00085 39.162 4.00085 32.1V15.808C4.00085 8.746 8.54285 4 15.3029 4H32.6049ZM33.1581 25.6646C31.9821 25.6646 30.6021 27.6106 29.3801 29.3286C27.7041 31.6886 25.9701 34.1306 23.3581 34.1306C21.5921 34.1306 19.9741 33.4506 18.5481 32.8486C16.2801 31.8926 15.2521 31.5866 14.2461 32.4146C12.2322 34.0741 10.2424 37.0959 9.32811 38.5829C10.7712 40.0707 12.8212 40.908 15.3029 40.908H32.5949C37.6449 40.908 40.9069 37.452 40.9069 32.1L40.9069 30.502L40.8607 30.4534C39.1099 28.6495 36.0866 25.6646 33.1581 25.6646ZM32.6049 7H15.3029C10.2609 7 7.00085 10.458 7.00085 15.808V32.1C7.00085 33.4372 7.20435 34.656 7.5883 35.7321C8.74567 33.9847 10.4936 31.6188 12.3401 30.0986C14.8441 28.0386 17.5401 29.1706 19.7121 30.0846C20.9901 30.6226 22.1981 31.1306 23.3581 31.1306C24.4221 31.1306 25.7561 29.2506 26.9361 27.5926C28.5741 25.2806 30.4341 22.6646 33.1581 22.6646C36.1475 22.6646 38.8551 24.5017 40.909 26.3249L40.9069 15.808C40.9109 13.082 40.0789 10.806 38.5029 9.228C37.0469 7.77 35.0089 7 32.6049 7ZM17.7149 12.379C20.5769 12.381 22.9049 14.709 22.9069 17.569V17.571C22.9069 20.433 20.5789 22.761 17.7149 22.761C14.8509 22.761 12.5229 20.433 12.5229 17.571C12.5229 14.707 14.8509 12.379 17.7149 12.379ZM17.7129 15.379C16.5049 15.379 15.5229 16.361 15.5229 17.571C15.5229 18.779 16.5049 19.761 17.7149 19.761C18.9229 19.761 19.9069 18.779 19.9069 17.573C19.9049 16.363 18.9209 15.381 17.7129 15.379Z" fill="#9CA4AB"/>
</g>
</g>
</g>
</svg>
