<svg width="18" height="18" viewBox="0 0 18 18" fill="none" xmlns="http://www.w3.org/2000/svg">
<g id="Chat">
<g id="Iconly/Light-Outline/Chat">
<g id="Chat_2">
<path id="Combined-Shape" fill-rule="evenodd" clip-rule="evenodd" d="M8.8113 0.750225C10.966 0.750225 12.991 1.58798 14.512 3.10973C17.656 6.25373 17.656 11.3687 14.512 14.5127C12.9708 16.0547 10.8955 16.8707 8.7933 16.8707C7.6473 16.8707 6.4938 16.6285 5.41455 16.129C5.09655 16.0015 4.7988 15.8815 4.58505 15.8815C4.33905 15.883 4.0083 15.997 3.6888 16.1072C3.0333 16.3322 2.2173 16.6127 1.61355 16.0112C1.01205 15.409 1.28955 14.5952 1.51305 13.9405C1.6233 13.618 1.73655 13.285 1.73655 13.033C1.73655 12.826 1.6368 12.562 1.4838 12.1817C0.0790473 9.14797 0.728547 5.49172 3.1113 3.11048C4.6323 1.58873 6.65655 0.750225 8.8113 0.750225ZM8.81205 1.87523C6.9573 1.87523 5.21505 2.59673 3.9063 3.90623C1.8558 5.95523 1.2978 9.10147 2.51655 11.7362C2.69205 12.1705 2.86155 12.5935 2.86155 13.033C2.86155 13.4717 2.7108 13.9135 2.57805 14.3035C2.46855 14.6245 2.3028 15.109 2.4093 15.2155C2.51355 15.3235 3.00105 15.1532 3.3228 15.043C3.70905 14.911 4.14705 14.7595 4.5813 14.7565C5.0163 14.7565 5.42655 14.9215 5.8608 15.0962C8.52105 16.3262 11.6673 15.7667 13.717 13.7177C16.4215 11.0117 16.4215 6.60998 13.717 3.90548C12.4075 2.59598 10.666 1.87523 8.81205 1.87523ZM11.7722 8.37225C12.1862 8.37225 12.5222 8.7075 12.5222 9.12225C12.5222 9.537 12.1862 9.87225 11.7722 9.87225C11.3582 9.87225 11.0192 9.537 11.0192 9.12225C11.0192 8.7075 11.3515 8.37225 11.7655 8.37225H11.7722ZM8.76562 8.37225C9.17962 8.37225 9.51562 8.7075 9.51562 9.12225C9.51562 9.537 9.17962 9.87225 8.76562 9.87225C8.35162 9.87225 8.01262 9.537 8.01262 9.12225C8.01262 8.7075 8.34412 8.37225 8.75887 8.37225H8.76562ZM5.75872 8.37225C6.17272 8.37225 6.50872 8.7075 6.50872 9.12225C6.50872 9.537 6.17272 9.87225 5.75872 9.87225C5.34472 9.87225 5.00572 9.537 5.00572 9.12225C5.00572 8.7075 5.33797 8.37225 5.75197 8.37225H5.75872Z" fill="#171725"/>
</g>
</g>
</g>
</svg>
