<svg width="24" height="25" viewBox="0 0 24 25" fill="none" xmlns="http://www.w3.org/2000/svg">
<path d="M4 10.9592C4 7.18799 4 5.30238 5.17157 4.1308C6.34315 2.95923 8.22876 2.95923 12 2.95923H13.5C17.2712 2.95923 19.1569 2.95923 20.3284 4.1308C21.5 5.30238 21.5 7.18799 21.5 10.9592V14.9592C21.5 18.7304 21.5 20.6161 20.3284 21.7876C19.1569 22.9592 17.2712 22.9592 13.5 22.9592H12C8.22876 22.9592 6.34315 22.9592 5.17157 21.7876C4 20.6161 4 18.7304 4 14.9592V10.9592Z" stroke="#344054" stroke-width="1.5"/>
<path d="M9.79993 12.9333C9.37332 12.1894 9.16733 11.582 9.04313 10.9662C8.85943 10.0556 9.27981 9.16609 9.97622 8.59849C10.2706 8.3586 10.608 8.44056 10.782 8.75281L11.1749 9.45774C11.4864 10.0165 11.6421 10.2959 11.6112 10.5921C11.5803 10.8882 11.3703 11.1294 10.9503 11.6119L9.79993 12.9333ZM9.79993 12.9333C10.6634 14.4389 12.0185 15.7948 13.5259 16.6593M13.5259 16.6593C14.2698 17.0859 14.8772 17.2919 15.493 17.4161C16.4036 17.5998 17.2931 17.1794 17.8607 16.483C18.1006 16.1886 18.0187 15.8512 17.7064 15.6772L17.0015 15.2843C16.4427 14.9728 16.1634 14.8171 15.8672 14.848C15.571 14.8789 15.3298 15.0889 14.8473 15.5089L13.5259 16.6593Z" stroke="#344054" stroke-width="1.5" stroke-linejoin="round"/>
<path d="M5 6.95923H2.5M5 12.9592H2.5M5 18.9592H2.5" stroke="#344054" stroke-width="1.5" stroke-linecap="round" stroke-linejoin="round"/>
</svg>
