<svg width="6" height="12" viewBox="0 0 6 12" fill="none" xmlns="http://www.w3.org/2000/svg">
<path fill-rule="evenodd" clip-rule="evenodd" d="M5.85356 5.64689C5.94719 5.74064 5.99978 5.86772 5.99978 6.00022C5.99978 6.13272 5.94719 6.25981 5.85356 6.35356L0.853556 11.3536C0.758773 11.4419 0.633409 11.49 0.503875 11.4877C0.374341 11.4854 0.250751 11.4329 0.159142 11.3413C0.0675332 11.2497 0.0150587 11.1261 0.0127732 10.9966C0.0104877 10.867 0.0585697 10.7417 0.14689 10.6469L4.79356 6.00022L0.14689 1.35356C0.0585697 1.25877 0.0104877 1.13341 0.0127732 1.00387C0.0150587 0.874341 0.0675332 0.750751 0.159142 0.659142C0.250751 0.567533 0.374341 0.515059 0.503875 0.512773C0.633409 0.510488 0.758773 0.55857 0.853556 0.64689L5.85356 5.64689Z" fill="#5A5A5A"/>
</svg>
