<svg width="24" height="24" viewBox="0 0 24 24" fill="none" xmlns="http://www.w3.org/2000/svg">
<path d="M14.1209 2.42567L13.4579 1.51086C13.3656 1.38349 13.3195 1.3198 13.2491 1.28693C13.1788 1.25405 13.1042 1.25924 12.955 1.2696C11.2553 1.38769 9.70654 2.05414 8.48421 3.09334C8.41966 3.14822 8.45923 3.24811 8.54381 3.25309C9.52444 3.31082 10.0463 3.85564 10.6179 4.45995C11.5014 5.39401 12.1961 5.31679 12.5218 5.14463C12.6549 5.07428 12.6794 5.02449 12.6878 5.00733L12.6884 5.0061C12.715 4.95241 12.7261 4.89501 12.7657 4.67771C12.7988 4.49611 12.8563 4.18437 13.0555 3.88336C13.2662 3.56505 13.5807 3.33299 13.9954 3.16858C14.1683 3.10004 14.2215 3.00408 14.2407 2.91359C14.2646 2.80084 14.2453 2.62142 14.1209 2.42567Z" fill="#18465A"/>
<path d="M15.5408 1.91547C15.4432 1.70294 15.3944 1.59668 15.4372 1.54794C15.4799 1.49919 15.5824 1.53082 15.7874 1.59407C18.951 2.57048 21.25 5.51917 21.25 9.0051C21.25 9.14454 21.1353 9.25524 20.9959 9.25524H20C19.0266 9.25524 18.4232 9.67132 18.0089 9.957L17.9751 9.98027C17.5739 10.2565 17.433 10.3276 17.1471 10.2704C15.882 10.0172 14.8684 9.98093 14.1437 10.316C13.7491 10.4985 13.4538 10.7844 13.2697 11.1549C13.0945 11.5077 13.0416 11.8933 13.0416 12.258C13.0416 12.8958 13.0362 13.0823 12.9989 13.2321C12.9654 13.3666 12.9024 13.488 12.6234 13.9682C12.4302 14.3005 12.2296 14.7442 12.2517 15.2412C12.2757 15.7841 12.555 16.2433 13.0235 16.5975C13.0846 16.6486 13.0459 16.7468 12.9664 16.7414C8.93511 16.4671 5.75 13.1083 5.75 9.0051C5.75 7.62797 6.10879 6.33469 6.73795 5.21373C6.85919 4.99772 6.91981 4.88972 7.03683 4.8212C7.15385 4.75269 7.28854 4.75269 7.55792 4.75269H8.47603C8.79051 4.7749 8.95032 4.88009 9.52878 5.49164C10.7445 6.77691 12.149 7.03932 13.2228 6.4717C13.6112 6.26641 13.8722 5.99652 14.0327 5.67261C14.1602 5.41527 14.2071 5.14524 14.2335 4.99327L14.2417 4.94688C14.2733 4.7734 14.2918 4.73423 14.3065 4.71203C14.3113 4.70459 14.3517 4.64184 14.5482 4.56393C15.1782 4.31416 15.5824 3.81788 15.7082 3.22554C15.8042 2.77354 15.7278 2.32267 15.5408 1.91547Z" fill="#18465A"/>
<path d="M15.0706 16.3551C15.1855 16.4513 15.2429 16.4994 15.3155 16.515C15.3881 16.5307 15.4566 16.5115 15.5937 16.4731C18.0623 15.7817 20.033 13.8979 20.8464 11.4815C20.9531 11.1645 21.0065 11.0059 20.9167 10.881C20.8269 10.756 20.6504 10.756 20.2974 10.756H20C19.5002 10.756 19.2266 10.9405 18.8253 11.2167L18.811 11.2266C18.396 11.5123 17.79 11.9295 16.8529 11.742C15.618 11.4949 15.0275 11.5607 14.7729 11.6783C14.678 11.7223 14.6399 11.7685 14.613 11.8227C14.5773 11.8947 14.5416 12.0263 14.5416 12.2579L14.5417 12.3451C14.5419 12.8563 14.5421 13.2426 14.4544 13.5949C14.3631 13.9616 14.1816 14.2732 13.9582 14.657L13.92 14.7225C13.775 14.9722 13.7473 15.1103 13.7502 15.1747C13.7512 15.1964 13.7555 15.2149 13.7705 15.2406C13.7879 15.2703 13.8313 15.3284 13.9359 15.406C13.9479 15.4149 13.9595 15.4241 13.9709 15.4336L15.0706 16.3551Z" fill="#18465A"/>
<path fill-rule="evenodd" clip-rule="evenodd" d="M7.21699 1.30292C7.60198 1.6989 7.59306 2.33201 7.19708 2.71699C5.53044 4.33735 4.5 6.59051 4.5 9.08251C4.5 13.9997 8.52161 18 13.5 18C15.9559 18 18.1791 17.0267 19.8029 15.448C20.1989 15.063 20.832 15.072 21.217 15.4679C21.602 15.8639 21.5931 16.497 21.1971 16.882C19.2134 18.8106 16.495 20 13.5 20V21H14.5C15.0523 21 15.5 21.4477 15.5 22C15.5 22.5523 15.0523 23 14.5 23H10.5C9.94772 23 9.5 22.5523 9.5 22C9.5 21.4477 9.94772 21 10.5 21H11.5V19.8199C6.38488 18.8869 2.5 14.4404 2.5 9.08251C2.5 6.02589 3.76683 3.26255 5.80292 1.28301C6.1989 0.898021 6.83201 0.906936 7.21699 1.30292Z" fill="#18465A"/>
</svg>
