<svg width="24" height="25" viewBox="0 0 24 25" fill="none" xmlns="http://www.w3.org/2000/svg">
<path fill-rule="evenodd" clip-rule="evenodd" d="M11.5412 2.48563C14.1631 2.42148 16.1543 4.42992 16.2492 6.81943C16.2712 7.37128 15.8416 7.83642 15.2897 7.85836C14.7379 7.88029 14.2727 7.45071 14.2508 6.89886C14.1986 5.5845 13.1031 4.44801 11.5901 4.48503C11.2681 4.49291 10.8273 4.6087 9.57262 4.96261C6.79407 5.74634 4.82159 6.94403 4.34088 9.39506C4.25456 9.83518 4.25002 10.3466 4.25002 11.6469V13.3214C4.25002 14.6216 4.25456 15.1331 4.34088 15.5732C4.82159 18.0242 6.79407 19.2219 9.57261 20.0056C10.8273 20.3595 11.2681 20.4753 11.5901 20.4832C13.1031 20.5202 14.1986 19.3837 14.2508 18.0694C14.2727 17.5175 14.7379 17.0879 15.2897 17.1099C15.8416 17.1318 16.2712 17.597 16.2492 18.1488C16.1543 20.5383 14.1631 22.5468 11.5412 22.4826C10.9317 22.4677 10.224 22.2678 9.18755 21.9751C9.13575 21.9605 9.08313 21.9456 9.02967 21.9305C6.08519 21.1 3.08955 19.5847 2.37827 15.9581C2.24978 15.303 2.24987 14.5836 2.25001 13.4379C2.25001 13.3995 2.25002 13.3607 2.25002 13.3214V11.6469C2.25002 11.6075 2.25001 11.5687 2.25001 11.5304C2.24987 10.3847 2.24978 9.66526 2.37827 9.01013C3.08955 5.38355 6.0852 3.86826 9.02967 3.03772C9.08314 3.02264 9.13576 3.00778 9.18756 2.99315C10.224 2.70042 10.9317 2.50054 11.5412 2.48563Z" fill="#FA5252"/>
<path d="M9.75 13.49C9.19772 13.49 8.75 13.0422 8.75 12.49C8.75 11.9377 9.19772 11.49 9.75 11.49H17.25V10.8957C17.2499 10.7201 17.2497 10.5044 17.2718 10.328L17.2722 10.3247C17.288 10.1982 17.3598 9.62217 17.9254 9.34781C18.4923 9.07285 18.9924 9.37478 19.1006 9.4401L19.5691 9.77924C19.9449 10.0739 20.4594 10.4796 20.8504 10.86C21.0455 11.0498 21.2467 11.2671 21.4056 11.498C21.5468 11.7032 21.75 12.0534 21.75 12.4841C21.75 12.9148 21.5468 13.265 21.4056 13.4702C21.2467 13.7011 21.0455 13.9184 20.8504 14.1082C20.4594 14.4887 19.9449 14.8943 19.5691 15.189L19.1006 15.5281C18.9924 15.5934 18.4922 15.8954 17.9254 15.6204C17.3598 15.3461 17.288 14.77 17.2722 14.6436L17.2718 14.6402C17.2497 14.4638 17.2499 14.2481 17.25 14.0725V13.49H9.75Z" fill="#FA5252"/>
</svg>
