<svg width="229" height="172" viewBox="0 0 229 172" fill="none" xmlns="http://www.w3.org/2000/svg">
<path d="M22.6582 98.2177L103.871 146.596L165.149 112.918L206.675 89.1533L126.884 43.0859" fill="#C9C9C9"/>
<path d="M22.6582 98.2176L104.072 144.658L160.832 112.551L204.405 72.4176L125.858 25.4043L86.2982 61.5243L22.6582 98.2176Z" fill="#FFF3D9"/>
<path d="M30.0879 97.1457L104.845 139.785L156.967 110.304L196.979 73.4498L124.848 30.2778L88.5278 63.4509L30.0879 97.1457Z" fill="#68E1FD"/>
<path opacity="0.1" d="M124.849 30.2778L88.5283 63.4509L156.967 110.304L196.98 73.4498L124.849 30.2778Z" fill="black"/>
<path d="M183.777 65.5492L171.198 75.9609L138.707 67.9973L83.4088 103.756L79.1547 125.13L70.8643 120.406L76.8327 99.4848L136.568 58.7036L168.635 67.4183L175.349 60.5039" fill="#F9EFD7"/>
<path d="M180.772 63.749L179.643 64.632" stroke="#F7931E" stroke-width="1.72" stroke-miterlimit="10" stroke-linecap="round"/>
<path d="M176.461 67.1201L172.603 70.1359" stroke="#F7931E" stroke-width="1.72" stroke-miterlimit="10" stroke-linecap="round" stroke-dasharray="2.88 4.04"/>
<path d="M171.009 71.3799L169.885 72.2628L168.509 71.85" stroke="#F7931E" stroke-width="1.72" stroke-miterlimit="10" stroke-linecap="round"/>
<path d="M164.811 70.7381L141.281 63.6689" stroke="#F7931E" stroke-width="1.72" stroke-miterlimit="10" stroke-linecap="round" stroke-dasharray="2.76 3.86"/>
<path d="M139.428 63.1125L138.058 62.6997L136.883 63.5253" stroke="#F7931E" stroke-width="1.72" stroke-miterlimit="10" stroke-linecap="round"/>
<path d="M133.409 65.9561L111.324 81.4131" stroke="#F7931E" stroke-width="1.72" stroke-miterlimit="10" stroke-linecap="round" stroke-dasharray="3.03 4.24"/>
<path d="M109.586 82.6289L108.411 83.4488" stroke="#F7931E" stroke-width="1.72" stroke-miterlimit="10" stroke-linecap="round"/>
<path d="M107.42 88.1789C112.613 88.1789 116.823 86.282 116.823 83.942C116.823 81.602 112.613 79.7051 107.42 79.7051C102.227 79.7051 98.0176 81.602 98.0176 83.942C98.0176 86.282 102.227 88.1789 107.42 88.1789Z" stroke="#39B54A" stroke-width="1.14667" stroke-miterlimit="10"/>
<path d="M123.84 51.216C123.84 51.044 123.829 50.8739 123.806 50.7057C123.353 45.1501 119.649 40.3169 114.661 37.972C112.629 37.0279 110.412 36.5499 108.172 36.5731C105.931 36.5962 103.724 37.12 101.712 38.1059C99.7 39.0919 97.9338 40.5151 96.5427 42.2716C95.1515 44.028 94.1706 46.0732 93.6717 48.2576C92.525 53.5265 94.3883 58.8643 96.3319 63.7089C99.345 71.2653 103.246 78.4365 107.953 85.0713C110.475 81.5853 112.814 77.9703 114.96 74.2411C119.065 67.2464 124.328 59.6841 123.84 51.216Z" fill="#E55151"/>
<path d="M108.429 61.3064C113.479 61.3064 117.574 57.2122 117.574 52.1618C117.574 47.1113 113.479 43.0171 108.429 43.0171C103.378 43.0171 99.2842 47.1113 99.2842 52.1618C99.2842 57.2122 103.378 61.3064 108.429 61.3064Z" fill="white"/>
<path d="M128.525 74.5791L136.568 98.4126H169.879L166.64 101.394H134.642L125.778 76.3564" fill="#F9EFD7"/>
<path d="M124.849 30.2778L136.568 58.7037L140.805 59.8561L129.51 33.07L124.849 30.2778Z" fill="#F9EFD7"/>
<path d="M60.7852 78.9595L84.8881 94.8408L87.921 91.9168L63.52 77.0273" fill="#F9EFD7"/>
<path d="M42.4895 103.773C42.2774 104.117 71.7295 86.2063 71.7295 86.2063L95.8095 70.4912L93.7168 58.7207L92.4555 59.8674L94.3934 69.958L40.5459 103.108" fill="#F9EFD7"/>
<path d="M53.2571 92.5533C55.9486 92.5533 58.1305 91.5548 58.1305 90.323C58.1305 89.0913 55.9486 88.0928 53.2571 88.0928C50.5657 88.0928 48.3838 89.0913 48.3838 90.323C48.3838 91.5548 50.5657 92.5533 53.2571 92.5533Z" fill="#B3B3B3"/>
<path d="M83.4092 103.773C83.4092 103.773 114.169 98.1147 122.396 111.491C130.623 124.866 124.833 128.49 124.833 128.49L130.067 125.526C130.067 125.526 130.342 109.639 115 103.126C99.6574 96.6126 86.3332 100.408 86.3332 100.408" fill="#F9EFD7"/>
<path opacity="0.28" d="M87.6113 129.957C87.9381 129.797 97.1229 126.552 97.1229 126.552L98.8429 129.636L93.2587 133.197L87.6113 129.957Z" fill="url(#paint0_linear_309_5092)"/>
<path opacity="0.28" d="M101.572 132.847C101.899 132.686 114.186 128.191 114.186 128.191L115.567 129.63L106.727 136.184L101.572 132.847Z" fill="url(#paint1_linear_309_5092)"/>
<path opacity="0.28" d="M92.8799 122.865C93.4016 122.607 106.732 117.889 106.732 117.889L108.394 120.612L98.2291 128.191L92.8799 122.865Z" fill="url(#paint2_linear_309_5092)"/>
<path d="M107.706 101.961H107.145C106.508 101.961 105.992 102.477 105.992 103.114V119.826C105.992 120.463 106.508 120.979 107.145 120.979H107.706C108.343 120.979 108.859 120.463 108.859 119.826V103.114C108.859 102.477 108.343 101.961 107.706 101.961Z" fill="#BC532A"/>
<path d="M114.506 105.854C113.847 102.988 110.906 90.34 105.7 94.0552C103.034 95.9587 102.26 98.9343 101.211 101.847C100.242 104.248 99.6819 106.794 99.5538 109.38C99.4678 114.644 104.823 115.286 108.916 115.269C111.278 115.269 114.65 113.864 115.223 111.301C115.555 109.753 114.988 107.93 114.65 106.416L114.506 105.854Z" fill="#2C9135"/>
<path d="M114.759 106.411L114.633 105.837C114.059 103.297 111.68 93.1207 107.54 93.3672C108.767 98.7336 110.585 104.404 109.616 109.896C109.306 111.813 108.557 113.633 107.426 115.211C107.999 115.211 108.521 115.246 109.043 115.246C111.405 115.246 114.776 113.841 115.349 111.278C115.653 109.753 115.086 107.924 114.759 106.411Z" fill="#156819"/>
<path d="M114.592 116.799H114.586C114.036 116.799 113.589 117.246 113.589 117.797V129.063C113.589 129.614 114.036 130.061 114.586 130.061H114.592C115.143 130.061 115.59 129.614 115.59 129.063V117.797C115.59 117.246 115.143 116.799 114.592 116.799Z" fill="#BC532A"/>
<path d="M119.528 119.511C119.064 117.511 117.017 108.693 113.388 111.284C111.53 112.614 111.003 114.684 110.258 116.714C109.585 118.388 109.198 120.163 109.111 121.965C109.054 125.635 112.786 126.082 115.641 126.07C117.287 126.07 119.655 125.09 120.022 123.301C120.251 122.223 119.861 120.951 119.626 119.896L119.528 119.511Z" fill="#2C9135"/>
<path d="M119.701 119.901L119.615 119.511C119.208 117.74 117.557 110.642 114.673 110.82C115.533 114.564 116.794 118.514 116.118 122.344C115.903 123.681 115.381 124.951 114.593 126.053C114.977 126.053 115.355 126.053 115.739 126.053C117.385 126.053 119.753 125.073 120.12 123.284C120.326 122.229 119.931 120.973 119.701 119.901Z" fill="#156819"/>
<path d="M97.9651 111.88H97.5293C96.8929 111.88 96.377 112.396 96.377 113.033V128.908C96.377 129.545 96.8929 130.061 97.5293 130.061H97.9651C98.6015 130.061 99.1175 129.545 99.1175 128.908V113.033C99.1175 112.396 98.6015 111.88 97.9651 111.88Z" fill="#BC532A"/>
<path d="M104.525 115.601C103.894 112.861 101.085 100.769 96.1081 104.324C93.5567 106.141 92.8343 108.991 91.8195 111.777C90.892 114.072 90.3552 116.506 90.2314 118.978C90.1511 124.006 95.2653 124.625 99.1811 124.603C101.44 124.603 104.656 123.261 105.184 120.807C105.499 119.328 104.96 117.585 104.645 116.14L104.525 115.601Z" fill="#2C9135"/>
<path d="M104.76 116.134L104.64 115.601C104.066 113.176 101.819 103.441 97.8628 103.682C99.0382 108.813 100.77 114.231 99.8466 119.483C99.5519 121.317 98.8355 123.058 97.7539 124.568C98.2814 124.568 98.7974 124.603 99.2962 124.603C101.555 124.603 104.772 123.261 105.299 120.807C105.62 119.322 105.075 117.579 104.76 116.134Z" fill="#156819"/>
<path opacity="0.28" d="M147.628 90.6323C143.959 91.9739 138.627 93.929 138.409 94.0379L143.569 97.3747L149.52 92.9658C148.729 92.3329 148.084 91.537 147.628 90.6323Z" fill="url(#paint3_linear_309_5092)"/>
<path d="M149.468 93.1725L149.537 93.098V69.5913H146.464V93.1324C146.899 93.4488 147.422 93.6225 147.96 93.6297C148.498 93.6369 149.025 93.4771 149.468 93.1725Z" fill="#D3894C"/>
<path d="M148.001 77.6523L142.915 80.7483L141.138 79.7163L141.866 77.4229L146.791 74.562L148.001 77.6523Z" fill="#D3894C"/>
<path d="M146.791 75.147L142.324 77.813L141.527 79.9458L142.915 80.7484L146.71 78.4379L146.791 75.147Z" fill="#C66B28"/>
<path d="M148.333 72.5152L152.576 70.2734L154.514 71.4717L152.576 73.4841L149.629 74.1434" fill="#D3894C"/>
<path d="M149.468 93.1725L149.537 93.098V69.5913H148.161V93.6197C148.629 93.5917 149.081 93.4371 149.468 93.1725Z" fill="#C66B28"/>
<path d="M148.161 73.3466L153.459 70.6978L154.514 71.4718L154.112 73.0828L148.97 75.9896" fill="#C66B28"/>
<path d="M148 70.3822C148.849 70.3822 149.537 70.0331 149.537 69.6025C149.537 69.1719 148.849 68.8228 148 68.8228C147.152 68.8228 146.464 69.1719 146.464 69.6025C146.464 70.0331 147.152 70.3822 148 70.3822Z" fill="#EAA068"/>
<path opacity="0.28" d="M40.0586 94.0266C40.3854 93.866 52.6719 89.3711 52.6719 89.3711L54.0537 90.8102L45.2301 97.3748L40.0586 94.0266Z" fill="url(#paint4_linear_309_5092)"/>
<path d="M54.1466 90.7531L54.1867 90.6785V67.1719H52.3291V90.7129C52.4268 90.863 52.5597 90.987 52.7163 91.0741C52.8728 91.1612 53.0482 91.2088 53.2272 91.2128C53.4063 91.2167 53.5836 91.1769 53.7439 91.0968C53.9041 91.0167 54.0423 90.8987 54.1466 90.7531Z" fill="#E6E6E6"/>
<path d="M54.1457 90.7531L54.1858 90.6785V67.1719H53.3545V91.2003C53.6652 91.1563 53.9478 90.9966 54.1457 90.7531Z" fill="#B3B3B3"/>
<path d="M53.2579 67.9628C53.7709 67.9628 54.1867 67.6137 54.1867 67.1831C54.1867 66.7524 53.7709 66.4033 53.2579 66.4033C52.7449 66.4033 52.3291 66.7524 52.3291 67.1831C52.3291 67.6137 52.7449 67.9628 53.2579 67.9628Z" fill="#DDDAA5"/>
<path d="M58.6612 69.0804C59.4406 65.7702 57.7163 62.5319 54.8099 61.8475C51.9034 61.1631 48.9154 63.2918 48.1359 66.602C47.3565 69.9122 49.0808 73.1505 51.9872 73.8349C54.8937 74.5193 57.8817 72.3906 58.6612 69.0804Z" fill="#CA4050"/>
<path d="M57.9119 68.9454C58.5563 66.2084 57.1299 63.5308 54.7258 62.9647C52.3218 62.3986 49.8504 64.1585 49.206 66.8954C48.5615 69.6323 49.9879 72.31 52.392 72.8761C54.7961 73.4421 57.2674 71.6823 57.9119 68.9454Z" fill="white"/>
<path d="M56.0834 63.187L50.7686 72.0565C50.7686 72.0565 51.5942 74.2351 52.0012 73.2777C52.4083 72.3202 57.3791 64.1387 57.3791 64.1387L56.0834 63.187Z" fill="#CA4050"/>
<path opacity="0.28" d="M73.0776 77.0273C69.4083 78.3689 64.0763 80.324 63.8584 80.4329L68.5425 83.4544L74.1383 78.5639C73.3471 77.9275 73.5363 77.9332 73.0776 77.0273Z" fill="url(#paint5_linear_309_5092)"/>
<path opacity="0.28" d="M82.9497 84.1885C79.2803 85.5301 73.9483 87.4851 73.7305 87.5941L78.4146 90.6155L84.0103 85.725C83.2134 85.0943 83.4083 85.0943 82.9497 84.1885Z" fill="url(#paint6_linear_309_5092)"/>
<path opacity="0.28" d="M82.0268 72.1597C78.3575 73.5013 73.0255 75.4563 72.8076 75.5653L77.4918 78.5867L83.0875 73.6962C82.2906 73.0655 82.4855 73.0655 82.0268 72.1597Z" fill="url(#paint7_linear_309_5092)"/>
<path d="M84.3435 81.1439C84.3435 80.5518 83.8635 80.0718 83.2714 80.0718C82.6792 80.0718 82.1992 80.5518 82.1992 81.1439V85.1114C82.1992 85.7035 82.6792 86.1835 83.2714 86.1835C83.8635 86.1835 84.3435 85.7035 84.3435 85.1114V81.1439Z" fill="#BC532A"/>
<path d="M83.2718 84.1881C85.5453 84.1881 87.3883 82.3451 87.3883 80.0716C87.3883 77.7981 85.5453 75.9551 83.2718 75.9551C80.9983 75.9551 79.1553 77.7981 79.1553 80.0716C79.1553 82.3451 80.9983 84.1881 83.2718 84.1881Z" fill="#9CD861"/>
<path d="M83.2706 75.9551C83.038 75.9565 82.806 75.9776 82.5769 76.0181C83.4089 76.4868 84.083 77.192 84.5138 78.0443C84.9445 78.8966 85.1125 79.8576 84.9964 80.8055C84.9023 81.5395 84.6096 82.234 84.1499 82.8139C83.6902 83.3939 83.0809 83.8373 82.3877 84.0964C82.9529 84.2216 83.5382 84.2262 84.1053 84.1099C84.6724 83.9935 85.2086 83.7589 85.6789 83.4212C86.1492 83.0836 86.543 82.6506 86.8345 82.1504C87.1261 81.6502 87.3088 81.0942 87.3709 80.5186C87.433 79.943 87.3729 79.3608 87.1947 78.81C87.0165 78.2592 86.724 77.7522 86.3366 77.322C85.9491 76.8919 85.4752 76.5484 84.9459 76.3138C84.4166 76.0792 83.8438 75.959 83.2649 75.9608L83.2706 75.9551Z" fill="#54BA56"/>
<path d="M73.0653 71.5522H72.5321C71.94 71.5522 71.46 72.0323 71.46 72.6244V78.1226C71.46 78.7148 71.94 79.1948 72.5321 79.1948H73.0653C73.6574 79.1948 74.1374 78.7148 74.1374 78.1226V72.6244C74.1374 72.0323 73.6574 71.5522 73.0653 71.5522Z" fill="#BC532A"/>
<path d="M72.797 76.7004C75.6404 76.7004 77.9455 74.3953 77.9455 71.5519C77.9455 68.7084 75.6404 66.4033 72.797 66.4033C69.9535 66.4033 67.6484 68.7084 67.6484 71.5519C67.6484 74.3953 69.9535 76.7004 72.797 76.7004Z" fill="#9CD861"/>
<path d="M72.8137 66.4034C72.5234 66.4057 72.2338 66.4326 71.948 66.4836C72.9889 67.069 73.8324 67.9506 74.3714 69.0163C74.9104 70.082 75.1205 71.2839 74.9752 72.4692C74.8571 73.3865 74.4909 74.2541 73.916 74.9785C73.3411 75.703 72.5794 76.2567 71.7129 76.58C72.4258 76.751 73.1669 76.7681 73.8869 76.6303C74.6069 76.4924 75.2893 76.2027 75.8885 75.7804C76.4878 75.3581 76.9902 74.813 77.3623 74.1814C77.7344 73.5498 77.9676 72.8461 78.0465 72.1173C78.1253 71.3884 78.0479 70.6512 77.8195 69.9546C77.5911 69.258 77.2169 68.618 76.7217 68.0774C76.2266 67.5368 75.622 67.1078 74.9481 66.8192C74.2743 66.5305 73.5466 66.3888 72.8137 66.4034Z" fill="#54BA56"/>
<path d="M83.4656 68.9144C83.4656 68.3223 82.9856 67.8423 82.3934 67.8423C81.8013 67.8423 81.3213 68.3223 81.3213 68.9144V72.8819C81.3213 73.474 81.8013 73.954 82.3934 73.954C82.9856 73.954 83.4656 73.474 83.4656 72.8819V68.9144Z" fill="#BC532A"/>
<path d="M82.388 71.9591C84.6615 71.9591 86.5046 70.1161 86.5046 67.8426C86.5046 65.5691 84.6615 63.7261 82.388 63.7261C80.1145 63.7261 78.2715 65.5691 78.2715 67.8426C78.2715 70.1161 80.1145 71.9591 82.388 71.9591Z" fill="#9CD861"/>
<path d="M82.3888 63.7261C82.1562 63.7275 81.9241 63.7486 81.6951 63.7891C82.5271 64.2578 83.2012 64.963 83.6319 65.8153C84.0627 66.6676 84.2306 67.6286 84.1145 68.5765C84.0205 69.3105 83.7278 70.005 83.2681 70.5849C82.8084 71.1648 82.1991 71.6083 81.5059 71.8674C82.0711 71.9926 82.6564 71.9972 83.2235 71.8809C83.7906 71.7645 84.3268 71.5299 84.7971 71.1922C85.2673 70.8546 85.6611 70.4216 85.9527 69.9214C86.2442 69.4212 86.427 68.8652 86.4891 68.2896C86.5511 67.714 86.4911 67.1318 86.3128 66.581C86.1346 66.0302 85.8422 65.5232 85.4547 65.093C85.0672 64.6629 84.5934 64.3193 84.0641 64.0848C83.5348 63.8502 82.962 63.73 82.3831 63.7318L82.3888 63.7261Z" fill="#54BA56"/>
<path opacity="0.28" d="M106.37 82.0557C100.236 84.5325 91.3202 88.1502 90.959 88.3623L98.785 93.9409L108.142 84.9109C106.817 83.7069 107.133 83.7069 106.37 82.0557Z" fill="url(#paint8_linear_309_5092)"/>
<defs>
<linearGradient id="paint0_linear_309_5092" x1="90.9252" y1="131.62" x2="99.5997" y2="124.751" gradientUnits="userSpaceOnUse">
<stop stop-opacity="0"/>
<stop offset="1"/>
</linearGradient>
<linearGradient id="paint1_linear_309_5092" x1="107.271" y1="132.795" x2="118.6" y2="126.529" gradientUnits="userSpaceOnUse">
<stop stop-opacity="0"/>
<stop offset="1"/>
</linearGradient>
<linearGradient id="paint2_linear_309_5092" x1="97.392" y1="124.385" x2="106.411" y2="118.714" gradientUnits="userSpaceOnUse">
<stop stop-opacity="0"/>
<stop offset="1"/>
</linearGradient>
<linearGradient id="paint3_linear_309_5092" x1="141.362" y1="95.4713" x2="152.691" y2="88.2301" gradientUnits="userSpaceOnUse">
<stop stop-opacity="0"/>
<stop offset="1"/>
</linearGradient>
<linearGradient id="paint4_linear_309_5092" x1="42.4666" y1="95.8326" x2="56.6394" y2="85.6158" gradientUnits="userSpaceOnUse">
<stop stop-opacity="0"/>
<stop offset="1"/>
</linearGradient>
<linearGradient id="paint5_linear_309_5092" x1="66.6276" y1="81.6656" x2="77.6299" y2="74.6308" gradientUnits="userSpaceOnUse">
<stop stop-opacity="0"/>
<stop offset="1"/>
</linearGradient>
<linearGradient id="paint6_linear_309_5092" x1="76.4997" y1="88.8325" x2="87.5019" y2="81.7977" gradientUnits="userSpaceOnUse">
<stop stop-opacity="0"/>
<stop offset="1"/>
</linearGradient>
<linearGradient id="paint7_linear_309_5092" x1="75.5768" y1="76.8037" x2="86.5791" y2="69.7689" gradientUnits="userSpaceOnUse">
<stop stop-opacity="0"/>
<stop offset="1"/>
</linearGradient>
<linearGradient id="paint8_linear_309_5092" x1="95.7349" y1="90.5811" x2="114.368" y2="78.6673" gradientUnits="userSpaceOnUse">
<stop stop-opacity="0"/>
<stop offset="1"/>
</linearGradient>
</defs>
</svg>
