<svg width="94" height="94" viewBox="0 0 94 94" fill="none" xmlns="http://www.w3.org/2000/svg">
<g id="no-task (4) 1" clip-path="url(#clip0_190_1634)">
<g id="Group">
<g id="Group_2">
<path id="Vector" d="M67.9294 9.17977H60.0928C59.457 8.08317 58.27 7.34403 56.9138 7.34403H45.7141C44.8611 3.15921 41.1516 0.00012207 36.7186 0.00012207C32.2856 0.00012207 28.5761 3.15921 27.7233 7.34403H16.5234C15.1672 7.34403 13.9802 8.08317 13.3445 9.17977H5.50779C2.47079 9.17977 0 11.6506 0 14.6876V88.4923C0 91.5291 2.47079 93.9999 5.50779 93.9999H67.9294C70.9664 93.9999 73.4372 91.5291 73.4372 88.4923V14.6876C73.4372 11.6506 70.9664 9.17977 67.9294 9.17977ZM29.3747 11.0159C30.3885 11.0159 31.2106 10.1938 31.2106 9.17996C31.2106 6.14278 33.6814 3.67198 36.7186 3.67198C39.7558 3.67198 42.2268 6.14278 42.2268 9.17996C42.2268 10.1938 43.0489 11.0159 44.0627 11.0159H56.9138V18.3594H16.5234L16.523 11.0159H29.3747ZM69.7654 88.4923C69.7654 89.5047 68.9417 90.3281 67.9294 90.3281H5.50779C4.49546 90.3281 3.67186 89.5047 3.67186 88.4923V14.6876C3.67186 13.6752 4.49546 12.8516 5.50779 12.8516H12.8515V16.5235H9.17983C8.16603 16.5235 7.3439 17.3456 7.3439 18.3594V84.8203C7.3439 85.8341 8.16603 86.6562 9.17983 86.6562H28.4564C29.4702 86.6562 30.2923 85.8341 30.2923 84.8203C30.2923 83.8065 29.4702 82.9844 28.4564 82.9844H11.0158V20.1954H13.3443C13.9801 21.2921 15.167 22.0313 16.5234 22.0313H56.9138C58.2702 22.0313 59.4572 21.2921 60.0929 20.1954H62.4216V82.9844H44.9797C43.9659 82.9844 43.1438 83.8065 43.1438 84.8203C43.1438 85.8341 43.9659 86.6562 44.9797 86.6562H64.2576C65.2714 86.6562 66.0935 85.8341 66.0935 84.8203V18.3594C66.0935 17.3456 65.2714 16.5235 64.2576 16.5235H60.5857V12.8516H67.9294C68.9417 12.8516 69.7654 13.6752 69.7654 14.6876V88.4923Z" fill="#0A113C"/>
<path id="Vector_2" d="M36.7194 11.016C37.7332 11.016 38.5553 10.1938 38.5553 9.18002C38.5553 8.16622 37.7332 7.34409 36.7194 7.34409H36.7179C35.7041 7.34409 34.8827 8.16622 34.8827 9.18002C34.8827 10.1938 35.7054 11.016 36.7194 11.016Z" fill="#F1B33A"/>
<path id="Vector_3" d="M86.2787 19.9865C85.9677 19.3645 85.3321 18.9718 84.6366 18.9718H79.1288C78.115 18.9718 77.2929 19.7939 77.2929 20.8077C77.2929 21.8215 78.115 22.6436 79.1288 22.6436H80.9647L77.6601 27.0499C77.2429 27.6062 77.1756 28.3505 77.4868 28.9727C77.7978 29.5947 78.4334 29.9874 79.1288 29.9874H84.6366C85.6504 29.9874 86.4726 29.1653 86.4726 28.1515C86.4726 27.1377 85.6504 26.3155 84.6366 26.3155H82.8007L86.1054 21.9093C86.5225 21.3528 86.5899 20.6087 86.2787 19.9865Z" fill="#29BFC0"/>
<path id="Vector_4" d="M92.1641 9.79179H88.4922L93.6328 2.93768C94.05 2.38139 94.1173 1.6371 93.8062 1.01491C93.4951 0.39289 92.8595 0.000183105 92.1641 0.000183105H84.8203C83.8065 0.000183105 82.9844 0.822316 82.9844 1.83612C82.9844 2.84993 83.8065 3.67206 84.8203 3.67206H88.4922L83.3516 10.5262C82.9345 11.0825 82.8671 11.8267 83.1783 12.4488C83.4893 13.071 84.1249 13.4637 84.8203 13.4637H92.1641C93.1779 13.4637 94 12.6415 94 11.6277C94 10.6139 93.1779 9.79179 92.1641 9.79179Z" fill="#29BFC0"/>
<path id="Vector_5" d="M36.7188 82.9844H36.7173C35.7035 82.9844 34.8821 83.8065 34.8821 84.8204C34.8821 85.8342 35.7048 86.6563 36.7188 86.6563C37.7327 86.6563 38.5547 85.8342 38.5547 84.8204C38.5547 83.8065 37.7326 82.9844 36.7188 82.9844Z" fill="#F1B33A"/>
</g>
</g>
<g id="Group 1000003078">
<path id="Vector_6" fill-rule="evenodd" clip-rule="evenodd" d="M33.9399 41.5951C33.9061 40.1954 34.4319 39.1732 35.2427 38.5739C36.5176 37.6339 38.4225 37.6736 39.4565 38.8383C39.9001 39.3391 40.1571 40.0471 40.1645 40.943C40.1821 43.0918 39.1745 44.3476 38.1875 45.6474C36.8598 47.3996 35.5335 49.2003 35.369 52.2069C35.3249 53.0176 35.9477 53.7094 36.757 53.7535C37.5662 53.7975 38.2595 53.1762 38.3036 52.367C38.4269 50.0831 39.5197 48.7524 40.5287 47.4217C41.88 45.6401 43.1269 43.8629 43.102 40.9195C43.0873 39.1893 42.5101 37.8542 41.6523 36.8878C39.6489 34.6318 35.9697 34.388 33.4993 36.2092C32.0188 37.302 30.9422 39.1115 31.0024 41.6642C31.0215 42.4749 31.6957 43.1168 32.5064 43.0977C33.3157 43.0786 33.959 42.4059 33.9399 41.5951Z" fill="#29BFC0"/>
<path id="Vector_7" d="M36.6996 59.2084C37.6974 59.2084 38.5062 58.3996 38.5062 57.4018C38.5062 56.4041 37.6974 55.5953 36.6996 55.5953C35.7019 55.5953 34.8931 56.4041 34.8931 57.4018C34.8931 58.3996 35.7019 59.2084 36.6996 59.2084Z" fill="#29BFC0"/>
</g>
</g>
<defs>
<clipPath id="clip0_190_1634">
<rect width="94" height="94" fill="white"/>
</clipPath>
</defs>
</svg>
