<svg width="360" height="360" viewBox="0 0 360 360" fill="none" xmlns="http://www.w3.org/2000/svg">
<path d="M360 275.328H0V275.508H360V275.328Z" fill="#EBEBEB"/>
<path d="M61.6179 282.183H37.7715V282.363H61.6179V282.183Z" fill="#EBEBEB"/>
<path d="M129.477 280.231H110.477V280.411H129.477V280.231Z" fill="#EBEBEB"/>
<path d="M97.8407 286.431H64.7783V286.611H97.8407V286.431Z" fill="#EBEBEB"/>
<path d="M323.928 287.662H308.376V287.842H323.928V287.662Z" fill="#EBEBEB"/>
<path d="M304.877 287.662H281.858V287.842H304.877V287.662Z" fill="#EBEBEB"/>
<path d="M239.277 284.623H199.591V284.803H239.277V284.623Z" fill="#EBEBEB"/>
<path d="M170.64 243.216H31.6147C30.5256 243.214 29.4818 242.78 28.7123 242.009C27.9429 241.239 27.5107 240.194 27.5107 239.105V43.6753C27.5202 42.5924 27.9566 41.557 28.725 40.794C29.4934 40.031 30.5318 39.602 31.6147 39.6001H170.64C171.73 39.6001 172.776 40.0332 173.547 40.8042C174.318 41.5752 174.751 42.6209 174.751 43.7113V239.105C174.751 240.195 174.318 241.241 173.547 242.012C172.776 242.783 171.73 243.216 170.64 243.216ZM31.6147 39.7441C30.5734 39.746 29.5753 40.161 28.8396 40.8981C28.1039 41.6351 27.6907 42.6339 27.6907 43.6753V239.105C27.6907 240.146 28.1039 241.145 28.8396 241.882C29.5753 242.619 30.5734 243.034 31.6147 243.036H170.64C171.682 243.034 172.68 242.619 173.417 241.883C174.154 241.146 174.569 240.147 174.571 239.105V43.6753C174.569 42.6333 174.154 41.6345 173.417 40.8976C172.68 40.1608 171.682 39.746 170.64 39.7441H31.6147Z" fill="#EBEBEB"/>
<path d="M326.383 243.216H187.351C186.262 243.214 185.217 242.78 184.446 242.01C183.676 241.239 183.242 240.195 183.24 239.105V43.6753C183.252 42.5918 183.69 41.5564 184.459 40.7936C185.229 40.0307 186.268 39.6019 187.351 39.6001H326.383C327.465 39.6038 328.502 40.0337 329.269 40.7965C330.035 41.5594 330.471 42.5937 330.48 43.6753V239.105C330.48 240.193 330.049 241.236 329.281 242.007C328.513 242.777 327.471 243.212 326.383 243.216ZM187.351 39.7441C186.309 39.746 185.311 40.1608 184.574 40.8976C183.837 41.6345 183.422 42.6333 183.42 43.6753V239.105C183.422 240.147 183.837 241.146 184.574 241.883C185.311 242.619 186.309 243.034 187.351 243.036H326.383C327.425 243.034 328.424 242.619 329.161 241.883C329.898 241.146 330.313 240.147 330.315 239.105V43.6753C330.313 42.6333 329.898 41.6345 329.161 40.8976C328.424 40.1608 327.425 39.746 326.383 39.7441H187.351Z" fill="#EBEBEB"/>
<path d="M62.0927 160.553L297.273 160.553V58.5359L62.0927 58.5359V160.553Z" fill="#E6E6E6"/>
<path d="M58.8527 160.553L295.862 160.553V58.5359L58.8527 58.5359V160.553Z" fill="#F5F5F5"/>
<path d="M290.045 154.67V64.4185L64.6633 64.4185V154.67H290.045Z" fill="#FAFAFA"/>
<path d="M160.496 154.671L134.792 64.4258H116.856L142.56 154.671H160.496Z" fill="white"/>
<path d="M137.47 154.671L111.773 64.4258H99.418L125.122 154.671H137.47Z" fill="white"/>
<path d="M268.402 154.671L242.705 64.4258H224.763L250.467 154.671H268.402Z" fill="white"/>
<path d="M245.383 154.671L219.679 64.4258H207.331L233.028 154.671H245.383Z" fill="white"/>
<path d="M114.487 154.67V64.4185H107.547V154.67H114.487Z" fill="#E6E6E6"/>
<path d="M251.812 154.678V64.4258H244.872V154.678H251.812Z" fill="#E6E6E6"/>
<path d="M113.234 158.408V60.0483H104.465V158.408H113.234Z" fill="#F5F5F5"/>
<path d="M250.567 158.407V60.0479H241.798V158.407H250.567Z" fill="#F5F5F5"/>
<path d="M65.2822 154.678V64.4258H64.663V154.678H65.2822Z" fill="#E6E6E6"/>
<path d="M56.4046 50.9761H303.595C303.786 50.9761 303.969 51.0519 304.104 51.187C304.239 51.322 304.315 51.5051 304.315 51.6961C304.315 51.887 304.239 52.0702 304.104 52.2052C303.969 52.3402 303.786 52.4161 303.595 52.4161H56.4046C56.2136 52.4161 56.0305 52.3402 55.8955 52.2052C55.7604 52.0702 55.6846 51.887 55.6846 51.6961C55.6846 51.5051 55.7604 51.322 55.8955 51.187C56.0305 51.0519 56.2136 50.9761 56.4046 50.9761Z" fill="#E6E6E6"/>
<path d="M297.267 55.9225C297.535 55.9225 297.792 55.8165 297.982 55.6277C298.172 55.4388 298.28 55.1825 298.282 54.9145V52.7545C298.282 52.4852 298.175 52.227 297.985 52.0366C297.794 51.8462 297.536 51.7393 297.267 51.7393C296.999 51.7412 296.742 51.849 296.554 52.0391C296.365 52.2293 296.259 52.4865 296.259 52.7545V54.9145C296.259 55.1818 296.365 55.4382 296.554 55.6272C296.743 55.8163 296.999 55.9225 297.267 55.9225Z" fill="#E6E6E6"/>
<path d="M67.716 55.9225C67.984 55.9225 68.2411 55.8165 68.4313 55.6277C68.6215 55.4388 68.7293 55.1825 68.7312 54.9145V52.7545C68.7312 52.4852 68.6242 52.227 68.4339 52.0366C68.2435 51.8462 67.9853 51.7393 67.716 51.7393C67.448 51.7412 67.1916 51.849 67.0028 52.0391C66.814 52.2293 66.708 52.4865 66.708 52.7545V54.9145C66.708 55.1818 66.8142 55.4382 67.0032 55.6272C67.1923 55.8163 67.4487 55.9225 67.716 55.9225Z" fill="#E6E6E6"/>
<path opacity="0.6" d="M56.642 77.2417L293.551 77.2417V51.7249L56.642 51.7249V77.2417Z" fill="#E0E0E0"/>
<path d="M140.227 238.824C142.783 237.96 144.634 235.497 143.014 232.97C140.328 228.794 147.046 227.93 145.174 220.925C142.517 211.061 134.259 219.607 132.214 210.125C130.723 203.234 119.153 198.72 118.699 207.792C118.203 217.721 113.227 211.233 112.119 222.278C111.355 229.91 122.199 231.019 118.98 233.409C116.611 235.152 115.207 238.19 118.512 240.271C123.019 243.101 118.764 245.311 121.831 247.284C124.899 249.257 125.388 246.11 130.14 247.644C134.388 249.012 137.988 244.814 137.146 242.186C136.332 239.76 137.664 239.695 140.227 238.824Z" fill="#E6E6E6"/>
<path d="M115.668 243.36C115.668 243.36 116.014 275.328 129.413 275.328C142.812 275.328 143.158 243.36 143.158 243.36H115.668Z" fill="#F0F0F0"/>
<path d="M102.916 238.824C105.465 237.96 107.323 235.497 105.696 232.97C103.01 228.794 109.735 227.93 107.856 220.925C105.192 211.061 96.9331 219.607 94.8955 210.125C93.4051 203.234 81.8347 198.72 81.3811 207.792C80.8843 217.721 75.9091 211.233 74.8003 222.278C74.0371 229.91 84.8803 231.019 81.6619 233.409C79.2931 235.152 77.8891 238.19 81.2011 240.271C85.7011 243.101 81.4531 245.311 84.5131 247.284C87.5731 249.257 88.0699 246.11 92.8219 247.644C97.0771 249.012 100.677 244.814 99.8275 242.186C99.0139 239.76 100.346 239.695 102.916 238.824Z" fill="#E6E6E6"/>
<path d="M78.3506 243.36C78.3506 243.36 78.7034 275.328 92.0954 275.328C105.487 275.328 105.84 243.36 105.84 243.36H78.3506Z" fill="#F0F0F0"/>
<path d="M220.068 207.994C221.998 186.631 223.344 151.956 222.3 140.357C222.284 140.161 222.228 139.97 222.135 139.797C222.042 139.624 221.914 139.471 221.76 139.349C221.553 139.186 221.303 139.088 221.04 139.066C220.777 139.045 220.514 139.102 220.284 139.229C220.053 139.357 219.865 139.55 219.744 139.784C219.622 140.018 219.572 140.282 219.6 140.544C219.788 146.304 219.996 160.654 218.88 185.436C218.312 197.77 217.491 206.215 218.052 207.994H220.068Z" fill="#F0F0F0"/>
<path d="M226.015 163.757C230.637 157.997 240.069 153.85 249.681 153.871C253.454 153.871 238.197 160.603 231.854 168.026C226.929 173.786 221.371 183.492 219.484 188.87C220.701 177.545 221.4 169.546 226.015 163.757Z" fill="#F0F0F0"/>
<path d="M216.36 163.699C211.795 157.335 201.24 152.439 189.828 151.884C185.342 151.668 202.399 159.653 208.757 167.839C213.703 174.197 218.772 184.738 220.161 190.512C220.5 178.56 220.932 170.064 216.36 163.699Z" fill="#F0F0F0"/>
<path d="M226.015 173.052C230.637 167.292 240.069 163.145 249.681 163.167C253.454 163.167 238.197 169.899 231.854 177.322C226.929 183.082 221.371 192.787 219.484 198.202C220.701 186.84 221.4 178.841 226.015 173.052Z" fill="#F0F0F0"/>
<path d="M216.36 173.52C211.795 167.155 201.24 162.259 189.828 161.705C185.342 161.489 202.399 169.474 208.757 177.66C213.703 184.025 218.772 194.559 220.161 200.333C220.5 188.338 220.932 179.878 216.36 173.52Z" fill="#F0F0F0"/>
<path d="M225.188 141.891C228.212 137.571 234.684 134.23 241.445 133.776C244.102 133.596 233.633 139.075 229.457 144.576C226.21 148.896 222.675 155.967 221.537 159.847C221.976 151.848 222.156 146.16 225.188 141.891Z" fill="#F0F0F0"/>
<path d="M219.168 143.705C215.949 139.219 208.512 135.785 200.448 135.382C197.287 135.231 209.304 140.861 213.789 146.628C217.274 151.107 220.845 158.537 221.824 162.605C222.084 154.159 222.393 148.191 219.168 143.705Z" fill="#F0F0F0"/>
<path d="M226.224 147.47C230.133 142.567 238.118 139.082 246.261 139.097C249.458 139.097 236.541 144.799 231.141 151.085C226.965 155.966 222.264 164.182 220.658 168.739C221.76 159.12 222.314 152.366 226.224 147.47Z" fill="#F0F0F0"/>
<path d="M218.283 150.077C214.409 144.72 205.474 140.544 195.84 140.076C192.046 139.889 206.482 146.657 211.867 153.583C216 158.969 220.32 167.89 221.501 172.8C221.76 162.634 222.149 155.47 218.283 150.077Z" fill="#F0F0F0"/>
<path d="M226.483 154.267C230.702 148.982 239.321 145.217 248.083 145.238C251.532 145.238 237.6 151.387 231.804 158.198C227.304 163.469 222.228 172.325 220.5 177.242C221.63 166.867 222.264 159.552 226.483 154.267Z" fill="#F0F0F0"/>
<path d="M217.671 157.162C213.351 151.179 203.458 146.578 192.723 146.059C188.511 145.851 204.538 153.36 210.521 161.057C215.172 167.04 219.939 176.947 221.249 182.376C221.559 171.101 221.969 163.152 217.671 157.162Z" fill="#F0F0F0"/>
<path d="M207.079 204.386L207.799 210.384C207.838 211.032 208.122 211.641 208.595 212.087C209.067 212.532 209.692 212.781 210.341 212.781H228.24C228.889 212.781 229.514 212.532 229.986 212.087C230.459 211.641 230.743 211.032 230.782 210.384L231.502 204.386C231.521 204.041 231.47 203.695 231.351 203.369C231.232 203.044 231.048 202.747 230.81 202.495C230.572 202.244 230.285 202.044 229.967 201.907C229.649 201.77 229.306 201.7 228.96 201.701H209.621C209.275 201.7 208.932 201.77 208.614 201.907C208.296 202.044 208.009 202.244 207.771 202.495C207.533 202.747 207.349 203.044 207.23 203.369C207.111 203.695 207.06 204.041 207.079 204.386Z" fill="#E6E6E6"/>
<path d="M206.013 205.654H232.56C232.747 205.653 232.929 205.584 233.069 205.46C233.21 205.335 233.3 205.164 233.323 204.977L233.956 199.26C233.967 199.153 233.956 199.045 233.923 198.943C233.889 198.84 233.835 198.746 233.763 198.666C233.691 198.586 233.603 198.522 233.505 198.478C233.407 198.434 233.301 198.411 233.193 198.411H205.38C205.272 198.411 205.166 198.434 205.068 198.478C204.969 198.522 204.881 198.586 204.81 198.666C204.738 198.746 204.683 198.84 204.65 198.943C204.617 199.045 204.605 199.153 204.616 199.26L205.25 204.977C205.273 205.164 205.363 205.335 205.504 205.46C205.644 205.584 205.825 205.653 206.013 205.654Z" fill="#F5F5F5"/>
<path d="M166.277 275.328H177.812V212.782H166.277V275.328Z" fill="#E6E6E6"/>
<path d="M169.732 275.328H166.276V263.354H173.354L169.732 275.328Z" fill="#F0F0F0"/>
<path d="M309.968 275.328H321.502V212.782H309.968V275.328Z" fill="#E6E6E6"/>
<path d="M166.277 267.984H312.991V212.781L166.277 212.781V267.984Z" fill="#F0F0F0"/>
<path d="M309.528 275.328H312.984V263.354H305.906L309.528 275.328Z" fill="#F0F0F0"/>
<path d="M168.955 238.759L310.306 238.759V216.67L168.955 216.67V238.759Z" fill="#E6E6E6"/>
<path d="M189.669 223.531H287.28C290.649 223.531 293.875 220.802 296.201 215.993H180.756C183.074 220.802 186.3 223.531 189.669 223.531Z" fill="#F0F0F0"/>
<path d="M168.955 264.413H310.306V242.323L168.955 242.323V264.413Z" fill="#E6E6E6"/>
<path d="M189.669 249.185H287.28C290.649 249.185 293.875 246.463 296.201 241.654H180.756C183.074 246.463 186.3 249.185 189.669 249.185Z" fill="#F0F0F0"/>
<path d="M311.213 198.123C311.213 198.123 310.579 212.782 286.402 212.782C262.224 212.782 261.598 198.123 261.598 198.123H311.213Z" fill="#F5F5F5"/>
<path d="M311.213 190.512C311.213 190.512 310.579 205.2 286.402 205.2C262.224 205.2 261.598 190.541 261.598 190.541L311.213 190.512Z" fill="#F5F5F5"/>
<path d="M180 307.843C257.1 307.843 319.601 304.194 319.601 299.693C319.601 295.192 257.1 291.542 180 291.542C102.901 291.542 40.3994 295.192 40.3994 299.693C40.3994 304.194 102.901 307.843 180 307.843Z" fill="#F5F5F5"/>
<path d="M264.888 97.4664C260.568 99.828 259.128 106.826 261.151 109.872C253.663 112.118 257.551 124.992 269.791 125.712C282.031 126.432 291.348 121.961 285.336 112.414C291.283 104.4 288.547 95.4504 283.334 96.4368C277.74 85.2264 259.005 85.5576 264.888 97.4664Z" fill="#263238"/>
<path d="M277.92 126.576C276.031 126.57 274.18 126.053 272.563 125.079C272.537 125.069 272.513 125.054 272.494 125.035C272.475 125.015 272.46 124.992 272.45 124.966C272.441 124.94 272.438 124.912 272.44 124.885C272.443 124.858 272.451 124.831 272.465 124.807C272.479 124.784 272.499 124.763 272.521 124.748C272.544 124.732 272.57 124.722 272.597 124.718C272.624 124.713 272.652 124.715 272.678 124.723C272.705 124.73 272.729 124.744 272.75 124.762C274.836 126.01 277.301 126.469 279.696 126.054C282.092 125.639 284.259 124.378 285.804 122.501C287.769 120.067 288.684 116.165 285.249 112.522C285.233 112.504 285.22 112.484 285.211 112.461C285.203 112.439 285.198 112.415 285.199 112.391C285.2 112.367 285.205 112.343 285.215 112.321C285.225 112.299 285.239 112.279 285.256 112.263C285.274 112.246 285.294 112.233 285.317 112.224C285.339 112.216 285.363 112.212 285.387 112.212C285.412 112.213 285.435 112.219 285.457 112.228C285.479 112.238 285.499 112.252 285.516 112.27C289.072 116.086 288.144 120.19 286.084 122.731C285.087 123.93 283.839 124.895 282.428 125.559C281.018 126.224 279.479 126.571 277.92 126.576Z" fill="#263238"/>
<path d="M259.797 112.262C259.76 112.261 259.725 112.249 259.695 112.227C259.666 112.205 259.643 112.175 259.632 112.14C257.716 106.654 260.28 99.288 264.808 97.272C264.853 97.2562 264.901 97.2571 264.945 97.2743C264.988 97.2915 265.024 97.3239 265.046 97.3656C265.056 97.3873 265.061 97.4107 265.061 97.4344C265.062 97.4582 265.057 97.4817 265.049 97.5038C265.04 97.5259 265.027 97.5461 265.01 97.5631C264.994 97.5801 264.974 97.5938 264.952 97.6032C260.575 99.5472 258.105 106.69 259.97 112.003C259.978 112.026 259.981 112.05 259.98 112.074C259.978 112.098 259.972 112.121 259.961 112.143C259.95 112.164 259.935 112.183 259.917 112.199C259.899 112.214 259.878 112.226 259.855 112.234L259.797 112.262Z" fill="#263238"/>
<path d="M258.624 104.335H258.559C258.516 104.317 258.48 104.284 258.46 104.241C258.44 104.198 258.437 104.15 258.451 104.105C259.747 100.67 262.195 98.0568 264.83 97.2792C264.876 97.2658 264.926 97.2712 264.967 97.2941C265.009 97.3171 265.04 97.3557 265.054 97.4016C265.067 97.4474 265.062 97.4967 265.039 97.5385C265.016 97.5804 264.977 97.6114 264.931 97.6248C262.404 98.3448 260.05 100.901 258.79 104.234C258.775 104.265 258.751 104.291 258.722 104.309C258.692 104.327 258.658 104.336 258.624 104.335Z" fill="#263238"/>
<path d="M268.704 295.855L264.542 295.863L263.844 280.231L270.849 280.404L268.704 295.855Z" fill="#FFB573"/>
<path d="M261.468 160.971C261.468 160.971 261.101 204.351 260.186 223.236C260.15 223.797 260.15 224.36 260.186 224.921C261.554 243.85 263.822 280.231 263.822 280.231L270.871 280.411C270.871 280.411 277.013 251.359 273.211 225.043C279.324 195.279 282.614 168.718 277.077 160.963L261.468 160.971Z" fill="#0A7EEA"/>
<path opacity="0.2" d="M273.276 178.2C271.116 185.443 273.219 208.728 274.335 219.471C275.854 211.709 277.15 204.243 278.108 197.359L273.276 178.2Z" fill="black"/>
<path d="M264.074 293.839H269.481C269.595 293.835 269.706 293.874 269.791 293.949C269.877 294.024 269.931 294.129 269.942 294.242L270.489 298.67C270.492 298.807 270.467 298.944 270.417 299.071C270.367 299.198 270.291 299.315 270.195 299.412C270.099 299.51 269.985 299.588 269.859 299.641C269.732 299.694 269.597 299.722 269.459 299.722C267.076 299.722 265.939 299.549 262.936 299.556C261.086 299.556 259.97 299.743 257.414 299.743C254.858 299.743 254.858 297.295 255.931 297.072C260.747 296.071 261.367 295.517 263.044 294.192C263.339 293.963 263.701 293.839 264.074 293.839Z" fill="#263238"/>
<path d="M265.853 129.046C265.587 130.536 265.284 131.926 264.96 133.366C264.636 134.806 264.305 136.246 263.924 137.686C263.168 140.566 262.383 143.388 261.346 146.239C260.826 147.713 260.22 149.156 259.532 150.559C259.15 151.338 258.71 152.087 258.214 152.799C258.07 152.993 257.94 153.18 257.753 153.396C257.574 153.625 257.374 153.837 257.156 154.03C256.603 154.551 255.938 154.938 255.212 155.16C254.45 155.39 253.642 155.423 252.864 155.254C252.252 155.112 251.668 154.869 251.136 154.534C250.329 154.017 249.614 153.37 249.02 152.619C247.998 151.348 247.184 149.924 246.608 148.399C246.481 148.075 246.47 147.717 246.577 147.386C246.683 147.055 246.901 146.77 247.193 146.581C247.484 146.391 247.833 146.308 248.179 146.346C248.525 146.383 248.847 146.539 249.092 146.787L249.178 146.88C250.072 147.824 251.034 148.7 252.058 149.501C252.458 149.806 252.902 150.049 253.376 150.221C253.548 150.264 253.671 150.264 253.685 150.221C253.7 150.178 253.584 150.149 253.484 150.156C253.383 150.163 253.318 150.199 253.347 150.156C253.381 150.093 253.419 150.033 253.462 149.976C253.533 149.889 253.596 149.795 253.649 149.695C253.951 149.199 254.216 148.682 254.441 148.147C254.965 146.914 255.427 145.655 255.824 144.375C256.644 141.739 257.393 138.996 258.041 136.239C258.689 133.481 259.33 130.666 259.906 127.915C260.083 127.155 260.549 126.493 261.204 126.069C261.859 125.644 262.654 125.49 263.42 125.64C264.187 125.789 264.865 126.229 265.314 126.869C265.762 127.508 265.945 128.296 265.824 129.067L265.853 129.046Z" fill="#FFB573"/>
<path d="M259.308 155.081C259.308 156.852 286.912 157.198 286.912 154.858L272.808 151.258L259.308 155.081Z" fill="#263238"/>
<path d="M264.377 124.402C271.655 123.184 279.091 123.257 286.344 124.618C286.77 124.685 287.177 124.839 287.541 125.07C287.904 125.3 288.217 125.603 288.459 125.959C288.701 126.315 288.868 126.718 288.949 127.141C289.03 127.564 289.023 127.999 288.929 128.419C285.027 145.894 285.25 151.769 285.624 160.97H261.476C260.266 145.62 259.625 136.858 259.467 131.882C259.337 128.088 260.64 124.956 264.377 124.402Z" fill="#FFB573"/>
<path opacity="0.2" d="M286.272 129.478C286.12 131.916 286.443 134.362 287.222 136.678C287.532 135.014 287.892 133.229 288.302 131.278L286.272 129.478Z" fill="black"/>
<path d="M278.417 111.643C277.697 115.135 277.042 121.55 279.49 123.883C279.49 123.883 278.532 127.433 272.038 127.433C264.888 127.433 268.618 123.883 268.618 123.883C272.52 122.947 272.419 120.053 271.743 117.338L278.417 111.643Z" fill="#FFB573"/>
<path opacity="0.2" d="M275.695 113.969L271.742 117.36C271.91 117.992 272.023 118.638 272.081 119.29C273.571 119.074 275.616 117.439 275.774 115.877C275.863 115.241 275.836 114.595 275.695 113.969Z" fill="black"/>
<path d="M282.19 105.581C280.851 111.276 280.411 113.717 276.999 116.172C271.872 119.873 265.162 116.993 264.759 111.009C264.399 105.631 266.638 97.2142 272.679 95.8894C274.006 95.5902 275.387 95.635 276.691 96.0193C277.996 96.4037 279.181 97.115 280.134 98.0857C281.086 99.0564 281.775 100.254 282.135 101.566C282.495 102.878 282.514 104.26 282.19 105.581Z" fill="#FFB573"/>
<path d="M280.015 97.0127C273.982 97.6823 275.818 108.929 280.354 110.016C285.667 107.417 288.943 97.5455 280.015 97.0127Z" fill="#263238"/>
<path d="M309.55 285.559L305.381 286.827L299.297 274.083L305.712 272.333L309.55 285.559Z" fill="#FFB573"/>
<path d="M304.178 285.552L309.535 283.479C309.628 283.442 309.732 283.441 309.827 283.474C309.922 283.507 310.002 283.572 310.053 283.659L312.451 287.705C312.508 287.806 312.543 287.918 312.553 288.034C312.564 288.149 312.549 288.266 312.51 288.375C312.471 288.485 312.409 288.584 312.328 288.667C312.247 288.751 312.149 288.815 312.04 288.857C310.161 289.577 309.254 289.944 306.899 290.859C305.459 291.42 303.199 293.292 301.197 294.063C299.195 294.833 298.317 293.004 299.037 292.371C300.988 290.668 302.524 288.543 303.53 286.157C303.591 286.017 303.68 285.892 303.791 285.788C303.903 285.684 304.034 285.603 304.178 285.552Z" fill="#263238"/>
<path d="M268.099 160.97C268.099 160.97 276.976 206.381 280.339 224.33C283.816 243.05 299.311 274.053 299.311 274.053L305.74 272.297C305.74 272.297 296.935 239.133 292.831 222.696C292.024 192.931 292.975 168.696 285.631 160.941L268.099 160.97Z" fill="#0A7EEA"/>
<path d="M272.743 105.545C272.664 106.013 272.354 106.351 272.023 106.265C271.692 106.178 271.534 105.79 271.613 105.322C271.692 104.854 272.009 104.515 272.333 104.566C272.657 104.616 272.83 105.077 272.743 105.545Z" fill="#263238"/>
<path d="M267.451 104.645C267.372 105.113 267.055 105.451 266.731 105.365C266.407 105.279 266.241 104.897 266.32 104.422C266.4 103.947 266.716 103.615 267.04 103.702C267.364 103.788 267.53 104.177 267.451 104.645Z" fill="#263238"/>
<path d="M267.17 103.752L266.098 103.233C266.098 103.233 266.53 104.213 267.17 103.752Z" fill="#263238"/>
<path d="M268.934 105.768C268.34 106.764 267.613 107.675 266.774 108.475C266.984 108.685 267.237 108.847 267.515 108.951C267.794 109.054 268.091 109.095 268.387 109.073L268.934 105.768Z" fill="#ED893E"/>
<path d="M270.619 111.341C270.378 111.341 270.137 111.319 269.899 111.276C269.881 111.273 269.864 111.267 269.848 111.258C269.833 111.248 269.819 111.236 269.808 111.221C269.798 111.206 269.79 111.189 269.786 111.172C269.782 111.154 269.781 111.135 269.784 111.117C269.791 111.082 269.811 111.05 269.841 111.029C269.87 111.007 269.907 110.998 269.943 111.002C270.524 111.113 271.123 111.086 271.692 110.923C272.261 110.761 272.784 110.467 273.219 110.066C273.231 110.052 273.247 110.041 273.264 110.034C273.282 110.026 273.3 110.022 273.319 110.022C273.338 110.022 273.357 110.026 273.374 110.034C273.392 110.041 273.407 110.052 273.42 110.066C273.444 110.093 273.458 110.128 273.458 110.163C273.458 110.199 273.444 110.234 273.42 110.261C272.666 110.977 271.659 111.365 270.619 111.341Z" fill="#263238"/>
<path d="M283.011 110.491C282.437 111.466 281.504 112.177 280.411 112.471C278.971 112.838 278.251 111.535 278.698 110.182C279.079 108.965 280.303 107.302 281.751 107.525C282.065 107.582 282.36 107.717 282.609 107.916C282.859 108.116 283.055 108.374 283.18 108.668C283.305 108.963 283.355 109.283 283.325 109.601C283.296 109.919 283.188 110.225 283.011 110.491Z" fill="#FFB573"/>
<path d="M275.04 104.825C274.981 104.824 274.925 104.805 274.878 104.77C274.832 104.735 274.797 104.686 274.781 104.631C274.399 103.399 272.822 102.867 272.808 102.867C272.772 102.856 272.739 102.838 272.711 102.815C272.682 102.791 272.659 102.762 272.642 102.729C272.625 102.696 272.615 102.66 272.613 102.623C272.61 102.586 272.615 102.549 272.628 102.514C272.638 102.478 272.656 102.445 272.68 102.417C272.703 102.388 272.733 102.365 272.766 102.348C272.799 102.331 272.835 102.321 272.872 102.319C272.909 102.316 272.946 102.322 272.981 102.334C273.053 102.334 274.845 102.96 275.313 104.494C275.324 104.529 275.328 104.567 275.325 104.604C275.322 104.641 275.311 104.676 275.293 104.709C275.276 104.742 275.252 104.771 275.224 104.795C275.195 104.818 275.162 104.836 275.126 104.847L275.04 104.825Z" fill="#263238"/>
<path d="M266.27 101.923C266.222 101.923 266.175 101.91 266.134 101.886C266.092 101.862 266.057 101.828 266.033 101.787C265.996 101.722 265.987 101.645 266.008 101.574C266.028 101.502 266.076 101.441 266.141 101.405C266.52 101.176 266.948 101.04 267.39 101.01C267.833 100.98 268.275 101.056 268.682 101.232C268.748 101.266 268.797 101.324 268.82 101.394C268.843 101.464 268.837 101.541 268.805 101.607C268.771 101.672 268.712 101.722 268.642 101.745C268.572 101.767 268.496 101.762 268.43 101.729C268.105 101.596 267.753 101.541 267.403 101.569C267.053 101.596 266.714 101.705 266.414 101.887C266.371 101.914 266.321 101.926 266.27 101.923Z" fill="#263238"/>
<path d="M288.317 125.618C290.369 128.304 292.234 131.018 294.005 133.884C294.883 135.324 295.747 136.764 296.539 138.298C297.4 139.887 298.111 141.552 298.663 143.273C298.743 143.503 298.8 143.77 298.865 143.993L298.915 144.202L298.98 144.504C299.009 144.692 299.029 144.882 299.038 145.073C299.071 145.698 299.025 146.324 298.901 146.938C298.696 147.91 298.39 148.859 297.987 149.767C297.276 151.373 296.438 152.918 295.481 154.39C293.658 157.217 291.609 159.892 289.354 162.389C289.107 162.665 288.766 162.84 288.397 162.88C288.028 162.92 287.658 162.821 287.358 162.603C287.057 162.386 286.849 162.064 286.772 161.701C286.695 161.338 286.756 160.96 286.942 160.639V160.603C288.533 157.831 290.11 154.98 291.471 152.158C292.138 150.797 292.718 149.395 293.206 147.96C293.416 147.351 293.561 146.721 293.638 146.081C293.664 145.892 293.664 145.701 293.638 145.512V145.469V145.382C293.587 145.238 293.551 145.109 293.487 144.958C292.926 143.608 292.267 142.301 291.514 141.048C290.722 139.716 289.879 138.384 289.015 137.052C287.259 134.417 285.415 131.767 283.543 129.204C283.095 128.561 282.914 127.768 283.04 126.994C283.166 126.221 283.588 125.526 284.217 125.058C284.846 124.59 285.633 124.385 286.41 124.487C287.187 124.589 287.895 124.99 288.382 125.604L288.317 125.618Z" fill="#FFB573"/>
<path d="M272.469 104.652L271.396 104.134C271.396 104.134 271.821 105.12 272.469 104.652Z" fill="#263238"/>
<path d="M260.143 130.161C260.588 128.345 261.16 126.562 261.856 124.826C262.961 124.496 264.09 124.256 265.233 124.106C267.562 126.17 269.477 128.657 270.878 131.436C273.967 128.311 279.878 125.15 283.478 123.998C284.696 123.921 285.917 124.075 287.078 124.452C284.623 132.199 282.117 139.989 286.56 141.991C286.48 145.67 286.689 150.235 286.876 154.85C282.679 154.389 266.032 153.59 259.272 155.073C258.926 150.393 258.804 146.433 258.825 143.013C255.679 139.003 258.832 133.545 260.143 130.161Z" fill="#263238"/>
<mask id="mask0_2279_9235" style="mask-type:luminance" maskUnits="userSpaceOnUse" x="257" y="123" width="31" height="33">
<path d="M260.143 130.161C260.588 128.345 261.16 126.562 261.856 124.826C262.961 124.496 264.09 124.256 265.233 124.106C267.562 126.17 269.477 128.657 270.878 131.436C273.967 128.311 279.878 125.15 283.478 123.998C284.696 123.921 285.917 124.075 287.078 124.452C284.623 132.199 282.117 139.989 286.56 141.991C286.48 145.67 286.689 150.235 286.876 154.85C282.679 154.389 266.032 153.59 259.272 155.073C258.926 150.393 258.804 146.433 258.825 143.013C255.679 139.003 258.832 133.545 260.143 130.161Z" fill="white"/>
</mask>
<g mask="url(#mask0_2279_9235)">
<g opacity="0.2">
<path d="M266.76 144.568C266.723 144.573 266.687 144.587 266.657 144.61C266.626 144.633 266.602 144.663 266.588 144.698C266.077 146.13 266.092 147.697 266.631 149.119C266.134 148.701 265.644 148.291 265.191 147.873C265.596 147.006 265.753 146.044 265.644 145.093C265.534 144.142 265.163 143.24 264.571 142.488C264.549 142.458 264.519 142.435 264.485 142.42C264.451 142.405 264.414 142.398 264.377 142.401C264.339 142.404 264.302 142.418 264.272 142.441C264.241 142.464 264.218 142.495 264.204 142.531C263.677 144.003 263.711 145.618 264.298 147.067C263.65 146.476 263.031 145.886 262.462 145.317C262.887 144.446 263.058 143.472 262.955 142.508C262.852 141.544 262.479 140.629 261.879 139.867C261.856 139.837 261.826 139.814 261.792 139.799C261.759 139.784 261.721 139.778 261.684 139.78C261.646 139.783 261.61 139.797 261.579 139.82C261.548 139.843 261.525 139.874 261.511 139.91C260.988 141.385 261.021 143.001 261.605 144.453C260.619 143.424 259.798 142.488 259.186 141.71C258.966 140.839 258.529 140.039 257.916 139.383C257.303 138.727 256.533 138.237 255.679 137.959C255.645 137.953 255.609 137.955 255.575 137.965C255.542 137.976 255.511 137.994 255.486 138.019C255.46 138.043 255.441 138.074 255.43 138.107C255.418 138.14 255.415 138.176 255.42 138.211C256.068 141.4 258.415 141.955 258.891 142.034C259.229 142.459 259.611 142.927 260.071 143.431C258.943 142.925 257.688 142.775 256.471 142.999C256.435 143.007 256.401 143.026 256.374 143.053C256.347 143.08 256.329 143.113 256.32 143.15C256.31 143.186 256.308 143.224 256.315 143.26C256.323 143.296 256.339 143.33 256.363 143.359C256.983 144.065 257.786 144.584 258.685 144.857C259.583 145.131 260.539 145.148 261.447 144.907C261.85 145.324 262.282 145.749 262.735 146.188C261.211 145.752 259.583 145.849 258.12 146.462C258.086 146.48 258.057 146.508 258.036 146.542C258.016 146.575 258.006 146.614 258.006 146.653C258.006 146.692 258.016 146.731 258.036 146.764C258.057 146.798 258.086 146.825 258.12 146.844C258.942 147.356 259.884 147.643 260.852 147.677C261.82 147.711 262.779 147.491 263.635 147.038C264.24 147.607 264.881 148.176 265.543 148.744C264.068 148.079 262.399 147.981 260.856 148.471C260.82 148.485 260.789 148.509 260.765 148.539C260.741 148.57 260.725 148.605 260.719 148.644C260.716 148.681 260.721 148.719 260.735 148.754C260.749 148.789 260.77 148.82 260.799 148.845C261.557 149.459 262.47 149.851 263.437 149.979C264.404 150.106 265.387 149.963 266.278 149.565L266.335 149.529C266.358 149.505 266.373 149.475 266.379 149.443L267.192 150.105C267.218 150.139 267.253 150.164 267.293 150.177C267.725 150.523 268.164 150.861 268.611 151.192C268.65 151.226 268.7 151.244 268.751 151.244C268.803 151.244 268.852 151.226 268.891 151.192C268.908 151.169 268.92 151.143 268.927 151.115C268.933 151.088 268.934 151.059 268.929 151.031C268.925 151.003 268.914 150.976 268.899 150.952C268.884 150.927 268.864 150.907 268.841 150.89C268.431 150.58 268.02 150.271 267.624 149.947C267.998 149.089 268.133 148.146 268.014 147.218C267.895 146.29 267.526 145.412 266.948 144.676C266.929 144.644 266.901 144.616 266.868 144.597C266.836 144.578 266.798 144.568 266.76 144.568Z" fill="white"/>
<path d="M259.661 133.416C259.699 133.412 259.734 133.397 259.765 133.374C259.795 133.352 259.819 133.321 259.834 133.286C260.344 131.854 260.329 130.287 259.791 128.866C260.287 129.283 260.777 129.694 261.231 130.111C260.825 130.978 260.668 131.941 260.778 132.892C260.887 133.843 261.258 134.745 261.85 135.497C261.872 135.526 261.902 135.55 261.936 135.565C261.97 135.58 262.007 135.586 262.044 135.583C262.082 135.58 262.119 135.567 262.149 135.544C262.18 135.521 262.203 135.489 262.217 135.454C262.744 133.982 262.711 132.367 262.123 130.918C262.771 131.508 263.391 132.098 263.959 132.667C263.534 133.539 263.363 134.512 263.466 135.476C263.57 136.441 263.943 137.356 264.543 138.118C264.565 138.147 264.595 138.17 264.629 138.186C264.663 138.201 264.7 138.207 264.737 138.204C264.775 138.201 264.812 138.187 264.842 138.164C264.873 138.141 264.896 138.11 264.91 138.074C265.433 136.599 265.4 134.984 264.816 133.531C265.803 134.561 266.623 135.497 267.235 136.274C267.455 137.145 267.892 137.946 268.505 138.602C269.119 139.258 269.888 139.748 270.742 140.026C270.776 140.032 270.812 140.029 270.846 140.019C270.88 140.009 270.91 139.99 270.936 139.966C270.961 139.941 270.98 139.911 270.991 139.878C271.003 139.844 271.006 139.809 271.001 139.774C270.353 136.584 268.006 136.03 267.531 135.95C267.192 135.526 266.811 135.058 266.35 134.554C267.478 135.061 268.735 135.21 269.95 134.978C269.986 134.972 270.02 134.955 270.047 134.93C270.074 134.904 270.093 134.871 270.101 134.834C270.112 134.799 270.113 134.761 270.106 134.725C270.098 134.688 270.082 134.654 270.058 134.626C269.439 133.92 268.635 133.401 267.737 133.127C266.839 132.854 265.882 132.837 264.975 133.078C264.571 132.66 264.139 132.235 263.686 131.796C265.211 132.232 266.838 132.136 268.301 131.522C268.336 131.504 268.365 131.477 268.385 131.443C268.405 131.409 268.416 131.371 268.416 131.332C268.416 131.292 268.405 131.254 268.385 131.22C268.365 131.187 268.336 131.159 268.301 131.141C267.479 130.629 266.537 130.342 265.569 130.308C264.602 130.273 263.642 130.494 262.786 130.946C262.181 130.378 261.54 129.809 260.878 129.24C262.353 129.906 264.022 130.003 265.565 129.514C265.6 129.498 265.631 129.474 265.655 129.444C265.678 129.414 265.695 129.379 265.702 129.341C265.705 129.303 265.7 129.266 265.686 129.231C265.673 129.195 265.651 129.164 265.623 129.139C264.865 128.525 263.952 128.133 262.985 128.006C262.017 127.879 261.034 128.022 260.143 128.419L260.086 128.455C260.063 128.479 260.048 128.509 260.043 128.542L259.229 127.879C259.204 127.845 259.168 127.82 259.128 127.807C258.696 127.462 258.257 127.123 257.811 126.792C257.771 126.759 257.722 126.74 257.67 126.74C257.619 126.74 257.569 126.759 257.53 126.792C257.497 126.839 257.483 126.896 257.492 126.952C257.5 127.008 257.529 127.059 257.573 127.094C257.991 127.404 258.401 127.714 258.797 128.038C258.423 128.895 258.288 129.838 258.408 130.766C258.527 131.694 258.895 132.573 259.474 133.308C259.493 133.341 259.52 133.368 259.553 133.387C259.586 133.406 259.623 133.416 259.661 133.416Z" fill="white"/>
<path d="M281.858 149.825C281.821 149.83 281.787 149.844 281.757 149.865C281.726 149.886 281.702 149.915 281.685 149.947C281.181 151.38 281.196 152.945 281.728 154.368C281.231 153.958 280.742 153.54 280.288 153.122C280.694 152.257 280.851 151.295 280.741 150.345C280.632 149.396 280.261 148.495 279.669 147.744C279.647 147.714 279.617 147.691 279.583 147.676C279.549 147.661 279.512 147.655 279.475 147.659C279.438 147.663 279.403 147.676 279.373 147.697C279.342 147.718 279.318 147.747 279.302 147.78C278.778 149.255 278.812 150.871 279.395 152.323C278.747 151.726 278.128 151.142 277.559 150.574C277.987 149.704 278.158 148.731 278.055 147.768C277.952 146.804 277.578 145.89 276.976 145.13C276.955 145.099 276.926 145.075 276.891 145.06C276.857 145.044 276.819 145.039 276.782 145.044C276.745 145.049 276.71 145.062 276.68 145.083C276.65 145.105 276.625 145.133 276.609 145.166C276.086 146.642 276.119 148.257 276.703 149.71C275.716 148.687 274.895 147.744 274.283 146.966C274.061 146.097 273.623 145.298 273.01 144.642C272.398 143.986 271.63 143.496 270.777 143.215C270.742 143.208 270.707 143.21 270.673 143.22C270.639 143.23 270.608 143.248 270.583 143.273C270.556 143.299 270.537 143.331 270.526 143.366C270.514 143.401 270.512 143.438 270.518 143.474C271.166 146.657 273.52 147.211 273.988 147.29C274.327 147.715 274.708 148.19 275.169 148.694C274.041 148.188 272.785 148.038 271.569 148.262C271.533 148.272 271.5 148.292 271.473 148.318C271.447 148.345 271.428 148.378 271.418 148.414C271.407 148.448 271.405 148.485 271.413 148.52C271.42 148.556 271.437 148.588 271.461 148.615C272.076 149.326 272.88 149.848 273.779 150.122C274.679 150.396 275.637 150.41 276.544 150.163C276.947 150.581 277.379 151.013 277.833 151.452C276.309 151.012 274.679 151.109 273.218 151.726C273.185 151.745 273.157 151.773 273.137 151.805C273.117 151.838 273.105 151.875 273.103 151.913C273.102 151.951 273.112 151.989 273.131 152.022C273.15 152.055 273.177 152.082 273.211 152.1C274.032 152.612 274.974 152.901 275.941 152.936C276.909 152.971 277.869 152.753 278.726 152.302C279.331 152.863 279.971 153.432 280.634 154.008C279.159 153.342 277.489 153.245 275.947 153.734C275.911 153.749 275.879 153.773 275.855 153.803C275.831 153.833 275.816 153.869 275.81 153.907C275.805 153.944 275.811 153.982 275.826 154.016C275.842 154.05 275.866 154.08 275.896 154.102C276.654 154.716 277.567 155.108 278.534 155.235C279.501 155.362 280.485 155.219 281.375 154.822L281.426 154.778C281.447 154.755 281.464 154.728 281.476 154.699L282.29 155.362C282.312 155.395 282.345 155.42 282.383 155.434C282.815 155.779 283.255 156.118 283.701 156.456C283.74 156.49 283.79 156.508 283.841 156.508C283.893 156.508 283.943 156.49 283.982 156.456C284.016 156.41 284.031 156.353 284.023 156.296C284.015 156.239 283.984 156.188 283.939 156.154C283.521 155.844 283.118 155.527 282.715 155.21C283.09 154.354 283.227 153.411 283.109 152.483C282.991 151.554 282.623 150.676 282.045 149.94C282.026 149.906 281.999 149.878 281.967 149.858C281.934 149.838 281.896 149.826 281.858 149.825Z" fill="white"/>
<path d="M295.704 154.8C295.666 154.803 295.63 154.817 295.599 154.84C295.568 154.863 295.545 154.894 295.532 154.929C295.018 156.361 295.031 157.928 295.568 159.35C295.071 158.933 294.588 158.515 294.128 158.105C294.535 157.238 294.693 156.276 294.585 155.325C294.477 154.374 294.107 153.472 293.516 152.719C293.492 152.689 293.461 152.665 293.426 152.649C293.391 152.634 293.352 152.629 293.314 152.633C293.277 152.638 293.241 152.653 293.211 152.675C293.181 152.698 293.157 152.728 293.141 152.762C292.617 154.235 292.651 155.848 293.235 157.298C292.587 156.708 291.975 156.117 291.406 155.549C291.831 154.677 292.002 153.704 291.899 152.74C291.796 151.775 291.423 150.86 290.823 150.098C290.8 150.069 290.77 150.046 290.736 150.03C290.703 150.015 290.665 150.009 290.628 150.012C290.59 150.015 290.554 150.029 290.523 150.052C290.492 150.075 290.469 150.106 290.456 150.141C289.929 151.616 289.962 153.233 290.549 154.685C289.563 153.655 288.735 152.719 288.13 151.941C287.91 151.071 287.473 150.27 286.86 149.614C286.247 148.958 285.477 148.468 284.624 148.19C284.589 148.182 284.552 148.183 284.518 148.193C284.483 148.203 284.452 148.221 284.426 148.246C284.4 148.271 284.381 148.302 284.37 148.336C284.36 148.371 284.357 148.407 284.364 148.442C285.012 151.632 287.36 152.186 287.835 152.265C288.166 152.69 288.555 153.158 289.016 153.662C287.887 153.158 286.632 153.007 285.416 153.23C285.38 153.241 285.348 153.261 285.321 153.287C285.295 153.314 285.275 153.346 285.264 153.381C285.254 153.418 285.254 153.456 285.263 153.492C285.272 153.529 285.289 153.563 285.315 153.59C285.933 154.295 286.736 154.813 287.632 155.086C288.529 155.36 289.484 155.378 290.391 155.138C290.801 155.556 291.226 155.981 291.68 156.42C290.157 155.984 288.532 156.08 287.072 156.693C287.037 156.711 287.008 156.738 286.987 156.771C286.967 156.804 286.956 156.842 286.956 156.881C286.956 156.919 286.965 156.957 286.982 156.991C287 157.025 287.026 157.054 287.057 157.075C287.881 157.585 288.824 157.871 289.793 157.905C290.761 157.939 291.722 157.72 292.58 157.269C293.184 157.836 293.818 158.405 294.48 158.976C293.005 158.31 291.336 158.213 289.793 158.702C289.757 158.716 289.726 158.739 289.703 158.77C289.68 158.8 289.666 158.837 289.664 158.875C289.66 158.913 289.665 158.95 289.679 158.985C289.693 159.02 289.714 159.052 289.743 159.077C290.501 159.69 291.414 160.082 292.381 160.209C293.348 160.336 294.331 160.193 295.222 159.797C295.239 159.8 295.256 159.8 295.272 159.797C295.299 159.775 295.317 159.744 295.323 159.71L296.136 160.373C296.16 160.405 296.193 160.43 296.23 160.445C296.662 160.79 297.101 161.129 297.548 161.46C297.587 161.493 297.636 161.512 297.688 161.512C297.739 161.512 297.789 161.493 297.828 161.46C297.846 161.438 297.859 161.412 297.867 161.384C297.875 161.357 297.877 161.328 297.872 161.299C297.868 161.271 297.859 161.244 297.844 161.219C297.829 161.195 297.809 161.174 297.785 161.157L296.561 160.214C296.937 159.357 297.073 158.415 296.955 157.486C296.837 156.558 296.47 155.68 295.892 154.944C295.877 154.905 295.852 154.871 295.819 154.845C295.785 154.82 295.746 154.804 295.704 154.8Z" fill="white"/>
<path d="M264.045 155.613C264.008 155.617 263.973 155.63 263.942 155.651C263.912 155.673 263.888 155.702 263.873 155.736C263.359 157.167 263.372 158.734 263.909 160.157C263.412 159.746 262.929 159.329 262.469 158.911C262.876 158.045 263.034 157.083 262.926 156.131C262.818 155.18 262.448 154.278 261.857 153.525C261.833 153.496 261.802 153.473 261.768 153.459C261.733 153.445 261.695 153.44 261.658 153.444C261.62 153.448 261.585 153.462 261.554 153.484C261.523 153.506 261.499 153.535 261.482 153.569C260.959 155.044 260.992 156.659 261.576 158.112C260.928 157.514 260.316 156.931 259.747 156.362C260.172 155.491 260.343 154.517 260.24 153.553C260.137 152.589 259.764 151.674 259.164 150.912C259.142 150.882 259.112 150.859 259.078 150.845C259.044 150.831 259.006 150.827 258.969 150.833C258.932 150.834 258.896 150.847 258.865 150.868C258.834 150.89 258.811 150.92 258.797 150.955C258.27 152.43 258.303 154.047 258.89 155.498C258.037 154.626 257.23 153.71 256.471 152.755C256.249 151.886 255.811 151.086 255.198 150.431C254.585 149.775 253.817 149.284 252.965 149.004C252.929 148.997 252.892 148.998 252.857 149.008C252.822 149.018 252.79 149.037 252.763 149.061C252.74 149.088 252.723 149.119 252.713 149.152C252.703 149.186 252.701 149.221 252.705 149.256C253.353 152.445 255.701 153 256.176 153.079C256.507 153.504 256.896 153.972 257.357 154.519C256.23 154.008 254.973 153.857 253.757 154.087C253.721 154.096 253.689 154.114 253.663 154.14C253.636 154.165 253.616 154.196 253.605 154.231C253.596 154.267 253.595 154.305 253.604 154.342C253.613 154.378 253.631 154.412 253.656 154.44C254.27 155.151 255.072 155.673 255.97 155.947C256.869 156.221 257.826 156.235 258.732 155.988C259.142 156.405 259.567 156.837 260.021 157.277C258.499 156.834 256.871 156.93 255.413 157.55C255.379 157.566 255.35 157.592 255.329 157.624C255.309 157.656 255.298 157.692 255.297 157.73C255.296 157.769 255.305 157.807 255.322 157.841C255.34 157.875 255.366 157.904 255.398 157.925C256.221 158.437 257.164 158.725 258.133 158.76C259.101 158.796 260.063 158.577 260.921 158.126C261.525 158.688 262.159 159.257 262.821 159.825C261.345 159.161 259.676 159.067 258.134 159.559C258.1 159.572 258.069 159.594 258.046 159.624C258.023 159.653 258.009 159.688 258.005 159.725C258 159.762 258.004 159.8 258.018 159.836C258.032 159.871 258.055 159.902 258.084 159.926C258.842 160.539 259.755 160.931 260.722 161.058C261.689 161.185 262.672 161.043 263.563 160.646C263.58 160.65 263.597 160.65 263.613 160.646C263.639 160.627 263.657 160.599 263.664 160.567L264.477 161.229C264.502 161.261 264.534 161.286 264.571 161.301C265.01 161.647 265.442 161.985 265.889 162.324C265.928 162.357 265.978 162.376 266.029 162.376C266.081 162.376 266.13 162.357 266.169 162.324C266.187 162.302 266.201 162.276 266.208 162.248C266.216 162.221 266.218 162.192 266.214 162.163C266.21 162.135 266.2 162.108 266.185 162.083C266.17 162.059 266.15 162.038 266.126 162.021L264.902 161.078C265.278 160.22 265.414 159.276 265.296 158.347C265.178 157.418 264.811 156.538 264.233 155.801C264.229 155.752 264.209 155.706 264.174 155.672C264.14 155.638 264.094 155.617 264.045 155.613Z" fill="white"/>
<path d="M281.397 125.28C281.36 125.285 281.324 125.3 281.294 125.322C281.264 125.345 281.24 125.375 281.224 125.409C280.72 126.843 280.735 128.407 281.267 129.83C280.771 129.413 280.281 129.002 279.827 128.585C280.233 127.718 280.39 126.755 280.28 125.804C280.171 124.853 279.8 123.951 279.208 123.199C279.186 123.17 279.156 123.146 279.122 123.131C279.088 123.116 279.051 123.11 279.014 123.113C278.976 123.116 278.939 123.129 278.909 123.152C278.878 123.175 278.855 123.207 278.841 123.242C278.317 124.715 278.351 126.328 278.935 127.778C278.287 127.188 277.667 126.597 277.099 126.029C277.524 125.157 277.695 124.184 277.591 123.22C277.488 122.255 277.115 121.34 276.515 120.578C276.493 120.548 276.464 120.525 276.43 120.51C276.396 120.494 276.358 120.488 276.321 120.492C276.283 120.495 276.246 120.509 276.216 120.532C276.185 120.555 276.162 120.586 276.148 120.622C275.625 122.097 275.658 123.712 276.242 125.165C275.255 124.135 274.435 123.199 273.823 122.422C273.603 121.551 273.166 120.75 272.553 120.094C271.939 119.438 271.17 118.948 270.316 118.67C270.281 118.664 270.246 118.667 270.212 118.677C270.178 118.687 270.148 118.706 270.122 118.73C270.097 118.755 270.078 118.785 270.067 118.818C270.055 118.852 270.052 118.887 270.057 118.922C270.705 122.112 273.059 122.666 273.527 122.745C273.866 123.17 274.247 123.638 274.708 124.142C273.58 123.636 272.324 123.486 271.108 123.71C271.073 123.721 271.04 123.741 271.014 123.767C270.988 123.794 270.968 123.826 270.957 123.862C270.946 123.897 270.945 123.935 270.952 123.971C270.96 124.008 270.976 124.042 271 124.07C271.619 124.776 272.423 125.295 273.321 125.569C274.219 125.842 275.176 125.859 276.083 125.618C276.487 126.036 276.919 126.461 277.372 126.9C275.847 126.464 274.22 126.56 272.757 127.174C272.724 127.193 272.697 127.22 272.676 127.253C272.656 127.286 272.645 127.323 272.642 127.361C272.641 127.4 272.651 127.438 272.67 127.472C272.689 127.506 272.716 127.535 272.75 127.555C273.572 128.067 274.514 128.354 275.481 128.388C276.449 128.423 277.409 128.202 278.265 127.749C278.87 128.318 279.511 128.887 280.173 129.456C278.698 128.79 277.029 128.693 275.486 129.182C275.45 129.197 275.419 129.22 275.395 129.251C275.371 129.281 275.355 129.317 275.349 129.355C275.345 129.393 275.351 129.432 275.366 129.467C275.381 129.503 275.405 129.533 275.435 129.557C276.192 130.17 277.104 130.562 278.07 130.689C279.036 130.816 280.018 130.673 280.907 130.277L280.965 130.241C280.988 130.217 281.003 130.187 281.008 130.154L281.822 130.817C281.848 130.849 281.883 130.874 281.923 130.889C282.355 131.234 282.794 131.573 283.24 131.904C283.279 131.937 283.329 131.956 283.381 131.956C283.432 131.956 283.482 131.937 283.521 131.904C283.555 131.858 283.57 131.8 283.562 131.744C283.554 131.687 283.524 131.636 283.478 131.602C283.06 131.292 282.657 130.982 282.254 130.658C282.63 129.801 282.766 128.859 282.648 127.931C282.53 127.002 282.162 126.124 281.584 125.388C281.564 125.356 281.536 125.33 281.504 125.311C281.471 125.293 281.435 125.282 281.397 125.28Z" fill="white"/>
<path d="M274.557 138.96C274.595 138.957 274.63 138.944 274.661 138.922C274.691 138.901 274.715 138.872 274.73 138.838C275.244 137.406 275.231 135.839 274.694 134.417C275.191 134.827 275.673 135.245 276.134 135.662C275.727 136.529 275.569 137.491 275.677 138.442C275.785 139.393 276.155 140.295 276.746 141.048C276.77 141.077 276.801 141.1 276.835 141.114C276.87 141.128 276.908 141.134 276.945 141.129C276.983 141.125 277.018 141.111 277.049 141.09C277.08 141.068 277.104 141.039 277.121 141.005C277.644 139.53 277.611 137.914 277.027 136.462C277.675 137.057 278.287 137.64 278.863 138.211C278.438 139.083 278.267 140.056 278.37 141.02C278.473 141.984 278.846 142.9 279.446 143.662C279.47 143.691 279.501 143.714 279.535 143.728C279.57 143.742 279.608 143.747 279.645 143.743C279.683 143.739 279.718 143.725 279.749 143.703C279.78 143.681 279.804 143.652 279.821 143.618C280.345 142.143 280.309 140.526 279.72 139.075C280.573 139.948 281.38 140.863 282.139 141.818C282.361 142.689 282.8 143.489 283.414 144.145C284.029 144.801 284.799 145.291 285.653 145.57C285.687 145.577 285.723 145.575 285.757 145.565C285.791 145.555 285.822 145.537 285.847 145.512C285.872 145.485 285.89 145.453 285.9 145.418C285.91 145.383 285.912 145.346 285.905 145.31C285.264 142.128 282.909 141.574 282.434 141.494C282.103 141.07 281.714 140.602 281.253 140.054C282.38 140.566 283.638 140.717 284.853 140.486C284.889 140.477 284.921 140.459 284.948 140.434C284.974 140.409 284.994 140.377 285.005 140.342C285.015 140.306 285.015 140.268 285.006 140.232C284.997 140.195 284.98 140.161 284.954 140.134C284.341 139.423 283.538 138.9 282.64 138.626C281.742 138.352 280.784 138.338 279.878 138.586C279.475 138.168 279.043 137.736 278.589 137.297C280.111 137.74 281.739 137.643 283.197 137.023C283.232 137.006 283.261 136.979 283.282 136.946C283.302 136.913 283.313 136.875 283.313 136.836C283.315 136.799 283.307 136.761 283.289 136.728C283.271 136.695 283.244 136.668 283.212 136.649C282.389 136.137 281.446 135.848 280.478 135.813C279.509 135.778 278.548 135.996 277.689 136.447C277.085 135.886 276.451 135.317 275.789 134.748C277.266 135.409 278.934 135.504 280.476 135.014C280.511 135.001 280.541 134.979 280.564 134.95C280.587 134.921 280.601 134.886 280.605 134.849C280.612 134.811 280.608 134.772 280.594 134.737C280.58 134.701 280.557 134.67 280.526 134.647C279.769 134.032 278.856 133.639 277.889 133.511C276.921 133.384 275.938 133.528 275.047 133.927C275.03 133.924 275.013 133.924 274.997 133.927C274.976 133.951 274.959 133.977 274.946 134.006L274.133 133.344C274.11 133.311 274.077 133.285 274.039 133.272C273.607 132.926 273.168 132.552 272.721 132.25C272.682 132.216 272.633 132.198 272.581 132.198C272.53 132.198 272.48 132.216 272.441 132.25C272.406 132.295 272.392 132.353 272.4 132.41C272.408 132.466 272.438 132.518 272.484 132.552L273.708 133.495C273.332 134.353 273.196 135.297 273.314 136.226C273.432 137.156 273.799 138.036 274.377 138.773C274.384 138.819 274.405 138.862 274.437 138.895C274.47 138.929 274.512 138.951 274.557 138.96Z" fill="white"/>
</g>
</g>
<path d="M277.718 145.152L229.478 150.019C228.192 150.15 227.01 150.786 226.192 151.788C225.374 152.789 224.986 154.075 225.115 155.361L226.771 171.857C228.027 170.966 229.495 170.421 231.028 170.275C232.561 170.129 234.106 170.388 235.507 171.025C236.909 171.663 238.119 172.656 239.017 173.908C239.915 175.159 240.469 176.623 240.623 178.155C240.778 179.688 240.529 181.233 239.9 182.639C239.27 184.044 238.284 185.26 237.038 186.165C235.792 187.07 234.331 187.633 232.799 187.797C231.268 187.961 229.721 187.72 228.312 187.099L229.975 203.594C230.108 204.881 230.744 206.062 231.745 206.881C232.746 207.7 234.03 208.089 235.317 207.965L283.557 203.105C284.844 202.97 286.026 202.332 286.845 201.33C287.663 200.328 288.053 199.043 287.928 197.755L283.068 149.515C282.932 148.229 282.293 147.05 281.291 146.232C280.289 145.415 279.005 145.027 277.718 145.152Z" fill="#0A7EEA"/>
<path opacity="0.3" d="M277.718 145.152L229.478 150.019C228.192 150.15 227.01 150.786 226.192 151.788C225.374 152.789 224.986 154.075 225.115 155.361L226.771 171.857C228.027 170.966 229.495 170.421 231.028 170.275C232.561 170.129 234.106 170.388 235.507 171.025C236.909 171.663 238.119 172.656 239.017 173.908C239.915 175.159 240.469 176.623 240.623 178.155C240.778 179.688 240.529 181.233 239.9 182.639C239.27 184.044 238.284 185.26 237.038 186.165C235.792 187.07 234.331 187.633 232.799 187.797C231.268 187.961 229.721 187.72 228.312 187.099L229.975 203.594C230.108 204.881 230.744 206.062 231.745 206.881C232.746 207.7 234.03 208.089 235.317 207.965L283.557 203.105C284.844 202.97 286.026 202.332 286.845 201.33C287.663 200.328 288.053 199.043 287.928 197.755L283.068 149.515C282.932 148.229 282.293 147.05 281.291 146.232C280.289 145.415 279.005 145.027 277.718 145.152Z" fill="black"/>
<path d="M290.88 159.948L288.648 158.976L283.407 160.315C282.806 160.472 282.274 160.824 281.895 161.316L280.786 162.756C280.55 163.072 280.43 163.459 280.447 163.853C280.464 164.247 280.617 164.622 280.879 164.916L282.132 166.298C282.433 166.628 282.85 166.827 283.295 166.854C283.74 166.881 284.177 166.733 284.515 166.442L287.359 164.002C287.359 164.002 290.787 162.396 290.88 159.948Z" fill="#FFB573"/>
<path d="M245.44 150.955L247.759 150.66C248.071 150.625 248.364 150.488 248.591 150.271C248.819 150.054 248.969 149.768 249.019 149.458L249.336 147.615C249.378 147.395 249.369 147.169 249.308 146.953C249.248 146.738 249.138 146.54 248.988 146.374C248.838 146.209 248.651 146.08 248.443 146C248.235 145.919 248.01 145.887 247.788 145.908L245.08 146.103C244.7 146.123 244.343 146.294 244.087 146.577C243.832 146.861 243.7 147.234 243.72 147.615L243.792 149.559C243.796 149.763 243.843 149.964 243.931 150.149C244.019 150.333 244.145 150.497 244.301 150.629C244.457 150.761 244.639 150.859 244.835 150.915C245.032 150.971 245.238 150.985 245.44 150.955Z" fill="#FFB573"/>
<path d="M281.52 98.0422C275.803 100.922 265.759 99.5974 265.759 99.5974C265.759 99.5974 271.36 90.439 281.52 98.0422Z" fill="#263238"/>
<path d="M180.921 280.721L178.048 295.675L170.776 293.918L173.649 278.964L180.921 280.721Z" fill="#7F3E3B"/>
<path d="M171.007 290.88L179.092 292.637C179.218 292.661 179.329 292.732 179.405 292.834C179.481 292.937 179.516 293.064 179.503 293.191L178.941 299.131C178.923 299.28 178.873 299.424 178.796 299.553C178.719 299.682 178.616 299.793 178.493 299.88C178.37 299.966 178.231 300.027 178.084 300.056C177.936 300.086 177.785 300.085 177.638 300.053C175.096 299.455 174.34 299.081 171.122 298.382C167.371 297.554 166.039 297.778 161.632 296.813C158.968 296.23 159.091 293.436 160.286 293.429C163.442 293.437 166.545 292.609 169.279 291.031C169.814 290.763 170.432 290.709 171.007 290.88Z" fill="#263238"/>
<path opacity="0.2" d="M180.928 280.728L179.445 288.432L172.166 286.675L173.649 278.964L180.928 280.728Z" fill="black"/>
<path d="M193.579 223.128C202.111 198.029 208.864 168.408 208.864 168.408L184.528 166.867C184.528 166.867 180.928 205.301 179.071 223.027C177.127 241.445 171.086 283.025 171.086 283.025L182.066 285.25C182.066 285.25 192.362 246.096 193.579 223.128Z" fill="#263238"/>
<path opacity="0.2" d="M197.64 182.376L203.544 189.677C202.039 195.314 200.282 201.65 198.353 208.123C197.245 199.587 197.007 190.96 197.64 182.376Z" fill="#263238"/>
<path d="M171.245 284.587L181.325 286.79C181.526 286.835 181.736 286.804 181.916 286.703C182.095 286.602 182.231 286.438 182.297 286.243L183.406 282.996C183.444 282.886 183.459 282.769 183.449 282.653C183.439 282.537 183.405 282.424 183.348 282.322C183.292 282.22 183.215 282.131 183.122 282.061C183.029 281.991 182.922 281.942 182.808 281.916L171.871 279.36C171.756 279.333 171.637 279.33 171.521 279.353C171.405 279.375 171.295 279.422 171.198 279.49C171.101 279.558 171.02 279.646 170.96 279.747C170.9 279.849 170.862 279.962 170.849 280.08L170.597 283.68C170.574 283.884 170.628 284.09 170.747 284.257C170.867 284.425 171.044 284.542 171.245 284.587Z" fill="#263238"/>
<path opacity="0.1" d="M171.245 284.587L181.325 286.79C181.526 286.835 181.736 286.804 181.916 286.703C182.095 286.602 182.231 286.438 182.297 286.243L183.406 282.996C183.444 282.886 183.459 282.769 183.449 282.653C183.439 282.537 183.405 282.424 183.348 282.322C183.292 282.22 183.215 282.131 183.122 282.061C183.029 281.991 182.922 281.942 182.808 281.916L171.871 279.36C171.756 279.333 171.637 279.33 171.521 279.353C171.405 279.375 171.295 279.422 171.198 279.49C171.101 279.558 171.02 279.646 170.96 279.747C170.9 279.849 170.862 279.962 170.849 280.08L170.597 283.68C170.574 283.884 170.628 284.09 170.747 284.257C170.867 284.425 171.044 284.542 171.245 284.587Z" fill="white"/>
<path d="M220.953 280.202L221.407 295.632L214.027 295.531L213.573 280.102L220.953 280.202Z" fill="#7F3E3B"/>
<path d="M213.839 292.363L221.687 292.478C221.815 292.478 221.937 292.525 222.032 292.61C222.127 292.695 222.186 292.812 222.198 292.939L222.832 298.872C222.844 299.022 222.825 299.173 222.775 299.315C222.725 299.457 222.646 299.588 222.543 299.697C222.44 299.807 222.315 299.894 222.176 299.953C222.038 300.012 221.888 300.041 221.738 300.038C219.131 299.959 218.31 299.743 215.02 299.693C211.175 299.628 210.347 300.11 205.84 300.046C203.111 300.002 202.672 297.238 203.838 296.993C206.935 296.374 209.814 294.948 212.183 292.86C212.652 292.49 213.244 292.312 213.839 292.363Z" fill="#263238"/>
<path opacity="0.2" d="M220.96 280.21L221.191 288.158L213.804 288.058L213.573 280.102L220.96 280.21Z" fill="black"/>
<path d="M219.118 222.617C217.03 196.214 218.794 181.973 215.726 168.862L193.579 167.486C193.579 167.486 200.455 206.294 204.25 223.848C208.044 241.402 212.126 284.04 212.126 284.04L223.013 284.177C223.013 284.177 224.345 243.216 219.118 222.617Z" fill="#263238"/>
<path d="M212.155 285.998L222.458 286.157C222.672 286.159 222.877 286.08 223.034 285.935C223.191 285.791 223.286 285.592 223.301 285.379L223.524 281.981C223.533 281.868 223.519 281.755 223.482 281.649C223.446 281.542 223.389 281.444 223.313 281.361C223.238 281.277 223.146 281.21 223.043 281.163C222.941 281.116 222.83 281.09 222.718 281.088L211.507 280.742C211.383 280.738 211.259 280.761 211.144 280.812C211.03 280.862 210.929 280.937 210.848 281.032C210.767 281.127 210.708 281.239 210.677 281.359C210.645 281.48 210.641 281.606 210.665 281.729L211.385 285.329C211.423 285.509 211.519 285.671 211.658 285.792C211.797 285.913 211.972 285.985 212.155 285.998Z" fill="#263238"/>
<path opacity="0.1" d="M212.155 285.998L222.458 286.157C222.672 286.159 222.877 286.08 223.034 285.935C223.191 285.791 223.286 285.592 223.301 285.379L223.524 281.981C223.533 281.868 223.519 281.755 223.482 281.649C223.446 281.542 223.389 281.444 223.313 281.361C223.238 281.277 223.146 281.21 223.043 281.163C222.941 281.116 222.83 281.09 222.718 281.088L211.507 280.742C211.383 280.738 211.259 280.761 211.144 280.812C211.03 280.862 210.929 280.937 210.848 281.032C210.767 281.127 210.708 281.239 210.677 281.359C210.645 281.48 210.641 281.606 210.665 281.729L211.385 285.329C211.423 285.509 211.519 285.671 211.658 285.792C211.797 285.913 211.972 285.985 212.155 285.998Z" fill="white"/>
<path d="M192.866 126.871C192.017 128.707 191.131 130.334 190.166 132.012C189.202 133.69 188.186 135.317 187.063 136.915C185.927 138.566 184.686 140.141 183.348 141.631C181.862 143.347 180.121 144.824 178.186 146.009L177.934 146.153C177.503 146.406 177.024 146.565 176.527 146.62C176.031 146.674 175.529 146.623 175.054 146.47C173.65 146.016 172.289 145.505 170.957 144.958C169.625 144.41 168.329 143.806 167.054 143.172C165.78 142.538 164.534 141.869 163.31 141.149C162.086 140.429 160.891 139.709 159.71 138.838C159.288 138.538 158.983 138.1 158.848 137.599C158.714 137.099 158.759 136.567 158.975 136.096C159.191 135.625 159.564 135.244 160.031 135.019C160.498 134.794 161.029 134.739 161.532 134.863H161.611C162.9 135.173 164.232 135.547 165.528 135.886L169.423 136.915C170.712 137.268 172.008 137.563 173.282 137.88C174.557 138.197 175.831 138.442 177.084 138.701L173.981 139.169C175.059 138.275 176.026 137.255 176.861 136.13C177.847 134.863 178.798 133.466 179.741 132.026C180.684 130.586 181.541 129.082 182.39 127.555C183.24 126.029 184.104 124.452 184.867 122.998L184.91 122.918C185.484 121.963 186.397 121.258 187.467 120.945C188.537 120.632 189.686 120.733 190.685 121.229C191.683 121.725 192.458 122.578 192.856 123.62C193.254 124.661 193.245 125.815 192.83 126.85L192.866 126.871Z" fill="#7F3E3B"/>
<path d="M194.638 114.286C186.041 115.265 179.518 128.578 179.518 128.578L188.388 138.017C188.388 138.017 192.341 133.308 196.589 127.354C201.226 120.867 201.442 113.515 194.638 114.286Z" fill="#0A7EEA"/>
<path d="M193.579 116.28C196.884 115.107 211.687 117 211.687 117C208.807 120.715 206.402 151.481 206.136 169.164C202.989 169.596 190.922 168.768 188.136 168.12C188.496 161.179 191.39 128.621 193.579 116.28Z" fill="white"/>
<path d="M184.024 125.611C184.413 122.412 185.962 119.466 188.38 117.335C190.797 115.203 193.913 114.033 197.135 114.048C203.321 114.097 209.484 114.778 215.531 116.078C216.473 116.278 217.366 116.664 218.155 117.214C218.945 117.764 219.617 118.467 220.131 119.282C220.644 120.096 220.989 121.005 221.145 121.955C221.301 122.905 221.265 123.876 221.039 124.812C216.482 143.928 217.684 162.065 216.467 170.503C212.129 172.098 207.522 172.832 202.903 172.663C202.903 172.663 203.011 165.384 204.026 153.094C204.832 143.323 206.279 120.348 209.26 116.532C209.26 116.532 198.575 115.092 195.271 116.251C192.815 130.111 191.015 172.094 191.015 172.102C185.788 171.727 183.326 168.818 183.405 167.954C182.347 150.97 182.879 135.569 184.024 125.611Z" fill="#0A7EEA"/>
<path d="M209.642 104.35C208.642 107.23 207.482 112.334 209.333 115.2C209.427 115.333 209.49 115.485 209.518 115.646C209.546 115.806 209.538 115.971 209.494 116.128C209.451 116.285 209.373 116.431 209.267 116.554C209.161 116.677 209.028 116.776 208.879 116.842C205.905 118.557 202.468 119.298 199.051 118.958C194.407 118.584 194.731 116.489 195.926 115.128C196.209 114.814 196.6 114.618 197.021 114.581C201.406 114.055 201.449 111.413 200.815 108.821L209.642 104.35Z" fill="#7F3E3B"/>
<path opacity="0.2" d="M206.042 106.186L200.822 108.842C200.987 109.456 201.082 110.086 201.103 110.722C203.004 110.722 205.697 109.447 206.006 107.986C206.165 107.398 206.178 106.779 206.042 106.186Z" fill="black"/>
<path d="M202.681 94.3391C202.877 91.7419 201.464 89.5177 199.525 89.3712C197.586 89.2248 195.855 91.2115 195.659 93.8086C195.463 96.4058 196.876 98.63 198.815 98.7764C200.753 98.9229 202.484 96.9362 202.681 94.3391Z" fill="#263238"/>
<path d="M212.465 96.4801C211.5 102.161 211.219 105.538 208.066 108.18C203.321 112.147 196.661 108.792 195.941 102.939C195.286 97.6753 196.97 89.2585 202.716 87.5593C208.462 85.8601 213.43 90.7921 212.465 96.4801Z" fill="#7F3E3B"/>
<path d="M211.226 101.282C211.154 101.282 211.068 101.189 210.989 101.232C208.411 102.672 207.576 99.576 207.734 97.5168C207.787 96.8298 207.984 96.1618 208.313 95.5563C208.642 94.9509 209.095 94.4216 209.642 94.0032C206.849 94.32 204.141 92.52 204.098 90.8424C201.009 92.2032 197.287 92.2824 195.609 89.4024C193.932 86.5224 196.329 82.7568 199.526 83.7576C198.23 81.4392 203.709 76.8024 209.448 83.6424C209.628 78.6816 217.649 83.6424 216.331 88.5168C220.046 89.7984 223.229 96.8544 216.929 98.3592C216.511 104.897 211.226 101.282 211.226 101.282Z" fill="#263238"/>
<path d="M214.264 103.068C213.392 104.138 212.147 104.838 210.78 105.026C209.052 105.221 208.67 103.464 209.556 101.865C210.355 100.425 212.212 98.5966 213.753 99.1582C215.294 99.7198 215.388 101.7 214.264 103.068Z" fill="#7F3E3B"/>
<path d="M204.228 96.9046C204.185 97.3798 203.904 97.7326 203.594 97.7038C203.285 97.675 203.069 97.2718 203.112 96.7966C203.155 96.3214 203.436 95.9758 203.746 96.0046C204.055 96.0334 204.264 96.4366 204.228 96.9046Z" fill="#263238"/>
<path d="M198.647 96.2858C198.604 96.7538 198.323 97.1066 198.014 97.0778C197.704 97.049 197.495 96.6458 197.531 96.1778C197.567 95.7098 197.855 95.3498 198.165 95.3786C198.475 95.4074 198.719 95.8106 198.647 96.2858Z" fill="#263238"/>
<path d="M200.83 96.5518C200.142 97.9321 199.267 99.2113 198.23 100.353C198.529 100.614 198.881 100.806 199.261 100.917C199.642 101.027 200.042 101.054 200.434 100.994L200.83 96.5518Z" fill="#630F0F"/>
<path d="M201.887 103.284C202.41 103.321 202.935 103.251 203.43 103.079C203.925 102.907 204.38 102.636 204.767 102.283C204.78 102.27 204.79 102.254 204.797 102.237C204.804 102.22 204.807 102.202 204.807 102.183C204.806 102.165 204.802 102.147 204.795 102.13C204.788 102.113 204.777 102.098 204.764 102.085C204.751 102.072 204.735 102.062 204.718 102.056C204.701 102.049 204.682 102.046 204.664 102.046C204.646 102.046 204.628 102.05 204.611 102.058C204.594 102.065 204.579 102.075 204.566 102.089C204.127 102.477 203.603 102.755 203.036 102.902C202.469 103.048 201.876 103.058 201.304 102.931C201.287 102.927 201.268 102.926 201.251 102.93C201.233 102.933 201.216 102.94 201.201 102.95C201.186 102.96 201.174 102.973 201.164 102.989C201.155 103.004 201.148 103.021 201.146 103.039C201.139 103.075 201.147 103.113 201.167 103.143C201.187 103.174 201.218 103.196 201.254 103.205C201.484 103.241 201.686 103.27 201.887 103.284Z" fill="#263238"/>
<path d="M206.07 95.7601C206.115 95.7705 206.162 95.7705 206.207 95.7601C206.241 95.7453 206.271 95.724 206.296 95.6975C206.321 95.6709 206.34 95.6396 206.353 95.6053C206.366 95.5711 206.372 95.5347 206.37 95.4982C206.368 95.4617 206.36 95.4259 206.344 95.3929C206.175 94.9855 205.912 94.6239 205.577 94.3374C205.241 94.0509 204.843 93.8476 204.414 93.7441C204.342 93.7336 204.268 93.7519 204.209 93.7949C204.15 93.8379 204.11 93.9024 204.098 93.9745C204.087 94.0469 204.105 94.1205 204.148 94.1797C204.191 94.2389 204.256 94.2789 204.328 94.2913C204.666 94.3785 204.979 94.5437 205.242 94.7738C205.504 95.0039 205.709 95.2924 205.84 95.6161C205.864 95.6568 205.898 95.6911 205.938 95.7162C205.978 95.7412 206.023 95.7563 206.07 95.7601Z" fill="#263238"/>
<path d="M196.307 93.9888C196.352 94.0007 196.399 94.0017 196.444 93.9917C196.489 93.9816 196.531 93.9609 196.566 93.9312C196.823 93.6987 197.131 93.53 197.465 93.4386C197.799 93.3473 198.15 93.336 198.489 93.4056C198.559 93.4256 198.633 93.4172 198.697 93.3821C198.76 93.347 198.807 93.2881 198.827 93.2184C198.847 93.1478 198.839 93.072 198.804 93.0074C198.769 92.9428 198.71 92.8945 198.64 92.8728C198.212 92.7753 197.766 92.7826 197.341 92.8941C196.916 93.0057 196.524 93.2182 196.199 93.5136C196.174 93.5391 196.153 93.5693 196.139 93.6027C196.125 93.6361 196.118 93.6719 196.118 93.708C196.118 93.7442 196.125 93.78 196.139 93.8133C196.153 93.8467 196.174 93.877 196.199 93.9024C196.227 93.9405 196.264 93.9703 196.307 93.9888Z" fill="#263238"/>
<path d="M222.753 124.423C223.221 125.338 223.603 126.13 223.977 126.986C224.352 127.843 224.697 128.671 225.072 129.521C225.792 131.22 226.418 132.948 227.008 134.698C228.209 138.236 229.129 141.865 229.759 145.548L229.953 146.988L230.054 147.708V147.881V148.198C230.054 148.428 230.09 148.658 230.09 148.918C230.062 150.23 229.801 151.527 229.32 152.748C228.603 154.613 227.69 156.396 226.598 158.069C225.606 159.635 224.532 161.146 223.38 162.598C222.25 164.042 221.049 165.429 219.78 166.752C219.415 167.138 218.924 167.381 218.395 167.435C217.867 167.49 217.337 167.353 216.901 167.049C216.465 166.746 216.152 166.296 216.02 165.782C215.888 165.267 215.944 164.723 216.18 164.246V164.189C217.67 161.086 219.247 157.946 220.5 154.886C220.824 154.123 221.112 153.36 221.364 152.618C221.614 151.926 221.824 151.219 221.99 150.502C222.107 150.056 222.148 149.593 222.112 149.134L222.076 148.99L221.94 148.392L221.673 147.204C220.843 143.98 219.826 140.806 218.628 137.7C218.052 136.116 217.396 134.554 216.763 132.984C216.446 132.206 216.108 131.429 215.769 130.658L214.761 128.412L214.704 128.282C214.198 127.223 214.133 126.005 214.525 124.898C214.916 123.791 215.732 122.884 216.792 122.378C217.851 121.872 219.069 121.808 220.176 122.2C221.283 122.591 222.19 123.407 222.696 124.466L222.753 124.423Z" fill="#7F3E3B"/>
<path d="M216.273 116.28C225.864 118.699 228.513 130.961 228.513 130.961L216.604 139.5C216.604 139.5 213.652 136.411 212.76 129.154C212.349 125.69 214.329 116.186 216.273 116.28Z" fill="#0A7EEA"/>
<path d="M217.749 162.72L212.205 164.794L216.453 170.482C216.453 170.482 221.241 167.998 220.334 165.24L217.749 162.72Z" fill="#7F3E3B"/>
<path d="M208.08 165.6C206.586 165.349 205.054 165.488 203.63 166.003L206.38 149.659C206.593 148.383 206.291 147.074 205.541 146.02C204.79 144.966 203.653 144.253 202.377 144.036L154.569 135.986C153.295 135.776 151.989 136.078 150.937 136.826C149.885 137.575 149.172 138.71 148.953 139.982L146.16 156.362C147.582 155.84 149.116 155.701 150.609 155.959C151.937 156.182 153.196 156.706 154.289 157.492C155.382 158.278 156.28 159.303 156.914 160.491C157.548 161.678 157.902 162.995 157.947 164.34C157.992 165.686 157.728 167.024 157.175 168.251C156.622 169.478 155.795 170.562 154.757 171.419C153.72 172.277 152.499 172.885 151.189 173.196C149.88 173.507 148.516 173.514 147.204 173.216C145.891 172.918 144.664 172.322 143.618 171.475L140.86 187.819C140.648 189.095 140.95 190.404 141.7 191.458C142.45 192.512 143.588 193.226 144.864 193.442L192.672 201.492C193.947 201.703 195.253 201.401 196.307 200.653C197.36 199.904 198.075 198.769 198.295 197.496L201.045 181.145C202.093 181.978 203.317 182.562 204.624 182.851C205.931 183.14 207.287 183.126 208.588 182.812C209.889 182.498 211.102 181.891 212.133 181.038C213.164 180.184 213.987 179.107 214.539 177.887C215.091 176.667 215.357 175.338 215.318 174C215.278 172.662 214.934 171.35 214.311 170.166C213.688 168.981 212.803 167.954 211.723 167.162C210.643 166.371 209.397 165.837 208.08 165.6Z" fill="#0A7EEA"/>
<path opacity="0.6" d="M208.08 165.6C206.586 165.349 205.054 165.488 203.63 166.003L206.38 149.659C206.593 148.383 206.291 147.074 205.541 146.02C204.79 144.966 203.653 144.253 202.377 144.036L154.569 135.986C153.295 135.776 151.989 136.078 150.937 136.826C149.885 137.575 149.172 138.71 148.953 139.982L146.16 156.362C147.582 155.84 149.116 155.701 150.609 155.959C151.937 156.182 153.196 156.706 154.289 157.492C155.382 158.278 156.28 159.303 156.914 160.491C157.548 161.678 157.902 162.995 157.947 164.34C157.992 165.686 157.728 167.024 157.175 168.251C156.622 169.478 155.795 170.562 154.757 171.419C153.72 172.277 152.499 172.885 151.189 173.196C149.88 173.507 148.516 173.514 147.204 173.216C145.891 172.918 144.664 172.322 143.618 171.475L140.86 187.819C140.648 189.095 140.95 190.404 141.7 191.458C142.45 192.512 143.588 193.226 144.864 193.442L192.672 201.492C193.947 201.703 195.253 201.401 196.307 200.653C197.36 199.904 198.075 198.769 198.295 197.496L201.045 181.145C202.093 181.978 203.317 182.562 204.624 182.851C205.931 183.14 207.287 183.126 208.588 182.812C209.889 182.498 211.102 181.891 212.133 181.038C213.164 180.184 213.987 179.107 214.539 177.887C215.091 176.667 215.357 175.338 215.318 174C215.278 172.662 214.934 171.35 214.311 170.166C213.688 168.981 212.803 167.954 211.723 167.162C210.643 166.371 209.397 165.837 208.08 165.6Z" fill="white"/>
<path d="M209.613 170.381L211.435 172.123C211.785 172.46 212.245 172.661 212.73 172.69C213.216 172.72 213.696 172.574 214.084 172.281L216.453 170.503L212.205 164.815L209.577 167.45C209.384 167.643 209.231 167.873 209.128 168.126C209.025 168.379 208.973 168.65 208.977 168.923C208.98 169.196 209.038 169.466 209.147 169.716C209.257 169.967 209.415 170.192 209.613 170.381Z" fill="#7F3E3B"/>
<path d="M156.24 137.52L156.902 135.065C157.013 134.776 157.212 134.529 157.47 134.359C157.728 134.188 158.033 134.103 158.342 134.114C159.28 134.076 160.217 134.22 161.1 134.539L164.844 135.922L164.664 137.448C164.513 138.758 163.051 139.853 161.395 139.903C160.283 139.918 159.174 139.8 158.09 139.55L157.687 139.464C157.458 139.448 157.234 139.382 157.032 139.272C156.83 139.161 156.655 139.009 156.517 138.824C156.38 138.639 156.284 138.427 156.236 138.202C156.188 137.977 156.19 137.745 156.24 137.52Z" fill="#7F3E3B"/>
<path d="M97.2649 103.63C99.6625 100.843 103.27 93.6073 96.4873 90.8425C91.4833 88.7977 80.8633 89.8417 74.7649 99.3385C70.5961 100.779 69.3649 110.052 78.9913 112.003C88.6177 113.955 97.2649 103.63 97.2649 103.63Z" fill="#263238"/>
<path d="M119.016 282.298L108.015 283.212L109.879 296.143L119.074 295.395L119.016 282.298Z" fill="#FFC3BD"/>
<path opacity="0.2" d="M119.017 282.305L108.008 283.219L109.059 290.462L119.053 289.634L119.017 282.305Z" fill="black"/>
<path d="M97.9847 244.231C93.6647 227.671 82.4759 207.958 89.5679 192.024L120.391 191.931C120.391 191.931 121.154 224.727 121.37 240.171C121.586 256.32 120.24 286.704 120.24 286.704L107.633 287.662C107.633 287.662 98.9927 262.8 97.9847 244.231Z" fill="#0A7EEA"/>
<path d="M107.006 288.158L120.629 287.157C120.745 287.147 120.854 287.096 120.936 287.013C121.017 286.93 121.067 286.82 121.075 286.704L121.363 281.664C121.368 281.594 121.357 281.524 121.332 281.459C121.306 281.393 121.266 281.334 121.216 281.286C121.165 281.238 121.104 281.202 121.037 281.18C120.97 281.158 120.9 281.151 120.83 281.16L105.71 283.169C105.642 283.176 105.575 283.199 105.516 283.235C105.457 283.271 105.407 283.32 105.369 283.378C105.332 283.435 105.307 283.501 105.297 283.569C105.288 283.638 105.294 283.708 105.314 283.773L106.509 287.82C106.543 287.924 106.61 288.013 106.7 288.074C106.79 288.136 106.898 288.165 107.006 288.158Z" fill="#263238"/>
<path opacity="0.2" d="M89.4603 207.698C89.3409 211.61 89.4997 215.524 89.9355 219.413C91.4403 224.618 93.3627 229.831 95.0907 234.886C97.3515 220.572 97.3587 203.89 89.4603 207.698Z" fill="black"/>
<path d="M78.2936 283.104L67.2488 283.212L67.2344 296.244L76.4648 296.172L78.2936 283.104Z" fill="#FFC3BD"/>
<path d="M66.3623 294.242C66.3732 294.17 66.3991 294.1 66.4384 294.038C66.4777 293.977 66.5296 293.924 66.5906 293.883C66.6516 293.842 66.7205 293.815 66.7928 293.802C66.8651 293.79 66.9392 293.793 67.0103 293.81C69.7823 294.912 75.0383 294.07 77.0255 293.688C77.2449 293.643 77.4712 293.643 77.6904 293.689C77.9096 293.735 78.1171 293.825 78.2999 293.954C79.9254 294.997 81.6868 295.811 83.5343 296.374C83.9307 297.433 84.0303 298.581 83.8223 299.693H65.2031C65.7285 297.908 66.116 296.086 66.3623 294.242Z" fill="#263238"/>
<path d="M108.663 294.242C108.674 294.17 108.7 294.1 108.739 294.038C108.779 293.977 108.83 293.924 108.891 293.883C108.952 293.842 109.021 293.815 109.094 293.802C109.166 293.79 109.24 293.793 109.311 293.81C112.083 294.912 117.339 294.07 119.326 293.688C119.546 293.643 119.772 293.643 119.991 293.689C120.21 293.735 120.418 293.825 120.601 293.954C122.718 295.452 128.362 296.374 128.362 296.374C128.759 297.433 128.856 298.582 128.643 299.693H107.504C108.029 297.908 108.417 296.086 108.663 294.242Z" fill="#263238"/>
<path opacity="0.2" d="M78.2936 283.111L67.2416 283.212L67.2344 290.513L77.2712 290.427L78.2936 283.111Z" fill="black"/>
<path d="M65.6932 238.875C64.1956 222.149 59.5012 199.62 64.8292 191.931H100.901C100.901 191.931 93.55 225.281 90.5332 240.718C87.4012 256.767 78.394 287.583 78.394 287.583L66.4492 287.619C66.4492 287.619 61.9204 257.969 65.6932 238.875Z" fill="#0A7EEA"/>
<path opacity="0.2" d="M67.8599 284.199C67.7823 284.197 67.7071 284.172 67.645 284.125C67.5829 284.079 67.5371 284.014 67.5143 283.939C66.6575 281.059 66.7943 247.975 68.9543 238.918C68.9543 237.723 68.7023 235.375 68.4143 232.402C67.4279 222.322 65.5991 203.602 68.3279 192.982C68.3518 192.886 68.4126 192.804 68.497 192.754C68.5814 192.703 68.6824 192.688 68.7779 192.712C68.8734 192.736 68.9555 192.796 69.0061 192.881C69.0568 192.965 69.0718 193.066 69.0479 193.162C66.3479 203.667 68.1695 222.315 69.1487 232.337C69.4439 235.361 69.6815 237.744 69.6959 238.954C69.6995 238.985 69.6995 239.016 69.6959 239.047C67.6223 247.615 67.4207 280.951 68.2559 283.738C68.283 283.828 68.2732 283.926 68.2287 284.01C68.1842 284.093 68.1087 284.156 68.0183 284.184C67.968 284.204 67.913 284.209 67.8599 284.199Z" fill="white"/>
<path d="M65.6206 288.065H79.1494C79.2576 288.068 79.3632 288.032 79.4466 287.963C79.53 287.894 79.5856 287.797 79.603 287.691L80.4958 282.888C80.5087 282.815 80.5052 282.741 80.4856 282.67C80.466 282.598 80.4308 282.533 80.3825 282.477C80.3342 282.421 80.2741 282.376 80.2065 282.347C80.139 282.317 80.0656 282.303 79.9918 282.305L65.2606 282.96C65.1985 282.962 65.1373 282.976 65.081 283.003C65.0246 283.029 64.9743 283.067 64.9331 283.113C64.8919 283.16 64.8607 283.214 64.8415 283.273C64.8223 283.333 64.8155 283.395 64.8214 283.457L65.1238 287.604C65.1345 287.729 65.1914 287.845 65.2832 287.93C65.3751 288.016 65.4953 288.064 65.6206 288.065Z" fill="#263238"/>
<path d="M113.156 133.675C113.876 136.555 114.538 139.435 115.179 142.315C115.82 145.195 116.425 148.075 116.986 150.955L117.85 155.275L118.657 159.595C119.211 162.475 119.701 165.398 120.205 168.307L119.031 165.679C119.188 166.218 119.526 166.686 119.989 167.004C120.91 167.627 121.949 168.055 123.041 168.264C124.498 168.6 125.983 168.796 127.477 168.847C128.276 168.89 129.097 168.919 129.925 168.905C130.335 168.905 130.753 168.905 131.17 168.905C131.588 168.905 132.041 168.905 132.329 168.905L133.352 168.977C134.212 169.032 135.031 169.365 135.685 169.927C136.34 170.488 136.794 171.247 136.979 172.089C137.164 172.931 137.071 173.81 136.712 174.594C136.354 175.378 135.751 176.025 134.993 176.436C134.417 176.753 134.007 176.99 133.517 177.242C133.028 177.494 132.574 177.71 132.077 177.962C131.113 178.38 130.126 178.776 129.104 179.107C128.066 179.447 127.011 179.731 125.943 179.957C124.818 180.181 123.681 180.34 122.537 180.432C121.302 180.52 120.061 180.501 118.829 180.374C117.46 180.259 116.11 179.974 114.812 179.525C113.355 179.039 111.972 178.356 110.701 177.494C109.36 176.566 108.166 175.442 107.158 174.161C106.723 173.62 106.4 172.999 106.208 172.332L105.985 171.533C105.193 168.696 104.379 165.866 103.63 163.015L102.485 158.753L101.398 154.476C100.678 151.596 99.9582 148.759 99.303 145.894C98.6478 143.028 97.9926 140.134 97.4238 137.254C97.0162 135.193 97.4289 133.054 98.5741 131.293C99.7193 129.532 101.507 128.287 103.555 127.824C105.604 127.36 107.753 127.715 109.545 128.812C111.337 129.908 112.63 131.661 113.149 133.697L113.156 133.675Z" fill="#FFC3BD"/>
<path d="M131.825 169.618L131.976 174.269C133.856 178.783 139.241 175.356 139.241 175.356L142.496 174.758C143.062 174.614 143.56 174.274 143.899 173.798C144.239 173.323 144.4 172.742 144.353 172.159L144.267 168.905C144.289 168.233 144.047 167.579 143.594 167.083C143.141 166.587 142.511 166.287 141.84 166.248L138.96 166.306C138.12 166.32 137.296 166.543 136.563 166.954L131.825 169.618Z" fill="#FFC3BD"/>
<path d="M107.64 125.654C114.264 129.139 118.592 141.437 118.592 141.437C117.195 147.197 111.564 157.702 106.352 157.637C106.352 157.637 98.698 147.766 97.87 140.623C96.862 131.99 94.2485 118.613 107.64 125.654Z" fill="#263238"/>
<path d="M101.521 123.61C91.2979 122.638 80.999 122.802 70.8126 124.099C64.923 124.927 60.7326 128.592 61.4526 140.659C62.8926 165.139 60.6606 184.219 63.771 193.018C63.771 193.018 109.073 205.978 121.99 193.558C125.129 164.102 114.56 139.651 109.75 129.478C108.997 127.876 107.844 126.495 106.403 125.467C104.962 124.439 103.28 123.8 101.521 123.61Z" fill="#263238"/>
<path d="M98.1151 126.288C96.9415 125.136 95.7103 125.806 95.1415 124.071C94.8907 122.708 95.1196 121.301 95.7895 120.089L81.8143 112.543C82.0879 117.684 82.2967 121.745 80.0143 123.79C79.3519 127.62 86.4943 131.443 96.0055 131.501C102.061 131.537 99.8071 127.944 98.1151 126.288Z" fill="#FFC3BD"/>
<path opacity="0.2" d="M95.5802 120.521L84.5498 117.763C87.3362 122.148 92.3546 124.546 95.0546 123.487C94.9774 122.47 95.1582 121.45 95.5802 120.521Z" fill="black"/>
<path d="M91.0159 95.3639C83.7151 93.7439 77.4079 99.8063 78.8191 106.416C80.2303 113.025 81.3463 117.489 85.9183 119.736C95.0047 124.214 99.4399 119.894 100.182 112.989C100.851 106.769 98.4247 96.9983 91.0159 95.3639Z" fill="#FFC3BD"/>
<path opacity="0.2" d="M89.5829 107.1C88.725 106.885 87.817 107.017 87.0557 107.467C87.914 107.513 88.7729 107.388 89.5829 107.1Z" fill="black"/>
<path opacity="0.2" d="M89.6327 107.712C89.2291 107.693 88.8264 107.763 88.4531 107.918C88.0798 108.072 87.745 108.306 87.4727 108.605C88.2489 108.468 88.986 108.163 89.6327 107.712Z" fill="black"/>
<path d="M79.7403 112.003C83.8227 112.918 85.5003 110.873 85.5003 108.583C85.5003 106.15 83.2035 102.039 80.6835 101.283C81.5835 95.8827 96.4659 103.443 95.0475 95.9619C95.0475 95.9619 94.6443 94.6803 90.7995 93.9603C86.9547 93.2403 76.6803 95.5587 77.4003 103.241C78.1203 110.923 79.7403 112.003 79.7403 112.003Z" fill="#263238"/>
<path d="M74.542 99.7202C75.5413 97.7151 75.8234 95.4281 75.3412 93.2402C75.3412 93.2402 79.8196 96.1994 74.542 99.7202Z" fill="#263238"/>
<path d="M93.3199 114.055C93.6253 114.032 93.9285 113.987 94.2271 113.919C94.2503 113.913 94.2723 113.904 94.2918 113.89C94.3112 113.877 94.3278 113.859 94.3405 113.839C94.3532 113.819 94.3619 113.797 94.3659 113.773C94.3699 113.75 94.3692 113.726 94.3639 113.703C94.3598 113.679 94.3507 113.656 94.3373 113.636C94.3239 113.616 94.3065 113.599 94.2862 113.586C94.2658 113.574 94.243 113.565 94.2192 113.561C94.1954 113.558 94.1711 113.559 94.1479 113.566C93.4002 113.748 92.6202 113.753 91.8702 113.581C91.1202 113.408 90.4208 113.063 89.8279 112.572C89.8111 112.555 89.791 112.541 89.7687 112.531C89.7465 112.522 89.7225 112.517 89.6983 112.517C89.6741 112.517 89.6502 112.522 89.6279 112.531C89.6056 112.541 89.5855 112.555 89.5687 112.572C89.5353 112.607 89.5166 112.653 89.5166 112.702C89.5166 112.75 89.5353 112.797 89.5687 112.831C90.0817 113.274 90.6775 113.61 91.3215 113.82C91.9654 114.03 92.6447 114.11 93.3199 114.055Z" fill="#263238"/>
<path d="M77.1559 112.32C77.6231 112.954 78.2109 113.488 78.8856 113.894C79.5603 114.299 80.3084 114.567 81.0871 114.682C83.1823 114.97 83.967 113.033 83.1606 111.204C82.4406 109.555 80.4822 107.424 78.495 107.971C76.5078 108.519 76.0183 110.743 77.1559 112.32Z" fill="#FFC3BD"/>
<path d="M90.7709 107.172C90.8573 107.755 91.2317 108.187 91.6133 108.13C91.9949 108.072 92.2397 107.547 92.1533 106.963C92.0669 106.38 91.6997 105.955 91.3181 106.013C90.9365 106.071 90.7205 106.56 90.7709 107.172Z" fill="#263238"/>
<path d="M97.6321 106.25C97.7185 106.841 98.0929 107.265 98.4745 107.208C98.8561 107.15 99.1009 106.632 99.0145 106.049C98.9281 105.465 98.5609 105.033 98.1793 105.091C97.7977 105.149 97.5529 105.667 97.6321 106.25Z" fill="#263238"/>
<path d="M95.04 107.021L95.3712 111.96C95.3712 111.96 96.9912 112.241 97.8696 111.305C97.312 109.657 96.3372 108.181 95.04 107.021Z" fill="#ED847E"/>
<path d="M88.5103 105.84C88.4513 105.856 88.3891 105.856 88.3303 105.84C88.2714 105.823 88.2181 105.791 88.1761 105.747C88.134 105.703 88.1047 105.648 88.0913 105.588C88.0779 105.528 88.0808 105.466 88.0999 105.408C88.2368 104.873 88.4988 104.378 88.8642 103.964C89.2297 103.549 89.6883 103.228 90.2023 103.025C90.2892 102.998 90.3833 103.006 90.4642 103.048C90.545 103.09 90.6062 103.162 90.6343 103.248C90.6617 103.336 90.6537 103.431 90.612 103.513C90.5703 103.595 90.4982 103.658 90.4111 103.687C90.0053 103.853 89.6444 104.112 89.3578 104.444C89.0713 104.775 88.8672 105.17 88.7623 105.595C88.746 105.655 88.714 105.709 88.6697 105.752C88.6254 105.795 88.5703 105.826 88.5103 105.84Z" fill="#263238"/>
<path d="M99.8857 103.63C99.8288 103.635 99.7716 103.625 99.7197 103.601C99.6679 103.577 99.6233 103.54 99.5906 103.493C99.344 103.135 99.0152 102.842 98.6319 102.638C98.2485 102.434 97.8217 102.324 97.3873 102.319C97.2919 102.319 97.2003 102.281 97.1328 102.214C97.0653 102.146 97.0273 102.055 97.0273 101.959C97.0273 101.864 97.0653 101.772 97.1328 101.705C97.2003 101.637 97.2919 101.599 97.3873 101.599C97.9358 101.595 98.4772 101.724 98.965 101.974C99.4529 102.225 99.8726 102.591 100.188 103.039C100.215 103.076 100.234 103.118 100.244 103.162C100.254 103.206 100.256 103.252 100.248 103.297C100.241 103.342 100.225 103.385 100.201 103.423C100.177 103.462 100.146 103.495 100.109 103.522C100.081 103.554 100.047 103.58 100.009 103.599C99.9702 103.618 99.9284 103.628 99.8857 103.63Z" fill="#263238"/>
<path d="M141.84 150.718C140.332 150.824 138.878 151.32 137.621 152.158L136.317 135.598C136.211 134.31 135.599 133.116 134.616 132.277C133.633 131.438 132.357 131.022 131.069 131.119L82.735 134.928C81.4476 135.037 80.255 135.649 79.4164 136.632C78.5778 137.614 78.161 138.889 78.2566 140.177L82.0726 188.511C82.1755 189.8 82.7861 190.996 83.7703 191.836C84.7544 192.676 86.0317 193.09 87.3214 192.989L135.648 189.173C136.937 189.068 138.133 188.457 138.973 187.474C139.814 186.49 140.231 185.214 140.133 183.924L138.823 167.4C140.195 168.043 141.712 168.316 143.222 168.192C145.392 167.827 147.345 166.662 148.699 164.928C150.052 163.194 150.706 161.015 150.533 158.822C150.359 156.629 149.371 154.58 147.761 153.08C146.152 151.58 144.04 150.737 141.84 150.718Z" fill="#0A7EEA"/>
<path d="M71.7555 144.108L71.0355 145.433L70.2075 146.916C69.6747 147.924 69.1275 148.932 68.6307 149.954C67.6324 151.946 66.7383 153.989 65.9523 156.074C65.5707 157.082 65.2323 158.083 64.9803 159.069C64.6928 160.014 64.4667 160.976 64.3035 161.949C64.0014 163.515 63.9503 165.12 64.1523 166.701L62.4963 163.821C63.1857 164.767 64.0078 165.609 64.9371 166.32C66.1587 167.295 67.4404 168.192 68.7747 169.005C70.1643 169.898 71.6547 170.755 73.1523 171.612L75.4419 172.886C76.1619 173.318 77.0259 173.75 77.7099 174.168L78.0555 174.377C78.8198 174.84 79.4107 175.542 79.7371 176.374C80.0634 177.206 80.1072 178.122 79.8617 178.981C79.6161 179.841 79.0949 180.596 78.3782 181.13C77.6616 181.664 76.7892 181.947 75.8955 181.937C74.8011 181.937 73.8651 181.865 72.8571 181.785C71.8491 181.706 70.8915 181.584 69.9123 181.425C67.9222 181.127 65.9527 180.703 64.0155 180.158C61.9653 179.584 59.9664 178.84 58.0395 177.934C55.7617 176.884 53.6683 175.474 51.8403 173.757C51.1825 173.13 50.6882 172.352 50.4003 171.489L50.1987 170.87C49.0713 167.451 48.65 163.838 48.9603 160.25C49.2049 157.125 49.8039 154.038 50.7459 151.049C51.6231 148.24 52.7109 145.501 54.0003 142.855C54.6267 141.559 55.2675 140.278 55.9875 139.032C56.3403 138.405 56.7075 137.779 57.0819 137.16L57.6723 136.224L57.9819 135.749L58.3563 135.194C59.513 133.444 61.3068 132.214 63.3563 131.766C65.4058 131.317 67.5493 131.686 69.3311 132.794C71.1129 133.901 72.3924 135.66 72.8976 137.696C73.4028 139.733 73.0938 141.886 72.0363 143.697L71.7555 144.108Z" fill="#FFC3BD"/>
<path d="M66.1323 125.654C54.1947 132.033 49.7451 146.282 49.7451 146.282C52.1067 150.782 66.3483 155.642 71.7051 154.317C71.7051 154.317 76.8387 144.957 77.8971 136.591C78.8763 128.837 73.1235 121.917 66.1323 125.654Z" fill="#263238"/>
<path d="M74.4844 174.96L74.7292 179.612C76.702 184.09 82.0156 180.555 82.0156 180.555L85.2628 179.892C85.8261 179.737 86.316 179.387 86.6456 178.905C86.9752 178.422 87.123 177.838 87.0628 177.257L86.9188 174.01C86.9365 173.334 86.6886 172.678 86.2283 172.183C85.7679 171.687 85.1318 171.392 84.4564 171.36L81.5764 171.476C80.7345 171.514 79.9155 171.761 79.1932 172.196L74.4844 174.96Z" fill="#FFC3BD"/>
</svg>
