<svg width="360" height="360" viewBox="0 0 360 360" fill="none" xmlns="http://www.w3.org/2000/svg">
<path d="M179.279 336.197C265.608 336.197 335.591 295.793 335.591 245.952C335.591 196.111 265.608 155.707 179.279 155.707C92.9501 155.707 22.9668 196.111 22.9668 245.952C22.9668 295.793 92.9501 336.197 179.279 336.197Z" fill="#EBEBEB"/>
<path d="M335.591 245.865C335.555 225.172 323.265 204.487 298.727 187.74L297.41 186.854L76.917 314.157L78.2778 314.827C107.279 329.04 143.207 336.175 179.121 336.196L335.591 245.865Z" fill="#FAFAFA"/>
<path d="M143.864 196.402C159.07 196.402 171.397 189.285 171.397 180.505C171.397 171.725 159.07 164.607 143.864 164.607C128.658 164.607 116.331 171.725 116.331 180.505C116.331 189.285 128.658 196.402 143.864 196.402Z" fill="#E0E0E0"/>
<path opacity="0.05" d="M229.983 290.197C252.31 290.197 270.411 279.746 270.411 266.854C270.411 253.962 252.31 243.512 229.983 243.512C207.655 243.512 189.555 253.962 189.555 266.854C189.555 279.746 207.655 290.197 229.983 290.197Z" fill="black"/>
<path d="M69.6026 275.076C87.1705 275.076 101.412 266.853 101.412 256.709C101.412 246.565 87.1705 238.342 69.6026 238.342C52.0346 238.342 37.793 246.565 37.793 256.709C37.793 266.853 52.0346 275.076 69.6026 275.076Z" fill="#E0E0E0"/>
<path d="M137.52 103.32V180.36C137.52 181.282 138.132 182.211 139.356 182.916C140.726 183.609 142.241 183.969 143.776 183.969C145.312 183.969 146.826 183.609 148.197 182.916C149.421 182.196 150.033 181.282 150.033 180.36V103.32H137.52Z" fill="#B16668"/>
<path d="M185.19 143.179L146.447 49.6079H141.047L102.297 143.208C102.018 143.884 101.892 144.613 101.928 145.344C101.964 146.074 102.161 146.788 102.505 147.433C102.849 148.079 103.331 148.64 103.918 149.077C104.504 149.514 105.18 149.816 105.897 149.962L106.53 150.084C107.758 150.327 108.848 151.027 109.581 152.043C110.313 153.058 110.633 154.314 110.476 155.556C110.375 156.376 110.481 157.209 110.784 157.978C111.087 158.747 111.577 159.429 112.21 159.96C112.843 160.492 113.599 160.857 114.409 161.022C115.219 161.187 116.057 161.147 116.848 160.906L118.763 160.315C119.913 159.961 121.154 160.038 122.251 160.532C123.348 161.027 124.228 161.904 124.725 163.001L126.654 167.249C126.942 167.882 127.359 168.449 127.88 168.91C128.401 169.372 129.013 169.718 129.677 169.928C130.34 170.137 131.041 170.204 131.732 170.124C132.423 170.045 133.09 169.821 133.689 169.466L141.206 165.01C141.968 164.556 142.839 164.317 143.726 164.317C144.613 164.317 145.483 164.556 146.246 165.01L153.762 169.466C154.361 169.821 155.028 170.045 155.719 170.124C156.411 170.204 157.111 170.137 157.775 169.928C158.438 169.718 159.05 169.372 159.571 168.91C160.092 168.449 160.509 167.882 160.797 167.249L162.719 163.001C163.217 161.904 164.098 161.026 165.197 160.532C166.295 160.037 167.537 159.96 168.688 160.315L170.603 160.898C171.393 161.142 172.231 161.183 173.041 161.019C173.851 160.856 174.607 160.491 175.24 159.96C175.873 159.429 176.363 158.747 176.665 157.978C176.966 157.209 177.071 156.376 176.968 155.556C176.815 154.313 177.137 153.059 177.87 152.044C178.603 151.029 179.693 150.329 180.921 150.084L181.554 149.962C182.279 149.823 182.963 149.524 183.557 149.087C184.151 148.651 184.64 148.087 184.989 147.437C185.337 146.787 185.536 146.067 185.571 145.331C185.606 144.594 185.476 143.859 185.19 143.179Z" fill="#0A7EEA"/>
<path opacity="0.3" d="M185.19 143.179L146.447 49.6079H141.047L102.297 143.208C102.018 143.884 101.892 144.613 101.928 145.344C101.964 146.074 102.161 146.788 102.505 147.433C102.849 148.079 103.331 148.64 103.918 149.077C104.504 149.514 105.18 149.816 105.897 149.962L106.53 150.084C107.758 150.327 108.848 151.027 109.581 152.043C110.313 153.058 110.633 154.314 110.476 155.556C110.375 156.376 110.481 157.209 110.784 157.978C111.087 158.747 111.577 159.429 112.21 159.96C112.843 160.492 113.599 160.857 114.409 161.022C115.219 161.187 116.057 161.147 116.848 160.906L118.763 160.315C119.913 159.961 121.154 160.038 122.251 160.532C123.348 161.027 124.228 161.904 124.725 163.001L126.654 167.249C126.942 167.882 127.359 168.449 127.88 168.91C128.401 169.372 129.013 169.718 129.677 169.928C130.34 170.137 131.041 170.204 131.732 170.124C132.423 170.045 133.09 169.821 133.689 169.466L141.206 165.01C141.968 164.556 142.839 164.317 143.726 164.317C144.613 164.317 145.483 164.556 146.246 165.01L153.762 169.466C154.361 169.821 155.028 170.045 155.719 170.124C156.411 170.204 157.111 170.137 157.775 169.928C158.438 169.718 159.05 169.372 159.571 168.91C160.092 168.449 160.509 167.882 160.797 167.249L162.719 163.001C163.217 161.904 164.098 161.026 165.197 160.532C166.295 160.037 167.537 159.96 168.688 160.315L170.603 160.898C171.393 161.142 172.231 161.183 173.041 161.019C173.851 160.856 174.607 160.491 175.24 159.96C175.873 159.429 176.363 158.747 176.665 157.978C176.966 157.209 177.071 156.376 176.968 155.556C176.815 154.313 177.137 153.059 177.87 152.044C178.603 151.029 179.693 150.329 180.921 150.084L181.554 149.962C182.279 149.823 182.963 149.524 183.557 149.087C184.151 148.651 184.64 148.087 184.989 147.437C185.337 146.787 185.536 146.067 185.571 145.331C185.606 144.594 185.476 143.859 185.19 143.179Z" fill="black"/>
<path opacity="0.1" d="M136.72 60.0627L141.04 50.2275H146.44L153.597 66.8955L176.982 123.365C176.87 123.959 176.574 124.502 176.136 124.918C175.698 125.334 175.14 125.602 174.542 125.684C173.593 125.84 172.74 126.356 172.161 127.124C171.582 127.892 171.32 128.854 171.431 129.809L171.511 130.529C171.586 131.167 171.496 131.814 171.248 132.407C171.001 133 170.604 133.519 170.098 133.914C169.591 134.31 168.991 134.567 168.356 134.663C167.72 134.759 167.071 134.689 166.471 134.46L164.555 133.74C163.661 133.4 162.67 133.414 161.787 133.781C160.903 134.148 160.193 134.839 159.803 135.713L157.427 141.048C157.21 141.531 156.894 141.962 156.499 142.314C156.104 142.665 155.639 142.93 155.135 143.089C154.63 143.249 154.098 143.3 153.572 143.24C153.047 143.18 152.54 143.01 152.085 142.74L145.662 138.42C145.082 138.074 144.419 137.891 143.744 137.891C143.068 137.891 142.405 138.074 141.825 138.42L134.661 142.74C134.206 143.01 133.699 143.18 133.173 143.24C132.648 143.3 132.115 143.249 131.611 143.089C131.107 142.93 130.642 142.665 130.247 142.314C129.852 141.962 129.536 141.531 129.318 141.048L126.942 135.713C126.553 134.839 125.843 134.148 124.959 133.781C124.075 133.414 123.085 133.4 122.191 133.74L120.275 134.46C119.675 134.687 119.026 134.755 118.392 134.658C117.757 134.562 117.158 134.304 116.652 133.909C116.146 133.514 115.75 132.996 115.502 132.404C115.254 131.812 115.162 131.167 115.235 130.529L115.322 129.809C115.433 128.854 115.171 127.892 114.592 127.124C114.013 126.356 113.16 125.84 112.211 125.684C111.783 125.627 111.373 125.473 111.014 125.234C110.654 124.994 110.354 124.675 110.138 124.301L136.72 60.0627Z" fill="black"/>
<path d="M176.551 115.978L146.448 45.8711H141.048L110.16 115.978C109.051 118.231 109.684 120.917 112.168 121.327C113.118 121.483 113.97 121.999 114.549 122.767C115.128 123.536 115.39 124.497 115.279 125.453L115.192 126.173C115.12 126.81 115.212 127.456 115.46 128.048C115.708 128.64 116.104 129.158 116.61 129.553C117.115 129.948 117.714 130.207 118.348 130.305C118.982 130.402 119.631 130.336 120.232 130.111L122.148 129.391C123.042 129.05 124.032 129.065 124.916 129.432C125.8 129.799 126.51 130.49 126.9 131.364L129.276 136.699C129.491 137.183 129.806 137.616 130.201 137.969C130.596 138.322 131.061 138.587 131.566 138.747C132.071 138.907 132.604 138.958 133.13 138.897C133.656 138.835 134.163 138.663 134.618 138.391L141.782 134.114C142.362 133.768 143.025 133.585 143.701 133.585C144.376 133.585 145.039 133.768 145.62 134.114L152.042 138.391C152.497 138.663 153.004 138.835 153.53 138.897C154.056 138.958 154.589 138.907 155.094 138.747C155.599 138.587 156.064 138.322 156.459 137.969C156.854 137.616 157.169 137.183 157.384 136.699L159.76 131.364C160.15 130.49 160.86 129.799 161.744 129.432C162.628 129.065 163.618 129.05 164.512 129.391L166.428 130.111C167.029 130.338 167.678 130.406 168.313 130.309C168.948 130.212 169.548 129.954 170.054 129.558C170.561 129.163 170.956 128.643 171.204 128.05C171.451 127.457 171.542 126.811 171.468 126.173L171.388 125.453C171.277 124.496 171.538 123.534 172.117 122.764C172.696 121.995 173.549 121.478 174.499 121.32C177.033 120.917 177.667 118.231 176.551 115.978Z" fill="#0A7EEA"/>
<path opacity="0.2" d="M176.551 115.978L146.448 45.8711H141.048L110.16 115.978C109.051 118.231 109.684 120.917 112.168 121.327C113.118 121.483 113.97 121.999 114.549 122.767C115.128 123.536 115.39 124.497 115.279 125.453L115.192 126.173C115.12 126.81 115.212 127.456 115.46 128.048C115.708 128.64 116.104 129.158 116.61 129.553C117.115 129.948 117.714 130.207 118.348 130.305C118.982 130.402 119.631 130.336 120.232 130.111L122.148 129.391C123.042 129.05 124.032 129.065 124.916 129.432C125.8 129.799 126.51 130.49 126.9 131.364L129.276 136.699C129.491 137.183 129.806 137.616 130.201 137.969C130.596 138.322 131.061 138.587 131.566 138.747C132.071 138.907 132.604 138.958 133.13 138.897C133.656 138.835 134.163 138.663 134.618 138.391L141.782 134.114C142.362 133.768 143.025 133.585 143.701 133.585C144.376 133.585 145.039 133.768 145.62 134.114L152.042 138.391C152.497 138.663 153.004 138.835 153.53 138.897C154.056 138.958 154.589 138.907 155.094 138.747C155.599 138.587 156.064 138.322 156.459 137.969C156.854 137.616 157.169 137.183 157.384 136.699L159.76 131.364C160.15 130.49 160.86 129.799 161.744 129.432C162.628 129.065 163.618 129.05 164.512 129.391L166.428 130.111C167.029 130.338 167.678 130.406 168.313 130.309C168.948 130.212 169.548 129.954 170.054 129.558C170.561 129.163 170.956 128.643 171.204 128.05C171.451 127.457 171.542 126.811 171.468 126.173L171.388 125.453C171.277 124.496 171.538 123.534 172.117 122.764C172.696 121.995 173.549 121.478 174.499 121.32C177.033 120.917 177.667 118.231 176.551 115.978Z" fill="black"/>
<path opacity="0.1" d="M141.048 45.8711H146.448L168.387 96.9551C168.217 97.1048 168.031 97.2352 167.832 97.3439L167.667 97.4375C167.102 97.7568 166.641 98.2308 166.338 98.8036C166.034 99.3764 165.9 100.024 165.953 100.67C166 101.209 165.916 101.751 165.71 102.251C165.503 102.75 165.179 103.193 164.765 103.541C164.352 103.889 163.86 104.132 163.332 104.251C162.805 104.369 162.256 104.358 161.734 104.22L160.423 103.874C159.69 103.681 158.913 103.741 158.218 104.044C157.523 104.347 156.95 104.876 156.593 105.545L154.8 108.893C154.378 109.674 153.667 110.258 152.818 110.52C151.97 110.781 151.052 110.698 150.264 110.289L145.311 107.697C144.828 107.446 144.292 107.314 143.748 107.314C143.204 107.314 142.668 107.446 142.186 107.697L137.232 110.289C136.444 110.698 135.527 110.781 134.678 110.52C133.83 110.258 133.118 109.674 132.696 108.893L130.903 105.545C130.545 104.875 129.971 104.346 129.275 104.043C128.578 103.74 127.8 103.681 127.066 103.874L125.763 104.22C125.24 104.358 124.692 104.369 124.164 104.251C123.636 104.132 123.145 103.889 122.731 103.541C122.317 103.193 121.993 102.75 121.787 102.251C121.58 101.751 121.496 101.209 121.543 100.67C121.597 100.025 121.464 99.3777 121.16 98.8058C120.856 98.2339 120.395 97.7614 119.83 97.4447L119.664 97.3511C119.31 97.1473 118.995 96.8815 118.735 96.5663L141.048 45.8711Z" fill="black"/>
<path d="M169.055 88.4015L146.425 40.8311L146.245 40.5431C145.993 40.1033 145.629 39.7378 145.191 39.4837C144.752 39.2295 144.254 39.0957 143.747 39.0957C143.24 39.0957 142.742 39.2295 142.303 39.4837C141.864 39.7378 141.501 40.1033 141.248 40.5431L141.068 40.8383L118.439 88.4015C118.199 88.7887 118.041 89.2205 117.972 89.6707C117.904 90.121 117.928 90.5804 118.043 91.0212C118.157 91.4619 118.36 91.8749 118.638 92.2353C118.917 92.5956 119.265 92.8957 119.663 93.1175L119.828 93.2111C120.393 93.5285 120.854 94.0011 121.158 94.5728C121.462 95.1446 121.595 95.7914 121.542 96.4367C121.495 96.9754 121.579 97.5174 121.785 98.0171C121.992 98.5167 122.316 98.9593 122.73 99.3074C123.143 99.6555 123.635 99.8989 124.163 100.017C124.69 100.135 125.239 100.125 125.761 99.9863L127.064 99.6407C127.799 99.4483 128.576 99.5085 129.272 99.8114C129.968 100.114 130.542 100.643 130.902 101.311L132.695 104.659C133.115 105.442 133.827 106.027 134.676 106.289C135.525 106.55 136.443 106.467 137.231 106.056L142.184 103.471C142.667 103.219 143.203 103.088 143.747 103.088C144.291 103.088 144.827 103.219 145.309 103.471L150.263 106.056C151.051 106.467 151.969 106.55 152.818 106.289C153.667 106.027 154.379 105.442 154.799 104.659L156.592 101.311C156.95 100.643 157.523 100.115 158.217 99.8122C158.912 99.5092 159.689 99.4488 160.422 99.6407L161.732 99.9863C162.255 100.125 162.803 100.135 163.331 100.017C163.859 99.8989 164.35 99.6555 164.764 99.3074C165.178 98.9593 165.502 98.5167 165.708 98.0171C165.915 97.5174 165.999 96.9754 165.952 96.4367C165.899 95.7914 166.032 95.1446 166.336 94.5728C166.64 94.0011 167.101 93.5285 167.665 93.2111L167.831 93.1175C168.229 92.8957 168.577 92.5956 168.856 92.2353C169.134 91.8749 169.337 91.4619 169.451 91.0212C169.565 90.5804 169.589 90.121 169.521 89.6707C169.453 89.2205 169.294 88.7887 169.055 88.4015Z" fill="#0A7EEA"/>
<path opacity="0.1" d="M169.055 88.4015L146.425 40.8311L146.245 40.5431C145.993 40.1033 145.629 39.7378 145.191 39.4837C144.752 39.2295 144.254 39.0957 143.747 39.0957C143.24 39.0957 142.742 39.2295 142.303 39.4837C141.864 39.7378 141.501 40.1033 141.248 40.5431L141.068 40.8383L118.439 88.4015C118.199 88.7887 118.041 89.2205 117.972 89.6707C117.904 90.121 117.928 90.5804 118.043 91.0212C118.157 91.4619 118.36 91.8749 118.638 92.2353C118.917 92.5956 119.265 92.8957 119.663 93.1175L119.828 93.2111C120.393 93.5285 120.854 94.0011 121.158 94.5728C121.462 95.1446 121.595 95.7914 121.542 96.4367C121.495 96.9754 121.579 97.5174 121.785 98.0171C121.992 98.5167 122.316 98.9593 122.73 99.3074C123.143 99.6555 123.635 99.8989 124.163 100.017C124.69 100.135 125.239 100.125 125.761 99.9863L127.064 99.6407C127.799 99.4483 128.576 99.5085 129.272 99.8114C129.968 100.114 130.542 100.643 130.902 101.311L132.695 104.659C133.115 105.442 133.827 106.027 134.676 106.289C135.525 106.55 136.443 106.467 137.231 106.056L142.184 103.471C142.667 103.219 143.203 103.088 143.747 103.088C144.291 103.088 144.827 103.219 145.309 103.471L150.263 106.056C151.051 106.467 151.969 106.55 152.818 106.289C153.667 106.027 154.379 105.442 154.799 104.659L156.592 101.311C156.95 100.643 157.523 100.115 158.217 99.8122C158.912 99.5092 159.689 99.4488 160.422 99.6407L161.732 99.9863C162.255 100.125 162.803 100.135 163.331 100.017C163.859 99.8989 164.35 99.6555 164.764 99.3074C165.178 98.9593 165.502 98.5167 165.708 98.0171C165.915 97.5174 165.999 96.9754 165.952 96.4367C165.899 95.7914 166.032 95.1446 166.336 94.5728C166.64 94.0011 167.101 93.5285 167.665 93.2111L167.831 93.1175C168.229 92.8957 168.577 92.5956 168.856 92.2353C169.134 91.8749 169.337 91.4619 169.451 91.0212C169.565 90.5804 169.589 90.121 169.521 89.6707C169.453 89.2205 169.294 88.7887 169.055 88.4015Z" fill="black"/>
<path d="M140.731 182.75C140.688 181.76 140.265 180.825 139.549 180.14C138.834 179.454 137.881 179.072 136.89 179.072C135.899 179.072 134.946 179.454 134.231 180.14C133.515 180.825 133.092 181.76 133.049 182.75V182.966C133.106 183.279 133.237 183.574 133.433 183.825C133.629 184.075 133.882 184.275 134.172 184.406C135.015 184.832 135.946 185.054 136.89 185.054C137.834 185.054 138.765 184.832 139.608 184.406C139.897 184.274 140.15 184.074 140.346 183.823C140.541 183.573 140.673 183.279 140.731 182.966V182.75Z" fill="#37474F"/>
<path d="M139.607 184.429C139.896 184.297 140.149 184.097 140.345 183.846C140.54 183.595 140.673 183.301 140.731 182.989V182.773C140.711 182.102 140.517 181.447 140.165 180.875C139.814 180.302 139.319 179.832 138.729 179.511C138.729 179.554 140.644 181.923 139.247 183.507C138.283 184.602 134.927 184.803 133.487 183.939C133.679 184.144 133.903 184.317 134.15 184.45C134.997 184.876 135.933 185.097 136.881 185.093C137.829 185.089 138.763 184.862 139.607 184.429Z" fill="#263238"/>
<path d="M134.516 184.687C134.481 183.993 134.179 183.338 133.675 182.859C133.17 182.38 132.501 182.113 131.806 182.113C131.11 182.113 130.441 182.38 129.936 182.859C129.432 183.338 129.131 183.993 129.095 184.687V184.839C129.133 185.062 129.225 185.272 129.363 185.452C129.501 185.631 129.681 185.774 129.887 185.868C130.481 186.17 131.139 186.327 131.806 186.327C132.472 186.327 133.13 186.17 133.724 185.868C133.93 185.774 134.11 185.631 134.248 185.452C134.386 185.272 134.478 185.062 134.516 184.839C134.52 184.812 134.52 184.786 134.516 184.759C134.52 184.736 134.52 184.711 134.516 184.687Z" fill="#455A64"/>
<path d="M133.725 185.868C133.931 185.774 134.111 185.631 134.249 185.451C134.387 185.272 134.479 185.061 134.517 184.838C134.521 184.812 134.521 184.785 134.517 184.759C134.521 184.735 134.521 184.711 134.517 184.687C134.509 184.379 134.448 184.074 134.337 183.787C134.402 184.946 133.855 185.652 132.141 185.875C130.427 186.098 129.304 185.364 129.16 185.098C129.302 185.431 129.557 185.704 129.88 185.868C130.476 186.171 131.134 186.329 131.803 186.329C132.471 186.329 133.129 186.171 133.725 185.868Z" fill="#37474F"/>
<path d="M154.41 181.973C154.375 181.284 154.076 180.635 153.575 180.16C153.075 179.684 152.411 179.419 151.721 179.419C151.031 179.419 150.367 179.684 149.867 180.16C149.367 180.635 149.068 181.284 149.032 181.973C149.028 181.997 149.028 182.021 149.032 182.045C149.028 182.071 149.028 182.098 149.032 182.124C149.067 182.346 149.158 182.556 149.295 182.735C149.432 182.913 149.611 183.055 149.817 183.147C150.407 183.445 151.06 183.6 151.721 183.6C152.383 183.6 153.035 183.445 153.626 183.147C153.83 183.053 154.008 182.911 154.145 182.733C154.282 182.555 154.373 182.346 154.41 182.124V181.973Z" fill="#455A64"/>
<path d="M153.626 183.146C153.83 183.053 154.009 182.911 154.145 182.732C154.282 182.554 154.373 182.345 154.411 182.124V181.972C154.404 181.667 154.343 181.364 154.231 181.08C154.295 182.232 153.748 182.93 152.071 183.146C150.393 183.362 149.255 182.642 149.111 182.383C149.256 182.713 149.51 182.983 149.831 183.146C150.42 183.442 151.07 183.596 151.729 183.596C152.387 183.596 153.037 183.442 153.626 183.146Z" fill="#37474F"/>
<path d="M75.9578 173.931V257.155C75.9578 258.156 75.2954 259.157 73.9778 259.92C72.4955 260.669 70.8578 261.06 69.197 261.06C67.5361 261.06 65.8985 260.669 64.4162 259.92C63.0986 259.157 62.4434 258.156 62.4434 257.155V173.931H75.9578Z" fill="#B16668"/>
<path d="M24.413 217.008L66.281 115.92H72.113L113.988 217.051C114.291 217.782 114.428 218.571 114.388 219.361C114.349 220.152 114.136 220.923 113.762 221.621C113.389 222.319 112.866 222.925 112.23 223.396C111.594 223.867 110.862 224.191 110.086 224.345L109.366 224.482C108.039 224.746 106.862 225.502 106.07 226.599C105.278 227.695 104.93 229.05 105.096 230.393C105.204 231.278 105.089 232.176 104.761 233.006C104.433 233.835 103.903 234.57 103.219 235.142C102.535 235.715 101.719 236.107 100.844 236.283C99.9701 236.46 99.0655 236.415 98.213 236.153L96.1466 235.519C94.9011 235.125 93.5546 235.201 92.3609 235.731C91.1672 236.262 90.2088 237.211 89.6666 238.399L87.5858 242.993C87.2752 243.678 86.8236 244.289 86.2606 244.788C85.6976 245.287 85.0357 245.661 84.3182 245.887C83.6008 246.112 82.8438 246.184 82.0967 246.097C81.3497 246.01 80.6293 245.767 79.9826 245.383L71.9258 240.566C71.0991 240.079 70.1568 239.822 69.197 239.822C68.2372 239.822 67.2949 240.079 66.4682 240.566L58.3178 245.383C57.6711 245.767 56.9507 246.01 56.2037 246.097C55.4566 246.184 54.6996 246.112 53.9822 245.887C53.2647 245.661 52.6028 245.287 52.0398 244.788C51.4768 244.289 51.0252 243.678 50.7146 242.993L48.6338 238.399C48.0916 237.211 47.1332 236.262 45.9395 235.731C44.7458 235.201 43.3993 235.125 42.1538 235.519L40.0802 236.153C39.2277 236.415 38.3231 236.46 37.4488 236.283C36.5745 236.107 35.7582 235.715 35.0742 235.142C34.3902 234.57 33.8601 233.835 33.5322 233.006C33.2044 232.176 33.0892 231.278 33.197 230.393C33.3668 229.051 33.0213 227.695 32.2302 226.598C31.4391 225.5 30.2614 224.744 28.9346 224.482L28.2146 224.345C27.442 224.18 26.7154 223.846 26.0872 223.367C25.459 222.888 24.9447 222.276 24.5812 221.574C24.2177 220.873 24.0142 220.099 23.9851 219.31C23.956 218.52 24.1021 217.734 24.413 217.008Z" fill="#0A7EEA"/>
<path opacity="0.3" d="M24.413 217.008L66.281 115.92H72.113L113.988 217.051C114.291 217.782 114.428 218.571 114.388 219.361C114.349 220.152 114.136 220.923 113.762 221.621C113.389 222.319 112.866 222.925 112.23 223.396C111.594 223.867 110.862 224.191 110.086 224.345L109.366 224.482C108.039 224.746 106.862 225.502 106.07 226.599C105.278 227.695 104.93 229.05 105.096 230.393C105.204 231.278 105.089 232.176 104.761 233.006C104.433 233.835 103.903 234.57 103.219 235.142C102.535 235.715 101.719 236.107 100.844 236.283C99.9701 236.46 99.0655 236.415 98.213 236.153L96.1466 235.519C94.9011 235.125 93.5546 235.201 92.3609 235.731C91.1672 236.262 90.2088 237.211 89.6666 238.399L87.5858 242.993C87.2752 243.678 86.8236 244.289 86.2606 244.788C85.6976 245.287 85.0357 245.661 84.3182 245.887C83.6008 246.112 82.8438 246.184 82.0967 246.097C81.3497 246.01 80.6293 245.767 79.9826 245.383L71.9258 240.566C71.0991 240.079 70.1568 239.822 69.197 239.822C68.2372 239.822 67.2949 240.079 66.4682 240.566L58.3178 245.383C57.6711 245.767 56.9507 246.01 56.2037 246.097C55.4566 246.184 54.6996 246.112 53.9822 245.887C53.2647 245.661 52.6028 245.287 52.0398 244.788C51.4768 244.289 51.0252 243.678 50.7146 242.993L48.6338 238.399C48.0916 237.211 47.1332 236.262 45.9395 235.731C44.7458 235.201 43.3993 235.125 42.1538 235.519L40.0802 236.153C39.2277 236.415 38.3231 236.46 37.4488 236.283C36.5745 236.107 35.7582 235.715 35.0742 235.142C34.3902 234.57 33.8601 233.835 33.5322 233.006C33.2044 232.176 33.0892 231.278 33.197 230.393C33.3668 229.051 33.0213 227.695 32.2302 226.598C31.4391 225.5 30.2614 224.744 28.9346 224.482L28.2146 224.345C27.442 224.18 26.7154 223.846 26.0872 223.367C25.459 222.888 24.9447 222.276 24.5812 221.574C24.2177 220.873 24.0142 220.099 23.9851 219.31C23.956 218.52 24.1021 217.734 24.413 217.008Z" fill="black"/>
<path opacity="0.1" d="M76.7922 127.18L72.1122 116.553H66.2802L58.5474 134.553L33.2754 195.58C33.3976 196.22 33.7177 196.806 34.1905 197.254C34.6634 197.702 35.265 197.991 35.9106 198.079C36.9368 198.249 37.8582 198.808 38.484 199.639C39.1099 200.47 39.3924 201.509 39.273 202.543L39.1866 203.32C39.1066 204.011 39.2057 204.71 39.4744 205.351C39.7431 205.992 40.1723 206.552 40.7207 206.979C41.269 207.406 41.9181 207.685 42.6053 207.788C43.2925 207.891 43.9947 207.815 44.6442 207.568L46.7106 206.776C47.6811 206.41 48.7551 206.43 49.7114 206.832C50.6677 207.234 51.4336 207.987 51.8514 208.936L54.4146 214.696C54.6465 215.218 54.9865 215.685 55.412 216.066C55.8376 216.447 56.3391 216.733 56.8834 216.906C57.4277 217.079 58.0025 217.134 58.5698 217.069C59.1371 217.003 59.6841 216.818 60.1746 216.525L67.1226 211.903C67.7482 211.529 68.4636 211.331 69.1926 211.331C69.9216 211.331 70.637 211.529 71.2626 211.903L79.017 216.525C79.5078 216.817 80.0546 217.001 80.6217 217.066C81.1887 217.131 81.7631 217.075 82.3071 216.902C82.8511 216.73 83.3524 216.444 83.7781 216.064C84.2037 215.683 84.5442 215.218 84.777 214.696L87.3402 208.936C87.758 207.987 88.5239 207.234 89.4802 206.832C90.4365 206.43 91.5105 206.41 92.481 206.776L94.5474 207.568C95.1969 207.815 95.8991 207.891 96.5863 207.788C97.2735 207.685 97.9225 207.406 98.4709 206.979C99.0193 206.552 99.4485 205.992 99.7172 205.351C99.9859 204.71 100.085 204.011 100.005 203.32L99.9186 202.543C99.7992 201.509 100.082 200.47 100.708 199.639C101.333 198.808 102.255 198.249 103.281 198.079C103.744 198.019 104.186 197.853 104.575 197.595C104.963 197.336 105.286 196.992 105.52 196.588L76.7922 127.18Z" fill="black"/>
<path d="M33.7437 187.603L66.2805 111.845H72.1125L105.463 187.603C106.658 190.044 105.974 192.946 103.303 193.363C102.277 193.534 101.355 194.092 100.729 194.923C100.104 195.754 99.8211 196.794 99.9405 197.827L100.027 198.598C100.107 199.288 100.008 199.987 99.7391 200.628C99.4704 201.269 99.0412 201.83 98.4928 202.256C97.9445 202.683 97.2954 202.962 96.6082 203.065C95.921 203.168 95.2189 203.093 94.5693 202.846L92.5029 202.061C91.5324 201.695 90.4584 201.715 89.5021 202.116C88.5458 202.518 87.7799 203.271 87.3621 204.221L84.7989 209.981C84.5652 210.501 84.2243 210.966 83.7985 211.346C83.3727 211.725 82.8716 212.011 82.3279 212.183C81.7842 212.356 81.2103 212.412 80.6435 212.347C80.0768 212.283 79.53 212.1 79.0389 211.81L71.2773 207.18C70.6517 206.806 69.9363 206.608 69.2073 206.608C68.4783 206.608 67.7629 206.806 67.1373 207.18L60.1893 211.81C59.6983 212.1 59.1515 212.283 58.5847 212.347C58.018 212.412 57.444 212.356 56.9003 212.183C56.3567 212.011 55.8556 211.725 55.4298 211.346C55.004 210.966 54.663 210.501 54.4293 209.981L51.8661 204.221C51.4483 203.271 50.6824 202.518 49.7261 202.116C48.7698 201.715 47.6959 201.695 46.7253 202.061L44.6373 202.867C43.9878 203.114 43.2856 203.19 42.5984 203.086C41.9112 202.983 41.2622 202.705 40.7138 202.278C40.1654 201.851 39.7362 201.29 39.4675 200.65C39.1989 200.009 39.0997 199.309 39.1797 198.619L39.2661 197.842C39.3853 196.809 39.1027 195.77 38.4766 194.94C37.8506 194.111 36.9293 193.554 35.9037 193.385C33.2325 192.96 32.5413 190.037 33.7437 187.603Z" fill="#0A7EEA"/>
<path opacity="0.2" d="M33.7437 187.603L66.2805 111.845H72.1125L105.463 187.603C106.658 190.044 105.974 192.946 103.303 193.363C102.277 193.534 101.355 194.092 100.729 194.923C100.104 195.754 99.8211 196.794 99.9405 197.827L100.027 198.598C100.107 199.288 100.008 199.987 99.7391 200.628C99.4704 201.269 99.0412 201.83 98.4928 202.256C97.9445 202.683 97.2954 202.962 96.6082 203.065C95.921 203.168 95.2189 203.093 94.5693 202.846L92.5029 202.061C91.5324 201.695 90.4584 201.715 89.5021 202.116C88.5458 202.518 87.7799 203.271 87.3621 204.221L84.7989 209.981C84.5652 210.501 84.2243 210.966 83.7985 211.346C83.3727 211.725 82.8716 212.011 82.3279 212.183C81.7842 212.356 81.2103 212.412 80.6435 212.347C80.0768 212.283 79.53 212.1 79.0389 211.81L71.2773 207.18C70.6517 206.806 69.9363 206.608 69.2073 206.608C68.4783 206.608 67.7629 206.806 67.1373 207.18L60.1893 211.81C59.6983 212.1 59.1515 212.283 58.5847 212.347C58.018 212.412 57.444 212.356 56.9003 212.183C56.3567 212.011 55.8556 211.725 55.4298 211.346C55.004 210.966 54.663 210.501 54.4293 209.981L51.8661 204.221C51.4483 203.271 50.6824 202.518 49.7261 202.116C48.7698 201.715 47.6959 201.695 46.7253 202.061L44.6373 202.867C43.9878 203.114 43.2856 203.19 42.5984 203.086C41.9112 202.983 41.2622 202.705 40.7138 202.278C40.1654 201.851 39.7362 201.29 39.4675 200.65C39.1989 200.009 39.0997 199.309 39.1797 198.619L39.2661 197.842C39.3853 196.809 39.1027 195.77 38.4766 194.94C37.8506 194.111 36.9293 193.554 35.9037 193.385C33.2325 192.96 32.5413 190.037 33.7437 187.603Z" fill="black"/>
<path opacity="0.1" d="M72.1129 111.845H66.2809L42.5713 167.04C42.7556 167.199 42.9559 167.339 43.1689 167.458L43.3489 167.558C43.9606 167.901 44.4605 168.412 44.7887 169.032C45.1169 169.651 45.2595 170.352 45.1993 171.05C45.1502 171.633 45.2415 172.218 45.4657 172.758C45.6899 173.297 46.0404 173.775 46.4877 174.151C46.935 174.528 47.4661 174.791 48.0362 174.919C48.6063 175.047 49.1989 175.036 49.7641 174.888L51.2041 174.514C51.996 174.303 52.8358 174.366 53.5873 174.693C54.3387 175.02 54.9578 175.591 55.3441 176.314L57.2881 179.914C57.7406 180.76 58.5091 181.392 59.4261 181.674C60.3432 181.956 61.3346 181.864 62.1841 181.418L67.5409 178.625C68.0608 178.349 68.6406 178.204 69.2293 178.204C69.818 178.204 70.3977 178.349 70.9177 178.625L76.2673 181.418C77.1183 181.863 78.11 181.954 79.0277 181.672C79.9454 181.39 80.7152 180.759 81.1705 179.914L83.1073 176.314C83.4958 175.591 84.1163 175.021 84.8687 174.694C85.6211 174.368 86.4615 174.304 87.2545 174.514L88.6945 174.888C89.2593 175.037 89.8517 175.048 90.4216 174.919C90.9915 174.791 91.5223 174.528 91.9691 174.152C92.4159 173.776 92.7657 173.297 92.989 172.758C93.2123 172.218 93.3025 171.632 93.2521 171.05C93.1942 170.353 93.3379 169.654 93.6659 169.036C93.9939 168.419 94.4926 167.908 95.1025 167.566L95.2897 167.458C95.6718 167.243 96.0091 166.957 96.2833 166.615L72.1129 111.845Z" fill="black"/>
<path d="M41.8513 157.81L66.3313 106.402L66.5185 106.092C66.7906 105.616 67.1837 105.221 67.6578 104.946C68.1319 104.671 68.6704 104.526 69.2185 104.526C69.7666 104.526 70.305 104.671 70.7792 104.946C71.2533 105.221 71.6464 105.616 71.9185 106.092L72.1201 106.409L96.6001 157.81C96.8582 158.228 97.029 158.695 97.1024 159.181C97.1758 159.667 97.1502 160.163 97.0272 160.639C96.9041 161.115 96.6861 161.562 96.3863 161.951C96.0865 162.341 95.7111 162.666 95.2825 162.907L95.0953 163.008C94.4854 163.351 93.9868 163.861 93.6587 164.479C93.3307 165.097 93.187 165.796 93.2449 166.493C93.2953 167.075 93.2051 167.66 92.9818 168.2C92.7585 168.74 92.4087 169.218 91.9619 169.594C91.515 169.971 90.9843 170.234 90.4144 170.362C89.8445 170.49 89.2521 170.479 88.6873 170.33L87.2473 169.956C86.4543 169.747 85.6139 169.81 84.8615 170.137C84.1091 170.463 83.4886 171.034 83.1001 171.756L81.1633 175.356C80.708 176.201 79.9382 176.833 79.0205 177.115C78.1028 177.396 77.1111 177.305 76.2601 176.861L70.9105 174.067C70.3905 173.791 69.8108 173.647 69.2221 173.647C68.6334 173.647 68.0536 173.791 67.5337 174.067L62.1769 176.861C61.3274 177.307 60.336 177.399 59.4189 177.117C58.5019 176.835 57.7334 176.202 57.2809 175.356L55.3369 171.756C54.9506 171.033 54.3315 170.462 53.5801 170.136C52.8286 169.809 51.9888 169.746 51.1969 169.956L49.7569 170.33C49.1917 170.479 48.5991 170.49 48.029 170.361C47.4589 170.233 46.9278 169.97 46.4805 169.594C46.0332 169.218 45.6827 168.74 45.4585 168.2C45.2343 167.661 45.143 167.075 45.1921 166.493C45.2564 165.795 45.1155 165.093 44.7868 164.474C44.4581 163.855 43.9559 163.346 43.3417 163.008L43.1617 162.9C42.7339 162.659 42.3593 162.334 42.0603 161.945C41.7613 161.555 41.5441 161.11 41.4217 160.634C41.2993 160.159 41.2742 159.663 41.3481 159.178C41.4219 158.693 41.5931 158.227 41.8513 157.81Z" fill="#0A7EEA"/>
<path opacity="0.1" d="M41.8513 157.81L66.3313 106.402L66.5185 106.092C66.7906 105.616 67.1837 105.221 67.6578 104.946C68.1319 104.671 68.6704 104.526 69.2185 104.526C69.7666 104.526 70.305 104.671 70.7792 104.946C71.2533 105.221 71.6464 105.616 71.9185 106.092L72.1201 106.409L96.6001 157.81C96.8582 158.228 97.029 158.695 97.1024 159.181C97.1758 159.667 97.1502 160.163 97.0272 160.639C96.9041 161.115 96.6861 161.562 96.3863 161.951C96.0865 162.341 95.7111 162.666 95.2825 162.907L95.0953 163.008C94.4854 163.351 93.9868 163.861 93.6587 164.479C93.3307 165.097 93.187 165.796 93.2449 166.493C93.2953 167.075 93.2051 167.66 92.9818 168.2C92.7585 168.74 92.4087 169.218 91.9619 169.594C91.515 169.971 90.9843 170.234 90.4144 170.362C89.8445 170.49 89.2521 170.479 88.6873 170.33L87.2473 169.956C86.4543 169.747 85.6139 169.81 84.8615 170.137C84.1091 170.463 83.4886 171.034 83.1001 171.756L81.1633 175.356C80.708 176.201 79.9382 176.833 79.0205 177.115C78.1028 177.396 77.1111 177.305 76.2601 176.861L70.9105 174.067C70.3905 173.791 69.8108 173.647 69.2221 173.647C68.6334 173.647 68.0536 173.791 67.5337 174.067L62.1769 176.861C61.3274 177.307 60.336 177.399 59.4189 177.117C58.5019 176.835 57.7334 176.202 57.2809 175.356L55.3369 171.756C54.9506 171.033 54.3315 170.462 53.5801 170.136C52.8286 169.809 51.9888 169.746 51.1969 169.956L49.7569 170.33C49.1917 170.479 48.5991 170.49 48.029 170.361C47.4589 170.233 46.9278 169.97 46.4805 169.594C46.0332 169.218 45.6827 168.74 45.4585 168.2C45.2343 167.661 45.143 167.075 45.1921 166.493C45.2564 165.795 45.1155 165.093 44.7868 164.474C44.4581 163.855 43.9559 163.346 43.3417 163.008L43.1617 162.9C42.7339 162.659 42.3593 162.334 42.0603 161.945C41.7613 161.555 41.5441 161.11 41.4217 160.634C41.2993 160.159 41.2742 159.663 41.3481 159.178C41.4219 158.693 41.5931 158.227 41.8513 157.81Z" fill="black"/>
<path d="M72.458 259.769C72.5026 258.698 72.9594 257.686 73.733 256.944C74.5065 256.202 75.5369 255.788 76.6088 255.788C77.6807 255.788 78.7111 256.202 79.4846 256.944C80.2582 257.686 80.715 258.698 80.7596 259.769V259.999C80.7 260.341 80.559 260.664 80.3484 260.939C80.1379 261.215 79.864 261.436 79.55 261.583C78.64 262.046 77.6334 262.288 76.6124 262.288C75.5914 262.288 74.5849 262.046 73.6748 261.583C73.3595 261.437 73.0842 261.216 72.8723 260.941C72.6605 260.665 72.5183 260.342 72.458 259.999V259.769Z" fill="#37474F"/>
<path d="M73.6748 261.584C73.3595 261.437 73.0842 261.217 72.8723 260.941C72.6605 260.665 72.5183 260.342 72.458 260V259.769C72.479 259.045 72.6895 258.339 73.0685 257.721C73.4475 257.103 73.9817 256.595 74.618 256.249C74.618 256.285 72.5516 258.848 74.0636 260.569C75.1076 261.749 78.6932 261.965 80.2628 261.037C80.0483 261.252 79.8062 261.439 79.5428 261.591C78.6331 262.051 77.6276 262.291 76.6079 262.29C75.5883 262.288 74.5834 262.047 73.6748 261.584Z" fill="#263238"/>
<path d="M79.1973 261.857C79.1973 261.08 79.506 260.335 80.0556 259.785C80.6051 259.235 81.3505 258.927 82.1277 258.927C82.9049 258.927 83.6502 259.235 84.1998 259.785C84.7493 260.335 85.0581 261.08 85.0581 261.857C85.0613 261.883 85.0613 261.91 85.0581 261.936C85.0616 261.965 85.0616 261.994 85.0581 262.023C85.0182 262.265 84.9191 262.494 84.7696 262.688C84.6202 262.883 84.4249 263.038 84.2013 263.139C83.5588 263.465 82.8483 263.635 82.1277 263.635C81.407 263.635 80.6966 263.465 80.0541 263.139C79.8322 263.035 79.6385 262.88 79.4894 262.685C79.3403 262.491 79.2401 262.264 79.1973 262.023V261.857Z" fill="#455A64"/>
<path d="M80.0257 263.138C79.8039 263.035 79.6102 262.879 79.4611 262.685C79.312 262.491 79.2118 262.263 79.1689 262.022V261.857C79.1802 261.524 79.2484 261.195 79.3705 260.885C79.2985 262.145 79.8889 262.901 81.7465 263.138C83.6041 263.376 84.8065 262.591 84.9649 262.303C84.8077 262.666 84.5272 262.962 84.1729 263.138C83.5304 263.465 82.82 263.635 82.0993 263.635C81.3787 263.635 80.6683 263.465 80.0257 263.138Z" fill="#37474F"/>
<path d="M57.6761 258.926C57.6761 258.156 57.9822 257.417 58.5271 256.872C59.0719 256.327 59.8108 256.021 60.5813 256.021C61.3518 256.021 62.0908 256.327 62.6356 256.872C63.1805 257.417 63.4865 258.156 63.4865 258.926C63.4961 258.979 63.4961 259.032 63.4865 259.085C63.4507 259.326 63.3538 259.555 63.2052 259.749C63.0566 259.943 62.861 260.096 62.6369 260.193C61.9999 260.517 61.2957 260.685 60.5813 260.685C59.867 260.685 59.1628 260.517 58.5257 260.193C58.3043 260.092 58.1111 259.938 57.963 259.745C57.8149 259.551 57.7164 259.325 57.6761 259.085C57.6665 259.032 57.6665 258.979 57.6761 258.926Z" fill="#455A64"/>
<path d="M58.5257 260.194C58.3043 260.093 58.1111 259.939 57.963 259.745C57.8149 259.552 57.7164 259.325 57.6761 259.085C57.6665 259.033 57.6665 258.979 57.6761 258.927C57.6836 258.596 57.7494 258.27 57.8705 257.962C57.7985 259.208 58.3889 259.964 60.2249 260.201C62.0609 260.439 63.2633 259.654 63.4217 259.366C63.2649 259.725 62.9872 260.018 62.6369 260.194C61.9999 260.517 61.2957 260.686 60.5813 260.686C59.867 260.686 59.1628 260.517 58.5257 260.194Z" fill="#37474F"/>
<path d="M158.975 266.637L163.194 264.225C163.194 264.225 165.217 253.08 163.705 243.496C161.545 230.025 152.408 225.381 149.075 226.72C145.741 228.06 144.964 232.048 150.976 239.832C154.525 244.425 159.119 254.16 158.975 266.637Z" fill="#0A7EEA"/>
<path opacity="0.3" d="M158.975 266.637L163.194 264.225C163.194 264.225 165.217 253.08 163.705 243.496C161.545 230.025 152.408 225.381 149.075 226.72C145.741 228.06 144.964 232.048 150.976 239.832C154.525 244.425 159.119 254.16 158.975 266.637Z" fill="black"/>
<path d="M160.508 261.287H160.465C160.386 261.276 160.314 261.235 160.266 261.171C160.217 261.108 160.196 261.028 160.206 260.949C161.948 248.334 156.879 234.518 151.177 228.952C151.121 228.895 151.09 228.819 151.09 228.74C151.09 228.66 151.121 228.584 151.177 228.527C151.205 228.499 151.238 228.476 151.274 228.46C151.311 228.445 151.35 228.437 151.389 228.437C151.429 228.437 151.468 228.445 151.505 228.46C151.541 228.476 151.574 228.499 151.602 228.527C157.405 234.201 162.575 248.241 160.803 261.042C160.789 261.11 160.752 261.172 160.698 261.216C160.645 261.26 160.578 261.285 160.508 261.287Z" fill="white"/>
<path d="M147.275 273.39C146.613 273.779 145.238 272.937 144.712 272.584C143.809 271.971 143.08 271.135 142.595 270.158C142.048 269.042 141.864 267.783 142.07 266.558C142.174 265.914 142.326 265.278 142.523 264.657C142.696 264.037 142.876 263.426 143.049 262.806C143.268 262.21 143.361 261.575 143.323 260.942C143.164 259.682 142.041 258.782 141.019 258.062C139.996 257.342 138.715 256.103 138.722 254.584C138.805 253.402 139.275 252.281 140.061 251.394C140.781 250.473 141.652 249.659 142.315 248.687C142.831 248.01 143.1 247.177 143.078 246.325C143.005 245.805 142.831 245.304 142.567 244.85C141.947 243.909 141.405 242.919 140.947 241.89C140.726 241.37 140.657 240.798 140.748 240.24C140.838 239.682 141.084 239.161 141.458 238.737C141.83 238.461 142.253 238.262 142.703 238.15C143.153 238.039 143.621 238.018 144.079 238.089C144.942 238.195 145.772 238.487 146.512 238.945C148.924 240.285 150.307 243.15 152.87 244.18C153.884 244.501 154.918 244.754 155.966 244.936C156.492 245.034 156.991 245.241 157.433 245.544C157.874 245.846 158.247 246.238 158.529 246.693C159.465 248.572 157.723 250.883 158.385 252.878C158.968 254.642 160.682 255.318 161.647 256.91C162.038 257.612 162.195 258.422 162.093 259.221C162.008 260.57 161.679 261.892 161.121 263.123C160.491 264.349 159.769 265.526 158.961 266.644C158.939 266.673 147.383 273.333 147.275 273.39Z" fill="#0A7EEA"/>
<path opacity="0.15" d="M147.275 273.39C146.613 273.779 145.238 272.937 144.712 272.584C143.809 271.971 143.08 271.135 142.595 270.158C142.048 269.042 141.864 267.783 142.07 266.558C142.174 265.914 142.326 265.278 142.523 264.657C142.696 264.037 142.876 263.426 143.049 262.806C143.268 262.21 143.361 261.575 143.323 260.942C143.164 259.682 142.041 258.782 141.019 258.062C139.996 257.342 138.715 256.103 138.722 254.584C138.805 253.402 139.275 252.281 140.061 251.394C140.781 250.473 141.652 249.659 142.315 248.687C142.831 248.01 143.1 247.177 143.078 246.325C143.005 245.805 142.831 245.304 142.567 244.85C141.947 243.909 141.405 242.919 140.947 241.89C140.726 241.37 140.657 240.798 140.748 240.24C140.838 239.682 141.084 239.161 141.458 238.737C141.83 238.461 142.253 238.262 142.703 238.15C143.153 238.039 143.621 238.018 144.079 238.089C144.942 238.195 145.772 238.487 146.512 238.945C148.924 240.285 150.307 243.15 152.87 244.18C153.884 244.501 154.918 244.754 155.966 244.936C156.492 245.034 156.991 245.241 157.433 245.544C157.874 245.846 158.247 246.238 158.529 246.693C159.465 248.572 157.723 250.883 158.385 252.878C158.968 254.642 160.682 255.318 161.647 256.91C162.038 257.612 162.195 258.422 162.093 259.221C162.008 260.57 161.679 261.892 161.121 263.123C160.491 264.349 159.769 265.526 158.961 266.644C158.939 266.673 147.383 273.333 147.275 273.39Z" fill="black"/>
<path d="M154.123 269.747C154.042 269.744 153.966 269.708 153.911 269.649C153.855 269.59 153.826 269.511 153.828 269.431C154.324 257.493 148.701 244.317 144.612 240.487C144.583 240.459 144.56 240.426 144.545 240.39C144.529 240.353 144.521 240.314 144.521 240.274C144.521 240.235 144.529 240.195 144.545 240.159C144.56 240.122 144.583 240.089 144.612 240.062C144.668 240.006 144.745 239.975 144.824 239.975C144.904 239.975 144.98 240.006 145.036 240.062C149.212 243.971 154.951 257.342 154.447 269.474C154.438 269.552 154.399 269.624 154.339 269.675C154.279 269.726 154.202 269.752 154.123 269.747Z" fill="white"/>
<path d="M152.337 255.643C152.307 255.649 152.275 255.649 152.244 255.643C149.423 254.867 146.526 254.399 143.604 254.246C143.561 254.253 143.517 254.25 143.475 254.238C143.433 254.226 143.394 254.205 143.361 254.177C143.327 254.149 143.301 254.113 143.283 254.074C143.264 254.034 143.255 253.991 143.255 253.947C143.255 253.904 143.264 253.861 143.283 253.821C143.301 253.781 143.327 253.746 143.361 253.718C143.394 253.689 143.433 253.668 143.475 253.657C143.517 253.645 143.561 253.642 143.604 253.649C146.585 253.808 149.54 254.291 152.417 255.089C152.492 255.115 152.555 255.169 152.592 255.24C152.63 255.311 152.639 255.393 152.618 255.47C152.593 255.523 152.553 255.568 152.503 255.598C152.454 255.629 152.396 255.644 152.337 255.643Z" fill="white"/>
<path d="M316.478 90.7989C316.45 90.5651 316.362 90.3423 316.224 90.1519C316.085 89.9615 315.9 89.81 315.686 89.7117C315.087 89.4126 314.426 89.2568 313.756 89.2568C313.086 89.2568 312.426 89.4126 311.827 89.7117C311.612 89.8096 311.425 89.9609 311.285 90.1512C311.145 90.3415 311.057 90.5645 311.027 90.7989V227.477C311.027 228.326 312.244 229.017 313.749 229.017C315.254 229.017 316.478 228.297 316.478 227.477V90.7989Z" fill="#37474F"/>
<path d="M313.748 92.346C315.255 92.346 316.477 91.6529 316.477 90.798C316.477 89.9431 315.255 89.25 313.748 89.25C312.241 89.25 311.02 89.9431 311.02 90.798C311.02 91.6529 312.241 92.346 313.748 92.346Z" fill="#455A64"/>
<path d="M344.587 142.869L339.237 133.596L303.655 113.068L300.962 114.624V126.979L336.544 147.506L339.288 145.994L344.587 142.869Z" fill="#0A7EEA"/>
<path d="M300.962 114.623L336.544 135.15L341.894 144.417L336.544 147.505L300.962 126.978V114.623Z" fill="#0A7EEA"/>
<g opacity="0.3">
<path d="M300.962 114.623L336.544 135.15L341.908 144.445L336.544 147.505L300.962 126.978V114.623Z" fill="black"/>
</g>
<path opacity="0.1" d="M339.237 133.596L336.544 135.151L300.962 114.624L303.655 113.068L339.237 133.596Z" fill="black"/>
<path opacity="0.2" d="M336.544 135.15L339.237 133.595L344.586 142.869L341.908 144.446L336.544 135.15Z" fill="black"/>
<path d="M332.887 111.383L297.305 90.8198L291.955 93.9086L297.305 103.182L332.887 123.738V111.383Z" fill="#0A7EEA"/>
<path d="M297.305 90.8196L299.918 89.25L335.558 109.842L332.887 111.383L297.305 90.8196Z" fill="#0A7EEA"/>
<g opacity="0.4">
<path d="M297.306 90.8196L299.919 89.25L335.559 109.842L332.888 111.383L297.306 90.8196Z" fill="white"/>
</g>
<path d="M335.558 122.197L332.887 123.738V111.383L335.558 109.842V122.197Z" fill="#0A7EEA"/>
<path opacity="0.1" d="M335.558 122.197L332.887 123.738V111.383L335.558 109.842V122.197Z" fill="black"/>
<path d="M323.894 149.572L288.312 129.009L282.962 132.098L288.312 141.371L323.894 161.927V149.572Z" fill="#0A7EEA"/>
<path d="M288.312 129.009L290.933 127.439L326.566 148.031L323.895 149.572L288.312 129.009Z" fill="#0A7EEA"/>
<g opacity="0.4">
<path d="M288.312 129.009L290.933 127.439L326.566 148.031L323.895 149.572L288.312 129.009Z" fill="white"/>
</g>
<path d="M326.565 160.386L323.894 161.927V149.572L326.565 148.031V160.386Z" fill="#0A7EEA"/>
<path opacity="0.1" d="M326.565 160.386L323.894 161.927V149.572L326.565 148.031V160.386Z" fill="black"/>
<path d="M225.114 57.5356C226.321 57.1354 227.58 56.9099 228.851 56.866C230.07 56.8122 231.289 56.9755 232.451 57.3484C233.559 57.7099 234.578 58.304 235.439 59.0908C236.221 59.8722 236.833 60.8073 237.236 61.8371C237.639 62.8669 237.824 63.9691 237.779 65.074C237.714 65.9257 237.522 66.763 237.21 67.558C236.911 68.3316 236.543 69.0763 236.108 69.7828C235.676 70.5028 235.266 71.158 234.884 71.7916C234.515 72.3928 234.202 73.0266 233.948 73.6852C233.715 74.2675 233.648 74.903 233.754 75.5212C233.799 75.8112 233.761 76.1081 233.646 76.378C233.596 76.5093 233.515 76.627 233.412 76.722C233.308 76.817 233.184 76.8865 233.048 76.9252L230.082 77.9044C229.941 77.9509 229.792 77.9692 229.644 77.958C229.495 77.9469 229.351 77.9067 229.218 77.8396C229.083 77.7835 228.964 77.6961 228.87 77.5847C228.776 77.4732 228.71 77.3409 228.678 77.1988C228.405 76.2647 228.324 75.285 228.44 74.3188C228.557 73.4523 228.787 72.605 229.124 71.7988C229.448 71.0225 229.838 70.2757 230.291 69.5668C230.742 68.8756 231.152 68.2132 231.522 67.5796C231.863 67.0131 232.143 66.4122 232.357 65.7868C232.541 65.2451 232.541 64.658 232.357 64.1164C232.204 63.6372 231.937 63.2026 231.578 62.8501C231.219 62.4976 230.78 62.2378 230.298 62.0932C229.105 61.7318 227.825 61.7799 226.662 62.23C224.454 62.9596 223.194 64.6036 222.882 67.162C222.864 67.4315 222.796 67.6953 222.68 67.9396C222.609 68.055 222.514 68.1546 222.403 68.2326C222.291 68.3105 222.165 68.3652 222.032 68.3932L218.879 69.43C218.657 69.5082 218.414 69.4952 218.202 69.394C218.091 69.3425 217.992 69.2676 217.913 69.1744C217.833 69.0812 217.775 68.9719 217.741 68.854C217.461 67.8541 217.432 66.8008 217.655 65.7868C217.893 64.6231 218.331 63.5098 218.951 62.4964C219.636 61.3881 220.494 60.3964 221.492 59.5588C222.555 58.6536 223.786 57.9662 225.114 57.5356ZM233.999 79.2004C234.28 79.1158 234.582 79.1436 234.843 79.278C235.103 79.4123 235.302 79.6426 235.396 79.9204L236.533 83.362C236.58 83.4995 236.598 83.645 236.587 83.7898C236.576 83.9346 236.536 84.0757 236.468 84.2044C236.405 84.3361 236.315 84.4536 236.205 84.5501C236.095 84.6466 235.967 84.72 235.828 84.766L232.472 85.8748C232.191 85.9615 231.886 85.9347 231.624 85.8003C231.362 85.6658 231.162 85.4341 231.068 85.1548L229.931 81.7204C229.842 81.4387 229.868 81.1334 230.003 80.8707C230.138 80.6079 230.37 80.4088 230.651 80.3164L233.999 79.2004Z" fill="#0A7EEA"/>
<path d="M248.895 89.3597C249.676 88.9519 250.509 88.6561 251.372 88.4813C252.192 88.3085 253.035 88.2817 253.863 88.4021C254.658 88.5247 255.417 88.8169 256.088 89.2589C256.801 89.7329 257.377 90.3859 257.759 91.1525C258.087 91.7438 258.292 92.3952 258.363 93.0677C258.414 93.6527 258.38 94.2419 258.263 94.8173C258.145 95.3857 257.976 95.9424 257.759 96.4805L257.154 97.9853C256.973 98.4379 256.831 98.9052 256.729 99.3821C256.635 99.8059 256.662 100.248 256.808 100.656C256.866 100.852 256.866 101.059 256.808 101.254C256.788 101.349 256.746 101.437 256.686 101.513C256.626 101.589 256.55 101.651 256.463 101.693L254.555 102.694C254.37 102.789 254.156 102.809 253.957 102.752C253.858 102.729 253.766 102.682 253.69 102.616C253.613 102.549 253.554 102.465 253.518 102.37C253.223 101.765 253.057 101.106 253.028 100.433C253.011 99.8304 253.071 99.2278 253.208 98.6405C253.341 98.0755 253.524 97.5237 253.755 96.9917C253.979 96.4661 254.18 95.9693 254.367 95.4941C254.535 95.0711 254.658 94.6319 254.735 94.1837C254.797 93.7926 254.734 93.392 254.555 93.0389C254.394 92.7307 254.162 92.4657 253.878 92.2664C253.593 92.0671 253.265 91.9394 252.92 91.8941C252.066 91.7831 251.2 91.9605 250.458 92.3981C249.773 92.745 249.212 93.2949 248.851 93.9728C248.49 94.6506 248.347 95.4233 248.442 96.1853C248.461 96.3716 248.444 96.5599 248.391 96.7397C248.317 96.9129 248.177 97.0499 248.003 97.1213L245.965 98.1941C245.822 98.2718 245.654 98.2899 245.497 98.2445C245.416 98.2212 245.34 98.1809 245.276 98.1262C245.211 98.0716 245.159 98.004 245.123 97.9277C244.822 97.2769 244.683 96.5629 244.719 95.8469C244.748 95.0286 244.921 94.2217 245.231 93.4637C245.57 92.63 246.041 91.8568 246.627 91.1741C247.257 90.4262 248.028 89.8097 248.895 89.3597ZM257.399 103.112C257.488 103.062 257.587 103.032 257.688 103.023C257.79 103.014 257.893 103.027 257.989 103.061C258.085 103.089 258.175 103.137 258.252 103.201C258.329 103.266 258.391 103.346 258.435 103.436L259.602 105.646C259.694 105.826 259.712 106.036 259.652 106.229C259.591 106.423 259.457 106.586 259.278 106.683L257.118 107.813C257.03 107.862 256.932 107.892 256.832 107.9C256.731 107.909 256.63 107.897 256.535 107.864C256.438 107.838 256.347 107.791 256.269 107.728C256.191 107.665 256.127 107.586 256.081 107.496L254.922 105.279C254.83 105.1 254.811 104.892 254.87 104.7C254.93 104.507 255.062 104.345 255.239 104.249L257.399 103.112Z" fill="#0A7EEA"/>
<g opacity="0.2">
<path d="M248.894 89.3597C249.675 88.9519 250.508 88.6561 251.371 88.4813C252.191 88.3085 253.034 88.2817 253.862 88.4021C254.657 88.5247 255.416 88.8169 256.087 89.2589C256.8 89.7329 257.376 90.3859 257.758 91.1525C258.086 91.7438 258.291 92.3952 258.362 93.0677C258.413 93.6527 258.379 94.2419 258.262 94.8173C258.144 95.3857 257.975 95.9424 257.758 96.4805L257.153 97.9853C256.972 98.4379 256.83 98.9052 256.728 99.3821C256.634 99.8059 256.661 100.248 256.807 100.656C256.865 100.852 256.865 101.059 256.807 101.254C256.787 101.349 256.745 101.437 256.685 101.513C256.625 101.589 256.549 101.651 256.462 101.693L254.554 102.694C254.369 102.789 254.155 102.809 253.956 102.752C253.857 102.729 253.765 102.682 253.689 102.616C253.612 102.549 253.553 102.465 253.517 102.37C253.222 101.765 253.056 101.106 253.027 100.433C253.01 99.8304 253.07 99.2278 253.207 98.6405C253.34 98.0755 253.523 97.5237 253.754 96.9917C253.978 96.4661 254.179 95.9693 254.366 95.4941C254.534 95.0711 254.657 94.6319 254.734 94.1837C254.796 93.7926 254.733 93.392 254.554 93.0389C254.393 92.7307 254.161 92.4657 253.877 92.2664C253.592 92.0671 253.264 91.9394 252.919 91.8941C252.065 91.7831 251.199 91.9605 250.457 92.3981C249.772 92.745 249.211 93.2949 248.85 93.9728C248.489 94.6506 248.346 95.4233 248.441 96.1853C248.46 96.3716 248.443 96.5599 248.39 96.7397C248.316 96.9129 248.176 97.0499 248.002 97.1213L245.964 98.1941C245.821 98.2718 245.653 98.2899 245.496 98.2445C245.415 98.2212 245.339 98.1809 245.275 98.1262C245.21 98.0716 245.158 98.004 245.122 97.9277C244.821 97.2769 244.682 96.5629 244.718 95.8469C244.747 95.0286 244.92 94.2217 245.23 93.4637C245.569 92.63 246.04 91.8568 246.626 91.1741C247.256 90.4262 248.027 89.8097 248.894 89.3597ZM257.398 103.112C257.487 103.062 257.586 103.032 257.687 103.023C257.789 103.014 257.892 103.027 257.988 103.061C258.084 103.089 258.174 103.137 258.251 103.201C258.328 103.266 258.39 103.346 258.434 103.436L259.601 105.646C259.693 105.826 259.711 106.036 259.651 106.229C259.59 106.423 259.456 106.586 259.277 106.683L257.117 107.813C257.029 107.862 256.931 107.892 256.831 107.9C256.73 107.909 256.629 107.897 256.534 107.864C256.437 107.838 256.346 107.791 256.268 107.728C256.19 107.665 256.126 107.586 256.08 107.496L254.921 105.279C254.829 105.1 254.81 104.892 254.869 104.7C254.929 104.507 255.061 104.345 255.238 104.249L257.398 103.112Z" fill="black"/>
</g>
<path d="M264.959 79.4085C265.073 79.4415 265.179 79.4975 265.27 79.5731C265.362 79.6486 265.437 79.7421 265.491 79.8477C265.553 79.9561 265.591 80.0761 265.604 80.2001C265.616 80.3241 265.602 80.4493 265.563 80.5677L264.699 83.3973C264.625 83.6257 264.465 83.8162 264.252 83.929C264.04 84.0418 263.793 84.068 263.562 84.0021L260.797 83.1597C260.683 83.1251 260.576 83.0677 260.485 82.991C260.393 82.9142 260.318 82.8198 260.264 82.7133C260.201 82.6056 260.162 82.4855 260.149 82.3612C260.137 82.2369 260.151 82.1114 260.192 81.9933L261.056 79.1637C261.091 79.0494 261.148 78.9432 261.225 78.8517C261.302 78.7601 261.396 78.685 261.503 78.6309C261.611 78.5693 261.731 78.5311 261.855 78.5187C261.979 78.5063 262.104 78.52 262.223 78.5589L264.959 79.4085ZM269.279 60.7389C270.275 61.0419 271.223 61.4856 272.094 62.0565C272.928 62.5942 273.66 63.277 274.254 64.0725C274.82 64.8371 275.218 65.7132 275.42 66.6429C275.619 67.6373 275.56 68.6661 275.247 69.6309C275.029 70.3994 274.659 71.1166 274.16 71.7405C273.714 72.2782 273.193 72.7486 272.612 73.1373C272.043 73.5092 271.443 73.832 270.819 74.1021L269.034 74.8797C268.504 75.1037 267.998 75.3786 267.522 75.7005C267.086 75.9764 266.739 76.3712 266.521 76.8381C266.414 77.0521 266.25 77.2317 266.046 77.3565C265.951 77.4222 265.843 77.4643 265.729 77.4793C265.615 77.4944 265.499 77.4819 265.391 77.4429L262.943 76.7229C262.708 76.652 262.512 76.4916 262.395 76.2765C262.327 76.1706 262.286 76.0494 262.276 75.9238C262.266 75.7981 262.287 75.6719 262.338 75.5565C262.598 74.8036 263.007 74.1107 263.54 73.5189C264.027 72.9947 264.582 72.5371 265.189 72.1581C265.77 71.7895 266.385 71.4761 267.025 71.2221C267.651 70.9701 268.235 70.7181 268.782 70.5021C269.275 70.2838 269.746 70.016 270.186 69.7029C270.566 69.4277 270.847 69.0359 270.985 68.5869C271.108 68.1955 271.134 67.7801 271.061 67.3764C270.988 66.9727 270.819 66.5926 270.567 66.2685C269.942 65.4627 269.065 64.8897 268.076 64.6413C267.21 64.3621 266.278 64.3568 265.408 64.6261C264.539 64.8953 263.773 65.4261 263.216 66.1461C263.076 66.3172 262.908 66.4633 262.719 66.5781C262.509 66.6619 262.275 66.6619 262.064 66.5781L259.458 65.7861C259.275 65.7269 259.119 65.6044 259.019 65.4405C258.97 65.3522 258.94 65.2547 258.931 65.1543C258.923 65.0538 258.935 64.9526 258.968 64.8573C259.255 64.0573 259.735 63.3403 260.365 62.7693C261.072 62.1028 261.891 61.5665 262.784 61.1853C263.764 60.7673 264.804 60.5096 265.866 60.4221C267.013 60.3037 268.173 60.4113 269.279 60.7389Z" fill="#0A7EEA"/>
<g opacity="0.6">
<path d="M264.96 79.4085C265.074 79.4415 265.18 79.4975 265.271 79.5731C265.363 79.6486 265.438 79.7421 265.492 79.8477C265.554 79.9561 265.592 80.0761 265.605 80.2001C265.617 80.3241 265.603 80.4493 265.564 80.5677L264.7 83.3973C264.626 83.6257 264.466 83.8162 264.253 83.929C264.041 84.0418 263.794 84.068 263.563 84.0021L260.798 83.1597C260.684 83.1251 260.577 83.0677 260.486 82.991C260.394 82.9142 260.319 82.8198 260.265 82.7133C260.202 82.6056 260.163 82.4855 260.15 82.3612C260.138 82.2369 260.152 82.1114 260.193 81.9933L261.057 79.1637C261.092 79.0494 261.149 78.9432 261.226 78.8517C261.303 78.7601 261.397 78.685 261.504 78.6309C261.612 78.5693 261.732 78.5311 261.856 78.5187C261.98 78.5063 262.105 78.52 262.224 78.5589L264.96 79.4085ZM269.28 60.7389C270.276 61.0419 271.224 61.4856 272.095 62.0565C272.929 62.5942 273.661 63.277 274.255 64.0725C274.821 64.8371 275.219 65.7132 275.421 66.6429C275.62 67.6373 275.561 68.6661 275.248 69.6309C275.03 70.3994 274.66 71.1166 274.161 71.7405C273.715 72.2782 273.194 72.7486 272.613 73.1373C272.044 73.5092 271.444 73.832 270.82 74.1021L269.035 74.8797C268.505 75.1037 267.999 75.3786 267.523 75.7005C267.087 75.9764 266.74 76.3712 266.522 76.8381C266.415 77.0521 266.251 77.2317 266.047 77.3565C265.952 77.4222 265.844 77.4643 265.73 77.4793C265.616 77.4944 265.5 77.4819 265.392 77.4429L262.944 76.7229C262.709 76.652 262.513 76.4916 262.396 76.2765C262.328 76.1706 262.287 76.0494 262.277 75.9238C262.267 75.7981 262.288 75.6719 262.339 75.5565C262.599 74.8036 263.008 74.1107 263.541 73.5189C264.028 72.9947 264.583 72.5371 265.19 72.1581C265.771 71.7895 266.386 71.4761 267.026 71.2221C267.652 70.9701 268.236 70.7181 268.783 70.5021C269.276 70.2838 269.747 70.016 270.187 69.7029C270.567 69.4277 270.848 69.0359 270.986 68.5869C271.109 68.1955 271.135 67.7801 271.062 67.3764C270.989 66.9727 270.82 66.5926 270.568 66.2685C269.943 65.4627 269.066 64.8897 268.077 64.6413C267.211 64.3621 266.279 64.3568 265.409 64.6261C264.54 64.8953 263.774 65.4261 263.217 66.1461C263.077 66.3172 262.909 66.4633 262.72 66.5781C262.51 66.6619 262.275 66.6619 262.065 66.5781L259.459 65.7861C259.276 65.7269 259.12 65.6044 259.02 65.4405C258.971 65.3522 258.941 65.2547 258.932 65.1543C258.924 65.0538 258.936 64.9526 258.969 64.8573C259.256 64.0573 259.736 63.3403 260.366 62.7693C261.073 62.1028 261.892 61.5665 262.785 61.1853C263.765 60.7673 264.805 60.5096 265.867 60.4221C267.014 60.3037 268.174 60.4113 269.28 60.7389Z" fill="white"/>
</g>
<path d="M225.866 251.021C226.057 252.321 225.948 253.649 225.549 254.901C224.786 256.932 223.245 257.832 222.33 258.624C221.305 259.537 220.407 260.583 219.659 261.734C218.921 262.998 217.977 264.129 216.866 265.082C216.002 265.802 213.611 265.802 212.466 265.312C211.322 264.823 210.94 264.362 211.026 262.519C211.113 260.676 216.736 260.157 216.736 260.157L225.866 251.021Z" fill="#455A64"/>
<path d="M211.883 257.041C211.401 257.213 211.264 258.121 211.163 259.921C211.077 261.289 210.443 263.276 212.33 264.176C213.835 264.896 216.268 264.493 217.327 263.218C218.637 261.641 219.53 260.245 221.395 258.315C223.015 256.645 224.678 256.105 225.448 252.721C225.945 250.561 225.607 249.625 224.152 248.969C222.143 248.069 218.911 250.82 217.312 251.23C215.937 251.583 212.402 256.861 211.883 257.041Z" fill="#0A7EEA"/>
<path opacity="0.2" d="M211.883 257.041C211.401 257.213 211.264 258.121 211.163 259.921C211.077 261.289 210.443 263.276 212.33 264.176C213.835 264.896 216.268 264.493 217.327 263.218C218.637 261.641 219.53 260.245 221.395 258.315C223.015 256.645 224.678 256.105 225.448 252.721C225.945 250.561 225.607 249.625 224.152 248.969C222.143 248.069 218.911 250.82 217.312 251.23C215.937 251.583 212.402 256.861 211.883 257.041Z" fill="black"/>
<path d="M217.306 251.222L217.579 251.136C218.496 251.205 219.379 251.515 220.137 252.034C220.896 252.554 221.504 253.265 221.899 254.095C222.158 254.7 221.316 255.146 220.834 254.671C220.409 253.865 219.793 253.175 219.04 252.661C218.287 252.148 217.419 251.827 216.514 251.726C216.741 251.507 217.01 251.335 217.306 251.222Z" fill="#FAFAFA"/>
<path d="M216.003 252.23C216.863 252.345 217.681 252.673 218.381 253.185C219.082 253.697 219.643 254.376 220.013 255.161C220.272 255.758 219.43 256.205 218.948 255.737C218.592 255.033 218.085 254.417 217.462 253.932C216.84 253.448 216.117 253.108 215.348 252.936C215.549 252.72 215.772 252.439 216.003 252.23Z" fill="#FAFAFA"/>
<path d="M250.735 279.475C251.016 281.016 250.44 281.801 248.445 282.903C246.451 284.004 243.333 284.343 240.093 283.32C236.853 282.298 235.32 280.851 233.973 280.483C232.627 280.116 229.272 280.022 227.94 279.605C226.608 279.187 226.644 278.496 226.68 276.883L250.735 279.475Z" fill="#455A64"/>
<path d="M228.149 269.15C227.738 270.332 227.387 271.533 227.098 272.75C226.795 274.09 226.378 276.35 226.81 277.337C227.242 278.323 229.078 279.043 231.922 279.079C233.758 279.079 236.602 280.411 238.538 281.542C240.475 282.672 242.743 282.766 244.889 282.557C247.423 282.305 250.073 280.894 250.498 279.857C250.922 278.82 251.052 278.035 245.148 275.378C245.09 275.378 238.286 272.693 235.471 269.453L228.149 269.15Z" fill="#0A7EEA"/>
<g opacity="0.2">
<path d="M228.148 269.15C227.737 270.332 227.386 271.533 227.097 272.75C226.794 274.09 226.377 276.35 226.809 277.337C227.241 278.323 229.077 279.043 231.921 279.079C233.757 279.079 236.601 280.411 238.537 281.542C240.474 282.672 242.742 282.766 244.888 282.557C247.422 282.305 250.072 280.894 250.497 279.857C250.921 278.82 251.051 278.035 245.147 275.378C245.089 275.378 238.285 272.693 235.47 269.453L228.148 269.15Z" fill="black"/>
</g>
<path d="M239.343 281.945C239.343 281.945 239.955 276.84 244.138 275.465C247.925 274.219 251.144 277.063 250.733 279.475C250.452 281.103 245.808 284.703 239.343 281.945Z" fill="#FAFAFA"/>
<path d="M243.11 274.486C242.043 274.558 241.031 274.981 240.23 275.688C239.013 276.668 238.963 277.337 238.963 277.337C238.87 277.436 238.748 277.501 238.615 277.525C238.482 277.548 238.345 277.528 238.225 277.468C238.104 277.407 238.006 277.309 237.946 277.188C237.886 277.067 237.866 276.93 237.89 276.797C237.89 276.797 238.221 274.227 241.627 273.766C241.918 273.713 242.219 273.754 242.486 273.884C242.752 274.013 242.971 274.224 243.11 274.486Z" fill="#FAFAFA"/>
<path d="M240.755 273.297C239.693 273.284 238.665 273.669 237.875 274.377C236.658 275.364 236.636 276.156 236.636 276.156C236.544 276.254 236.422 276.32 236.289 276.343C236.156 276.367 236.019 276.347 235.898 276.286C235.778 276.225 235.68 276.127 235.62 276.007C235.559 275.886 235.54 275.749 235.564 275.616C235.564 275.616 235.888 273.038 239.293 272.585C239.581 272.534 239.877 272.575 240.14 272.703C240.402 272.831 240.618 273.039 240.755 273.297Z" fill="#FAFAFA"/>
<path d="M238.422 271.907C237.363 271.82 236.309 272.133 235.47 272.786C234.188 273.686 234.109 274.471 234.109 274.471C234.009 274.559 233.883 274.613 233.75 274.625C233.618 274.638 233.484 274.608 233.369 274.54C233.254 274.472 233.164 274.37 233.11 274.247C233.057 274.125 233.044 273.989 233.072 273.859C233.072 273.859 233.584 271.317 237.011 271.087C237.303 271.056 237.597 271.119 237.85 271.267C238.104 271.414 238.304 271.639 238.422 271.907Z" fill="#FAFAFA"/>
<path d="M211.941 254.109L211.869 257.58C212.691 258.128 213.647 258.442 214.634 258.487C215.621 258.533 216.602 258.309 217.471 257.839C217.572 257.63 217.924 254.239 217.924 254.239L211.941 254.109Z" fill="#FFA8A7"/>
<path d="M228.198 266.753C228.198 266.753 228.198 268.395 228.141 269.338C228.083 270.281 229.199 271.699 232.079 271.656C234.095 271.656 235.521 271.109 235.47 269.446L235.521 267.048L228.198 266.753Z" fill="#FFA8A7"/>
<path d="M208.802 224.64C209.141 217.325 210.71 214.15 210.71 214.15C210.71 214.15 210.329 205.099 209.335 193.99C207.823 177.106 209.162 174.607 212.633 167.098C212.633 167.098 240.619 164.045 241.246 175.846C242.03 190.541 241.562 220.385 241.066 225.526C240.569 230.666 240.677 225.914 239.208 236.383C238.042 244.656 235.536 267.019 235.536 267.019C234.385 267.576 233.115 267.84 231.838 267.788C230.561 267.737 229.316 267.371 228.214 266.724C228.214 266.724 226.442 239.263 226.81 233.287C227.249 225.994 227.702 224.143 227.702 224.143C227.702 224.143 224.822 200.434 224.426 196.618C224.426 196.618 223.829 203.422 223.332 208.598C222.835 213.775 222.785 217.958 221.482 228.643C220.459 237.038 218.018 255.146 218.018 255.146C217.015 255.533 215.936 255.683 214.866 255.583C213.795 255.483 212.762 255.136 211.848 254.57C211.848 254.57 208.522 230.522 208.802 224.64Z" fill="#455A64"/>
<path d="M224.462 255.212C224.462 255.212 224.39 251.158 218.925 250.481L218.608 250.654C219.238 249.664 220.213 248.943 221.344 248.631C223.173 248.177 224.599 248.674 225.528 249.927C226.456 251.18 225.427 254.441 224.462 255.212Z" fill="#FAFAFA"/>
<path d="M224.411 196.647L224.051 191.801C221.004 190.722 218.102 189.271 215.411 187.481C216.957 190.084 219.458 191.98 222.381 192.766L223.252 197.525L223.324 208.649L224.411 196.647Z" fill="#37474F"/>
<path d="M214.36 101.563C212.826 103.478 201.486 121.723 199.83 125.157C198.174 128.592 197.771 130.795 200.392 133.56C204.33 137.714 214.259 147.737 214.259 147.737L219.818 134.474L209.507 127.994L219.587 106.661L214.36 101.563Z" fill="#FFA8A7"/>
<path d="M209.522 128.001C209.522 128.001 206.699 127.008 204.345 128.534C204.345 128.534 206.202 125.913 210.047 126.9L209.522 128.001Z" fill="#F28F8F"/>
<path d="M220.083 133.43L210.961 128.88C207.599 128.398 203.221 133.654 203.343 137.686L211.343 144.742L220.083 133.43Z" fill="#455A64"/>
<path d="M221.408 126.67L220.832 133.013C219.392 133.46 219.659 135.468 220.501 136.707L220.335 138.572L229.695 139.414L231.099 128.708L221.408 126.67Z" fill="#FFA8A7"/>
<path d="M211.142 137.62C212.178 134.805 216.268 132.638 218.752 132.832L220.833 133.012C220.257 134.164 221.092 134.985 222.604 135.424C224.548 135.986 228.126 136.303 230.236 135.057L230.301 134.517C230.301 134.517 234.282 135.655 235.456 136.094C238.754 137.332 239.841 137.973 243.254 146.836C244.694 150.631 243.815 154.562 239.884 156.708C239.589 159.055 239.258 162.748 239.258 162.748C240.342 167.78 241.138 172.869 241.641 177.991C241.641 177.991 239.567 182.692 225.203 181.9C214.079 181.288 208.902 175.658 208.902 175.658C209.176 172.929 210.904 168.573 214.446 160.351C210.242 148.528 209.601 141.84 211.142 137.62Z" fill="#37474F"/>
<path d="M270.527 131.76H270.491C269.987 131.502 269.59 131.076 269.368 130.555C269.147 130.035 269.114 129.453 269.277 128.912C269.44 128.37 269.787 127.902 270.259 127.59C270.73 127.278 271.296 127.141 271.859 127.203C271.872 127.203 271.884 127.207 271.896 127.213C271.907 127.219 271.917 127.227 271.926 127.237C271.934 127.248 271.94 127.259 271.943 127.272C271.946 127.285 271.947 127.298 271.945 127.311C271.944 127.323 271.941 127.334 271.935 127.345C271.93 127.356 271.922 127.365 271.912 127.372C271.903 127.38 271.892 127.385 271.88 127.388C271.868 127.391 271.856 127.392 271.844 127.39C271.328 127.338 270.811 127.467 270.38 127.755C269.949 128.043 269.632 128.472 269.483 128.969C269.334 129.465 269.362 129.998 269.563 130.476C269.764 130.954 270.125 131.347 270.584 131.587C270.595 131.593 270.605 131.601 270.613 131.611C270.621 131.621 270.626 131.632 270.63 131.644C270.633 131.657 270.634 131.669 270.632 131.682C270.631 131.694 270.627 131.706 270.62 131.717C270.611 131.733 270.597 131.746 270.581 131.754C270.564 131.762 270.545 131.764 270.527 131.76Z" fill="#E0E0E0"/>
<path d="M269.059 129.802L269.606 130.479C269.814 130.993 270.169 131.434 270.628 131.746L271.168 132.415L271.579 132.091C271.703 131.994 271.795 131.862 271.844 131.712C271.893 131.562 271.896 131.401 271.852 131.249C271.767 130.845 271.587 130.467 271.328 130.146C271.069 129.824 270.738 129.568 270.362 129.399C270.222 129.325 270.062 129.294 269.905 129.311C269.747 129.327 269.598 129.39 269.476 129.492L269.059 129.802Z" fill="#455A64"/>
<path d="M270.325 132.48C271.045 132.753 271.513 132.365 271.398 131.616C271.31 131.213 271.128 130.837 270.868 130.517C270.608 130.197 270.277 129.942 269.901 129.773C269.181 129.499 268.72 129.888 268.835 130.637C268.922 131.039 269.102 131.416 269.361 131.736C269.619 132.056 269.95 132.311 270.325 132.48Z" fill="#263238"/>
<path d="M268.511 130.867L270.016 132.732L270.656 132.214C270.744 132.142 270.809 132.047 270.843 131.94C270.878 131.833 270.88 131.718 270.851 131.609C270.785 131.326 270.654 131.063 270.469 130.839C270.284 130.616 270.05 130.438 269.785 130.32C269.685 130.267 269.572 130.245 269.46 130.255C269.347 130.265 269.24 130.308 269.152 130.378L268.511 130.867Z" fill="#37474F"/>
<path d="M254.644 137.469L255.364 139.781C255.731 140.911 256.847 141.811 258.618 142.2C262.218 142.985 267.071 141.444 269.533 138.751C270.757 137.412 271.153 136.037 270.808 134.899L270.088 132.588L269.173 133.049C268.666 132.78 268.123 132.583 267.56 132.465C263.96 131.681 259.108 133.221 256.645 135.914C256.257 136.333 255.927 136.803 255.666 137.311L254.644 137.469Z" fill="#0A7EEA"/>
<path opacity="0.3" d="M254.644 137.469L255.364 139.781C255.731 140.911 256.847 141.811 258.618 142.2C262.218 142.985 267.071 141.444 269.533 138.751C270.757 137.412 271.153 136.037 270.808 134.899L270.088 132.588L269.173 133.049C268.666 132.78 268.123 132.583 267.56 132.465C263.96 131.681 259.108 133.221 256.645 135.914C256.257 136.333 255.927 136.803 255.666 137.311L254.644 137.469Z" fill="black"/>
<path d="M271.356 132.019C271.055 131.99 270.762 131.904 270.492 131.767C270.481 131.761 270.471 131.753 270.464 131.743C270.456 131.734 270.45 131.722 270.447 131.71C270.443 131.698 270.443 131.685 270.444 131.673C270.446 131.661 270.45 131.649 270.456 131.638C270.462 131.626 270.469 131.616 270.479 131.607C270.488 131.599 270.5 131.592 270.512 131.588C270.524 131.584 270.537 131.583 270.549 131.584C270.562 131.585 270.575 131.588 270.586 131.595C270.832 131.724 271.101 131.805 271.378 131.832C271.952 131.868 272.518 131.68 272.957 131.309C273.396 130.937 273.675 130.411 273.736 129.839C273.796 129.267 273.633 128.693 273.281 128.238C272.929 127.783 272.415 127.482 271.846 127.397C271.833 127.397 271.821 127.395 271.809 127.389C271.798 127.384 271.787 127.376 271.779 127.367C271.771 127.357 271.765 127.346 271.761 127.334C271.758 127.321 271.757 127.309 271.759 127.296C271.76 127.284 271.764 127.272 271.769 127.261C271.775 127.25 271.782 127.24 271.792 127.232C271.801 127.224 271.812 127.218 271.824 127.214C271.836 127.21 271.848 127.209 271.86 127.21C272.184 127.233 272.499 127.321 272.787 127.469C273.076 127.617 273.332 127.821 273.54 128.07C273.748 128.318 273.904 128.606 273.999 128.916C274.093 129.226 274.125 129.552 274.091 129.875C274.057 130.197 273.959 130.51 273.802 130.793C273.645 131.077 273.433 131.326 273.178 131.526C272.923 131.726 272.63 131.873 272.317 131.958C272.004 132.042 271.677 132.063 271.356 132.019Z" fill="#E0E0E0"/>
<path d="M266.82 130.132C263.256 129.34 258.367 130.852 255.897 133.581C253.428 136.31 254.328 139.096 257.892 139.888C261.456 140.68 266.345 139.125 268.814 136.432C271.284 133.74 270.384 130.917 266.82 130.132Z" fill="#0A7EEA"/>
<path opacity="0.2" d="M266.82 130.132C263.256 129.34 258.367 130.852 255.897 133.581C253.428 136.31 254.328 139.096 257.892 139.888C261.456 140.68 266.345 139.125 268.814 136.432C271.284 133.74 270.384 130.917 266.82 130.132Z" fill="black"/>
<path d="M257.041 134.64C258.274 133.449 259.768 132.56 261.403 132.042C263.038 131.525 264.771 131.394 266.466 131.66C267.088 131.772 267.672 132.04 268.165 132.437C268.337 132.587 268.468 132.78 268.544 132.995C268.62 133.211 268.638 133.443 268.597 133.668C268.437 134.313 268.106 134.903 267.639 135.375C266.405 136.566 264.912 137.456 263.277 137.973C261.642 138.49 259.909 138.621 258.214 138.356C257.593 138.248 257.011 137.983 256.522 137.585L256.45 137.52C255.514 136.541 256.551 135.188 257.041 134.64Z" fill="#0A7EEA"/>
<path opacity="0.5" d="M257.041 134.64C258.274 133.449 259.768 132.56 261.403 132.042C263.038 131.525 264.771 131.394 266.466 131.66C267.088 131.772 267.672 132.04 268.165 132.437C268.337 132.587 268.468 132.78 268.544 132.995C268.62 133.211 268.638 133.443 268.597 133.668C268.437 134.313 268.106 134.903 267.639 135.375C266.405 136.566 264.912 137.456 263.277 137.973C261.642 138.49 259.909 138.621 258.214 138.356C257.593 138.248 257.011 137.983 256.522 137.585L256.45 137.52C255.514 136.541 256.551 135.188 257.041 134.64Z" fill="black"/>
<path d="M257.423 135.806C258.658 134.617 260.152 133.729 261.787 133.212C263.421 132.695 265.154 132.562 266.848 132.826C267.471 132.938 268.055 133.206 268.547 133.603L268.612 133.668C268.453 134.313 268.122 134.903 267.655 135.374C266.421 136.566 264.928 137.455 263.293 137.972C261.657 138.49 259.924 138.621 258.23 138.355C257.609 138.248 257.026 137.983 256.538 137.585L256.466 137.52C256.624 136.873 256.955 136.28 257.423 135.806Z" fill="#F0F0F0"/>
<path d="M261.492 135.598L259.411 137.153C259.246 137.275 259.411 137.398 259.663 137.304L262.435 136.166L261.492 135.598Z" fill="#455A64"/>
<path d="M263.17 135.756L265.251 134.201C265.416 134.078 265.251 133.956 264.999 134.05L262.227 135.187L263.17 135.756Z" fill="#455A64"/>
<path d="M263.19 136.188C262.885 136.367 262.543 136.472 262.191 136.495C261.839 136.519 261.486 136.461 261.16 136.325C260.692 136.044 260.828 135.519 261.469 135.166C261.774 134.988 262.116 134.882 262.468 134.859C262.821 134.835 263.174 134.893 263.5 135.029C263.968 135.31 263.831 135.835 263.19 136.188Z" fill="#0A7EEA"/>
<path d="M262.881 136.008C262.686 136.124 262.466 136.192 262.24 136.208C262.013 136.223 261.786 136.184 261.578 136.094C261.268 135.914 261.362 135.576 261.779 135.374C261.974 135.258 262.194 135.19 262.42 135.175C262.647 135.16 262.874 135.199 263.082 135.288C263.392 135.439 263.298 135.778 262.881 136.008Z" fill="#37474F"/>
<path d="M271.442 134.201C271.111 133.654 270.67 133.183 270.146 132.818L270.743 134.719C271.211 136.123 270.189 137.966 269.174 139.039C268.49 139.759 267.208 140.587 267.1 140.328C266.956 139.961 267.172 138.168 266.805 136.541C266.359 134.597 265.207 135.54 264.904 137.002C264.739 137.801 263.875 139.838 263.63 141.386C263.327 143.28 263.716 144.9 263.147 146.268C262.708 147.341 258.107 153.115 255.415 156.211C252.65 152.525 248.935 147.722 245.687 143.597C241.159 137.794 240.23 136.577 236.601 136.462C233.721 144.77 238.653 153.137 238.653 153.137C238.653 153.137 245.464 161.41 249.705 165.758C253.795 169.956 255.235 169.596 257.2 167.918C259.166 166.241 264.242 158.717 266.402 154.548C268.562 150.379 270.873 147.226 272.162 145.015C274.322 141.3 273.695 137.398 271.442 134.201Z" fill="#FFA8A7"/>
<path d="M235.441 136.08C235.441 136.08 238.839 135.598 241.136 137.434C242.578 138.742 243.888 140.189 245.046 141.754C248.221 146.002 254.139 153.893 254.139 153.893C253.163 155.657 251.839 157.204 250.247 158.442C248.656 159.679 246.83 160.581 244.88 161.093C244.88 161.093 239.062 155.009 236.888 151.992C233.043 146.671 233.439 139.054 235.441 136.08Z" fill="#455A64"/>
<path d="M220.833 133.013C220.833 133.013 216.181 135.072 215.245 138.053L210.875 137.505C212.125 135.389 214.096 133.794 216.426 133.013C217.866 132.602 219.392 132.602 220.833 133.013Z" fill="#0A7EEA"/>
<path opacity="0.2" d="M220.833 133.013C220.833 133.013 216.181 135.072 215.245 138.053L210.875 137.505C212.125 135.389 214.096 133.794 216.426 133.013C217.866 132.602 219.392 132.602 220.833 133.013Z" fill="black"/>
<path d="M230.935 142.308C230.935 142.308 232.749 136.8 235.442 136.08C233.967 135.185 232.291 134.678 230.568 134.604C228.758 135.919 227.319 137.68 226.392 139.716L230.935 142.308Z" fill="#0A7EEA"/>
<path opacity="0.2" d="M230.935 142.308C230.935 142.308 232.749 136.8 235.442 136.08C233.967 135.185 232.291 134.678 230.568 134.604C228.758 135.919 227.319 137.68 226.392 139.716L230.935 142.308Z" fill="black"/>
<path d="M213.474 136.079C210.882 136.043 205.777 139.327 204.87 141.35C203.962 143.373 200.384 170.078 202.609 172.756C205.395 176.111 218.197 183.715 224.209 183.499C229.148 183.326 234.001 179.582 234.75 178.257C235.974 176.097 234.318 146.577 232.741 144.064C230.163 140.061 216.786 136.137 213.474 136.079Z" fill="#0A7EEA"/>
<path opacity="0.2" d="M229.92 141.617L227.356 143.345C224.772 144.835 223.375 148.759 223.418 158.155C223.461 167.551 223.281 180.281 224.786 181.627C226.291 182.973 229.322 182.052 229.502 182.001C232.202 180.849 234.247 179.122 234.729 178.272C235.953 176.112 234.297 146.592 232.72 144.079C231.972 143.069 231.017 142.229 229.92 141.617Z" fill="black"/>
<path opacity="0.1" d="M233.851 179.28C232.087 180.921 228.163 183.376 224.189 183.52C218.206 183.729 205.397 176.126 202.589 172.771C200.371 170.1 203.899 143.488 204.85 141.364C205.8 139.24 210.862 136.065 213.454 136.094C216.046 136.123 225.233 138.729 229.898 141.616L227.335 143.344C224.758 144.835 223.354 148.759 223.404 158.162C223.454 167.565 223.26 180.288 224.765 181.627C226.27 182.966 229.301 182.052 229.481 182.001C231.076 181.338 232.553 180.419 233.851 179.28Z" fill="black"/>
<path d="M213.208 136.08C210.328 136.08 206.051 138.398 204.604 140.644C203.156 142.891 202.12 149.421 203.164 151.344C204.208 153.266 211.292 157.104 216.124 159.048C219.976 160.624 221.992 160.214 223.324 159.242C224.188 158.623 224.339 156.78 224.404 155.412C224.576 151.898 224.288 150.019 226.405 147.952C228.522 145.886 232.302 144.151 232.943 145.706C232.943 145.706 233.8 143.366 229.415 141.105C222.193 137.376 216.721 136.08 213.208 136.08Z" fill="#0A7EEA"/>
<path d="M217.29 154.599L219.839 155.563C219.839 155.563 219.5 163.318 219.515 166.363C219.515 166.363 218.917 167.667 218.363 167.883C217.808 168.099 217.081 166.637 216.966 165.535C216.851 164.434 217.024 157.227 217.29 154.599Z" fill="#455A64"/>
<path d="M217.219 155.203L219.811 156.096C219.878 156.125 219.95 156.136 220.023 156.13C220.095 156.123 220.165 156.099 220.225 156.059C220.286 156.019 220.336 155.965 220.37 155.901C220.405 155.837 220.423 155.766 220.423 155.693L220.524 154.447C220.524 154.307 220.483 154.169 220.407 154.052C220.33 153.934 220.22 153.841 220.092 153.785L217.492 152.849C217.427 152.821 217.356 152.809 217.285 152.814C217.214 152.82 217.146 152.843 217.086 152.882C217.026 152.92 216.977 152.973 216.942 153.035C216.907 153.097 216.889 153.167 216.888 153.238L216.794 154.548C216.794 154.687 216.834 154.822 216.91 154.938C216.985 155.055 217.092 155.147 217.219 155.203Z" fill="#37474F"/>
<path d="M218.199 164.239C218.407 164.335 218.584 164.486 218.711 164.677C218.838 164.868 218.91 165.09 218.919 165.319C218.932 165.41 218.92 165.502 218.884 165.587C218.849 165.671 218.791 165.745 218.717 165.799C218.643 165.853 218.555 165.886 218.464 165.894C218.373 165.902 218.281 165.885 218.199 165.844C217.989 165.75 217.811 165.599 217.684 165.408C217.556 165.217 217.485 164.994 217.479 164.764C217.493 164.311 217.81 164.08 218.199 164.239Z" fill="#E0E0E0"/>
<path d="M206.64 149.04L209.131 150.142C209.131 150.142 208.411 157.867 208.253 160.898C208.253 160.898 207.591 162.173 207.029 162.338C206.467 162.504 205.812 161.028 205.747 159.926C205.683 158.825 206.244 151.646 206.64 149.04Z" fill="#455A64"/>
<path d="M206.549 149.63L209.083 150.66C209.148 150.692 209.22 150.708 209.293 150.705C209.365 150.703 209.436 150.683 209.499 150.647C209.561 150.61 209.614 150.559 209.652 150.497C209.69 150.435 209.713 150.365 209.717 150.293L209.882 149.047C209.89 148.909 209.857 148.772 209.788 148.652C209.719 148.531 209.617 148.434 209.494 148.37L206.945 147.298C206.881 147.265 206.81 147.249 206.738 147.251C206.667 147.253 206.597 147.273 206.534 147.308C206.472 147.344 206.42 147.395 206.382 147.456C206.345 147.517 206.323 147.586 206.318 147.658L206.153 148.961C206.141 149.1 206.173 149.239 206.244 149.359C206.315 149.479 206.421 149.574 206.549 149.63Z" fill="#37474F"/>
<path d="M207.059 158.71C207.26 158.819 207.427 158.98 207.542 159.177C207.658 159.373 207.717 159.598 207.715 159.826C207.721 159.914 207.704 160.002 207.665 160.081C207.627 160.16 207.568 160.228 207.495 160.277C207.422 160.327 207.338 160.357 207.25 160.363C207.162 160.37 207.074 160.353 206.995 160.315C206.792 160.21 206.624 160.049 206.509 159.851C206.395 159.654 206.338 159.428 206.347 159.199C206.347 158.746 206.678 158.53 207.059 158.71Z" fill="#E0E0E0"/>
<path d="M203.906 163.829C203.906 166.932 203.819 168.213 203.956 169.704C203.975 170.315 204.15 170.912 204.464 171.437C204.777 171.963 205.22 172.399 205.749 172.706C207.254 173.772 213.741 177.185 215.656 178.099C218.003 179.208 220.559 179.949 220.523 178.099C220.523 176.508 220.523 173.124 220.523 171.965C220.523 170.525 219.803 169.61 216.923 168.264C214.166 166.989 208.024 163.533 206.325 162.763C204.885 162.137 203.913 162.9 203.906 163.829Z" fill="#0A7EEA"/>
<path d="M237.126 114.343C237.126 114.343 242.03 108.022 238.386 104.594C234.066 100.541 228.342 100.627 220.862 103.234C217.362 104.458 212.272 108.007 211.818 114.876C211.473 120.182 226.262 124.092 225.923 127.721L237.126 114.343Z" fill="#263238"/>
<path d="M238.387 117.101C238.387 117.101 240.388 120.312 240.108 120.643C239.609 120.952 239.061 121.171 238.488 121.291L238.387 117.101Z" fill="#F28F8F"/>
<path d="M232.266 106.906C234.268 108.014 237.731 110.052 238.429 117.562C239.149 125.273 237.371 127.901 236.269 128.88C235.549 129.535 231.892 129.686 230.005 129.046C227.636 128.239 222.546 125.554 220.235 121.522C217.513 116.777 217.096 110.534 220.444 108.187C225.181 104.882 230.567 105.977 232.266 106.906Z" fill="#FFA8A7"/>
<path d="M230.992 129.283C232.618 129.577 234.288 129.516 235.888 129.103C234.182 129.109 232.509 128.63 231.064 127.721L230.992 129.283Z" fill="#F28F8F"/>
<path d="M232.165 115.985C233.463 115.498 234.604 114.667 235.467 113.582C236.329 112.496 236.88 111.196 237.061 109.822C237.817 104.933 231.704 102.859 231.704 102.859L232.165 115.985Z" fill="#263238"/>
<path d="M231.517 122.71C231.114 123.351 229.537 123.955 227.874 122.227C226.211 120.499 226.268 117.36 228.659 116.633C231.049 115.906 232.194 118.678 232.194 118.678C234.441 114.307 232.857 107.244 232.857 107.244C232.857 107.244 227.644 101.88 219.177 104.443C214.633 105.819 212.301 110.563 211.797 114.099C211.293 117.634 209.932 123.948 211.696 126.238C213.46 128.527 220.271 132.07 226.391 131.775C232.511 131.479 232.525 130.27 232.525 130.27L231.589 122.544C231.589 122.544 231.575 122.609 231.517 122.71Z" fill="#263238"/>
<path d="M214.361 101.563C216.737 98.683 220.502 99.3526 223.433 99.835C226.363 100.317 230.633 100.728 229.913 102.715C229.193 104.702 227.033 106.481 221.993 105.991C216.953 105.501 216.024 105.991 214.893 107.323C214.865 107.28 211.567 105.955 214.361 101.563Z" fill="#FFA8A7"/>
</svg>
