<svg width="18" height="18" viewBox="0 0 18 18" fill="none" xmlns="http://www.w3.org/2000/svg">
<g id="Paper Plus">
<g id="Iconly/Light-Outline/Paper-Plus">
<g id="Paper-Plus">
<path id="Combined-Shape" fill-rule="evenodd" clip-rule="evenodd" d="M10.4809 1.5003C10.5131 1.5003 10.5447 1.50301 10.5754 1.50822L10.6777 1.50878C10.8307 1.50878 10.9769 1.57103 11.0834 1.68128L14.8829 5.64053C14.9827 5.74478 15.0389 5.88503 15.0389 6.02978V13.0048C15.0419 14.8565 13.5374 16.3798 11.6857 16.3993L5.54993 16.4C3.69518 16.3678 2.21918 14.84 2.25068 12.995V4.86803C2.29343 3.00728 3.83018 1.50878 5.67743 1.50878L10.3863 1.50822C10.4171 1.50301 10.4487 1.5003 10.4809 1.5003ZM9.91818 2.63355L5.67968 2.63378C4.43618 2.63378 3.40493 3.64028 3.37568 4.88153V13.0048C3.35393 14.24 4.33418 15.254 5.56043 15.275L5.67068 15.2743H11.6797C12.9112 15.2608 13.9154 14.243 13.9139 13.0055L13.9134 6.73755L12.4076 6.7383C11.0344 6.73455 9.91838 5.61555 9.91838 4.24455L9.91818 2.63355ZM8.5083 7.28573C8.8188 7.28573 9.0708 7.53773 9.0708 7.84823L9.07068 9.12255L10.3452 9.12308C10.6557 9.12308 10.9077 9.37508 10.9077 9.68558C10.9077 9.99608 10.6557 10.2481 10.3452 10.2481L9.07068 10.2476L9.0708 11.5232C9.0708 11.8337 8.8188 12.0857 8.5083 12.0857C8.1978 12.0857 7.9458 11.8337 7.9458 11.5232L7.94568 10.2476L6.67095 10.2481C6.36045 10.2481 6.10845 9.99608 6.10845 9.68558C6.10845 9.37508 6.36045 9.12308 6.67095 9.12308L7.94568 9.12255L7.9458 7.84823C7.9458 7.53773 8.1978 7.28573 8.5083 7.28573ZM11.0432 3.2643L11.0434 4.24455C11.0434 4.99755 11.6561 5.61105 12.4091 5.6133L13.2962 5.61255L11.0432 3.2643Z" fill="#171725"/>
</g>
</g>
</g>
</svg>
