<svg width="24" height="24" viewBox="0 0 24 24" fill="none" xmlns="http://www.w3.org/2000/svg">
<path fill-rule="evenodd" clip-rule="evenodd" d="M12.0004 21.5999C14.5465 21.5999 16.9883 20.5885 18.7886 18.7881C20.589 16.9878 21.6004 14.546 21.6004 11.9999C21.6004 9.45382 20.589 7.01203 18.7886 5.21168C16.9883 3.41133 14.5465 2.3999 12.0004 2.3999C9.45431 2.3999 7.01252 3.41133 5.21217 5.21168C3.41182 7.01203 2.40039 9.45382 2.40039 11.9999C2.40039 14.546 3.41182 16.9878 5.21217 18.7881C7.01252 20.5885 9.45431 21.5999 12.0004 21.5999ZM11.4664 8.6015C11.2857 8.48093 11.0756 8.41168 10.8586 8.40114C10.6416 8.3906 10.4258 8.43916 10.2343 8.54165C10.0427 8.64415 9.88258 8.79672 9.77094 8.98309C9.6593 9.16947 9.60036 9.38265 9.60039 9.5999V14.3999C9.60036 14.6172 9.6593 14.8303 9.77094 15.0167C9.88258 15.2031 10.0427 15.3557 10.2343 15.4582C10.4258 15.5606 10.6416 15.6092 10.8586 15.5987C11.0756 15.5881 11.2857 15.5189 11.4664 15.3983L15.0664 12.9983C15.2307 12.8887 15.3655 12.7403 15.4587 12.5661C15.5519 12.3919 15.6007 12.1974 15.6007 11.9999C15.6007 11.8024 15.5519 11.6079 15.4587 11.4337C15.3655 11.2596 15.2307 11.1111 15.0664 11.0015L11.4664 8.6015Z" fill="#18465A"/>
</svg>
