<svg width="21" height="21" viewBox="0 0 21 21" fill="none" xmlns="http://www.w3.org/2000/svg">
<path d="M3.76758 15.5498V8.65536C3.76758 5.62756 3.76758 4.11366 4.74389 3.17304C5.7202 2.23242 7.29154 2.23242 10.4342 2.23242C13.5769 2.23242 15.1483 2.23242 16.1246 3.17304C17.1009 4.11366 17.1009 5.62756 17.1009 8.65536V15.5498C17.1009 17.4713 17.1009 18.4321 16.4569 18.776C15.2097 19.4419 12.8702 17.2201 11.7592 16.5511C11.1149 16.1631 10.7927 15.9691 10.4342 15.9691C10.0757 15.9691 9.75358 16.1631 9.10924 16.5511C7.99824 17.2201 5.6588 19.4419 4.41162 18.776C3.76758 18.4321 3.76758 17.4713 3.76758 15.5498Z" stroke="#344054" stroke-width="1.5" stroke-linecap="round" stroke-linejoin="round"/>
<path d="M7.93457 10.0102C7.93457 10.0102 8.66374 10.0102 9.3929 11.3991C9.3929 11.3991 11.7091 7.92686 13.7679 7.23242" stroke="#344054" stroke-width="1.5" stroke-linecap="round" stroke-linejoin="round"/>
</svg>
