<svg width="24" height="25" viewBox="0 0 24 25" fill="none" xmlns="http://www.w3.org/2000/svg">
<path d="M16.0585 1.34033C17.423 1.34031 18.5286 1.34029 19.3993 1.46636C20.31 1.59822 21.0719 1.88112 21.6709 2.52626C22.2627 3.16352 22.5154 3.96061 22.6344 4.91393C22.75 5.8402 22.75 7.021 22.75 8.49996V9.68066C22.75 11.1596 22.75 12.3404 22.6344 13.2667C22.5154 14.22 22.2627 15.0171 21.6709 15.6544C21.0719 16.2995 20.31 16.5824 19.3993 16.7143C18.5286 16.8403 17.423 16.8403 16.0584 16.8403H11.9416C10.577 16.8403 9.47144 16.8403 8.60071 16.7143C7.68997 16.5824 6.92815 16.2995 6.32909 15.6544C5.73735 15.0171 5.48463 14.22 5.36561 13.2667C5.24997 12.3404 5.24998 11.1596 5.25 9.68066V8.50001C5.24998 7.02103 5.24997 5.84021 5.36561 4.91393C5.48463 3.96061 5.73735 3.16352 6.32909 2.52626C6.92815 1.88112 7.68997 1.59822 8.60071 1.46636C9.47143 1.34029 10.577 1.34031 11.9415 1.34033H16.0585Z" fill="#344054"/>
<path fill-rule="evenodd" clip-rule="evenodd" d="M7.08324 8.27763C7.10068 8.81238 6.67976 9.25996 6.1431 9.27733C4.62769 9.32638 4.11421 9.51873 3.78943 9.86767C3.55957 10.1146 3.38871 10.4813 3.29377 11.24C3.19623 12.0195 3.19445 13.0561 3.19445 14.5589V15.6036C3.19445 17.1064 3.19623 18.1431 3.29377 18.9225C3.38871 19.6812 3.55957 20.0479 3.78943 20.2949C4.00964 20.5315 4.32244 20.7009 4.99495 20.7981C5.7034 20.9004 6.65154 20.9028 8.05619 20.9028H11.9455C13.3502 20.9028 14.2983 20.9004 15.0067 20.7981C15.6792 20.7009 15.9921 20.5315 16.2123 20.2949C16.4141 20.078 16.5695 19.7699 16.6688 19.1893C16.7718 18.5865 16.7996 17.7866 16.8056 16.6432C16.8083 16.1082 17.2459 15.6767 17.7828 15.6795C18.3197 15.6823 18.7528 16.1182 18.75 16.6532C18.7441 17.782 18.7192 18.7335 18.5856 19.5147C18.4483 20.3181 18.1832 21.0265 17.6379 21.6124C17.0038 22.2937 16.2019 22.5832 15.2857 22.7155C14.4214 22.8404 13.3313 22.8403 12.0185 22.8403H7.98322C6.67034 22.8403 5.58025 22.8404 4.71599 22.7155C3.79982 22.5832 2.9979 22.2937 2.36375 21.6124C1.73924 20.9414 1.48292 20.1105 1.36427 19.1623C1.24995 18.2488 1.24997 17.0907 1.25 15.6684V14.4941C1.24997 13.0718 1.24995 11.9137 1.36427 11.0002C1.48292 10.0521 1.73924 9.22113 2.36375 8.55016C3.28608 7.55921 4.57446 7.38958 6.07997 7.34085C6.61663 7.32348 7.06581 7.74289 7.08324 8.27763Z" fill="#344054"/>
</svg>
