<svg width="20" height="21" viewBox="0 0 20 21" fill="none" xmlns="http://www.w3.org/2000/svg">
<path fill-rule="evenodd" clip-rule="evenodd" d="M14.136 15.3973C12.8155 16.5215 11.1038 17.2 9.23366 17.2C5.0547 17.2 1.66699 13.8123 1.66699 9.63332C1.66699 5.45436 5.0547 2.06665 9.23366 2.06665C13.4126 2.06665 16.8003 5.45436 16.8003 9.63332C16.8003 11.4921 16.1301 13.1944 15.018 14.5116L18.65 18.1436L17.7662 19.0275L14.136 15.3973ZM15.5503 9.63332C15.5503 13.1219 12.7223 15.95 9.23366 15.95C5.74506 15.95 2.91699 13.1219 2.91699 9.63332C2.91699 6.14472 5.74506 3.31665 9.23366 3.31665C12.7223 3.31665 15.5503 6.14472 15.5503 9.63332Z" fill="#808080"/>
</svg>
