<svg width="20" height="20" viewBox="0 0 20 20" fill="none" xmlns="http://www.w3.org/2000/svg">
<path fill-rule="evenodd" clip-rule="evenodd" d="M14.135 14.9974C12.8145 16.1216 11.1028 16.8001 9.23268 16.8001C5.05373 16.8001 1.66602 13.4124 1.66602 9.23342C1.66602 5.05446 5.05373 1.66675 9.23268 1.66675C13.4116 1.66675 16.7993 5.05446 16.7993 9.23342C16.7993 11.0922 16.1291 12.7945 15.0171 14.1117L18.6491 17.7437L17.7652 18.6276L14.135 14.9974ZM15.5493 9.23342C15.5493 12.722 12.7213 15.5501 9.23268 15.5501C5.74408 15.5501 2.91602 12.722 2.91602 9.23342C2.91602 5.74482 5.74408 2.91675 9.23268 2.91675C12.7213 2.91675 15.5493 5.74482 15.5493 9.23342Z" fill="#344054"/>
</svg>
