<svg width="16" height="16" viewBox="0 0 16 16" fill="none" xmlns="http://www.w3.org/2000/svg">
<path d="M12 4.66675C12.5163 4.7738 12.9059 4.95247 13.2189 5.25067C14 5.99462 14 7.19201 14 9.58675C14 11.9815 14 13.1788 13.2189 13.9228C12.4379 14.6667 11.1808 14.6667 8.66667 14.6667H7.33333C4.81917 14.6667 3.5621 14.6667 2.78105 13.9228C2 13.1788 2 11.9815 2 9.58675C2 7.19201 2 5.99462 2.78105 5.25067C3.09412 4.95247 3.48367 4.7738 4 4.66675" stroke="#18465A" stroke-width="1.5" stroke-linecap="round"/>
<path d="M8.01687 1.3336L8 9.33325M8.01687 1.3336C7.90847 1.32911 7.7994 1.36786 7.7022 1.44987C7.09793 1.95996 6 3.28583 6 3.28583M8.01687 1.3336C8.11407 1.33763 8.2108 1.37643 8.29787 1.44997C8.90207 1.96017 10 3.28583 10 3.28583" stroke="#18465A" stroke-width="1.5" stroke-linecap="round" stroke-linejoin="round"/>
</svg>
