<svg width="24" height="25" viewBox="0 0 24 25" fill="none" xmlns="http://www.w3.org/2000/svg">
<path d="M16.7808 7.61957C16.9215 7.76022 17.0005 7.95099 17.0005 8.1499V10.6499C17.0005 11.0641 16.6647 11.3999 16.2505 11.3999C15.8363 11.3999 15.5005 11.0641 15.5005 10.6499V9.96004L13.7801 11.6797C13.4871 11.9726 13.0123 11.9725 12.7194 11.6795C12.4266 11.3866 12.4267 10.9117 12.7197 10.6189L14.4393 8.8999H13.7493C13.3351 8.8999 12.9993 8.56411 12.9993 8.1499C12.9993 7.73569 13.3351 7.3999 13.7493 7.3999H16.2505C16.4494 7.3999 16.6402 7.47892 16.7808 7.61957ZM7 16.6498C7 16.8487 7.07902 17.0395 7.21967 17.1801C7.36032 17.3208 7.55109 17.3998 7.75 17.3998H10.2512C10.6654 17.3998 11.0012 17.064 11.0012 16.6498C11.0012 16.2356 10.6654 15.8998 10.2512 15.8998H9.56045L11.2804 14.1796C11.5732 13.8867 11.5732 13.4118 11.2803 13.1189C10.9874 12.826 10.5125 12.8261 10.2196 13.119L8.5 14.8389V14.1498C8.5 13.7356 8.16421 13.3998 7.75 13.3998C7.33579 13.3998 7 13.7356 7 14.1498V16.6498ZM2 7.1499C2 5.63112 3.23122 4.3999 4.75 4.3999H19.25C20.7688 4.3999 22 5.63112 22 7.1499V17.6499C22 19.1687 20.7688 20.3999 19.25 20.3999H4.75C3.23122 20.3999 2 19.1687 2 17.6499V7.1499ZM4.75 5.8999C4.05964 5.8999 3.5 6.45954 3.5 7.1499V17.6499C3.5 18.3403 4.05964 18.8999 4.75 18.8999H19.25C19.9404 18.8999 20.5 18.3403 20.5 17.6499V7.1499C20.5 6.45954 19.9404 5.8999 19.25 5.8999H4.75Z" fill="#344054"/>
</svg>
