<svg width="316" height="373" viewBox="0 0 316 373" fill="none" xmlns="http://www.w3.org/2000/svg">
<path d="M18 1L298 283M298 1L18 283" stroke="black"/>
<path d="M21.0596 324H19.9076V312.544H21.0756L27.3796 322.08V312.544H28.5156V324H27.3796L21.0596 314.464V324ZM34.3219 324.192C32.0499 324.192 30.5299 322.56 30.5299 320.128C30.5299 317.712 32.0339 316.048 34.2419 316.048C36.3379 316.048 37.7619 317.536 37.7619 319.728V320.272H31.6019C31.6819 322.16 32.6739 323.248 34.3379 323.248C35.6019 323.248 36.4179 322.704 36.7059 321.68H37.7619C37.3459 323.312 36.1459 324.192 34.3219 324.192ZM34.2419 316.992C32.7859 316.992 31.8259 317.952 31.6339 319.472H36.6579C36.6579 317.984 35.6979 316.992 34.2419 316.992ZM38.983 320.096C38.983 317.76 40.327 316.048 42.567 316.048C43.863 316.048 44.935 316.624 45.495 317.824L45.607 316.256H46.567V327.376H45.463V322.512C44.919 323.632 43.879 324.192 42.567 324.192C40.279 324.192 38.983 322.432 38.983 320.096ZM40.103 320.128C40.103 321.904 41.079 323.2 42.759 323.2C44.455 323.2 45.447 321.904 45.447 320.128C45.447 318.336 44.455 317.056 42.759 317.056C41.079 317.056 40.103 318.336 40.103 320.128ZM54.3108 316.256H55.4148V324H54.4548L54.3108 322.688C53.8788 323.584 52.8068 324.192 51.5908 324.192C49.7668 324.192 48.7747 322.944 48.7747 321.056V316.24H49.8948V320.704C49.8948 322.544 50.7108 323.2 51.9427 323.2C53.4308 323.2 54.3108 322.208 54.3108 320.368V316.256ZM60.8063 324.192C58.5343 324.192 57.0143 322.56 57.0143 320.128C57.0143 317.712 58.5182 316.048 60.7263 316.048C62.8223 316.048 64.2463 317.536 64.2463 319.728V320.272H58.0863C58.1663 322.16 59.1583 323.248 60.8223 323.248C62.0863 323.248 62.9023 322.704 63.1903 321.68H64.2463C63.8303 323.312 62.6303 324.192 60.8063 324.192ZM60.7263 316.992C59.2703 316.992 58.3103 317.952 58.1183 319.472H63.1423C63.1423 317.984 62.1823 316.992 60.7263 316.992ZM70.4489 327.376V316.256H71.4089L71.5209 317.824C72.0649 316.624 73.1529 316.048 74.4489 316.048C76.6889 316.048 78.0329 317.76 78.0329 320.096C78.0329 322.432 76.7369 324.192 74.4489 324.192C73.1369 324.192 72.0969 323.632 71.5529 322.512V327.376H70.4489ZM71.5689 320.128C71.5689 321.904 72.5609 323.2 74.2569 323.2C75.9369 323.2 76.9129 321.904 76.9129 320.128C76.9129 318.336 75.9369 317.056 74.2569 317.056C72.5609 317.056 71.5689 318.336 71.5689 320.128ZM79.2486 320.128C79.2486 317.76 80.9126 316.048 83.1846 316.048C85.4566 316.048 87.1206 317.76 87.1206 320.128C87.1206 322.48 85.4566 324.192 83.1846 324.192C80.9126 324.192 79.2486 322.48 79.2486 320.128ZM80.3686 320.112C80.3686 321.936 81.5206 323.2 83.1846 323.2C84.8326 323.2 86.0006 321.936 86.0006 320.112C86.0006 318.32 84.8326 317.04 83.1846 317.04C81.5206 317.04 80.3686 318.32 80.3686 320.112ZM92.9344 316.16V317.152H92.3264C90.9024 317.152 89.9904 318.112 89.9904 319.584V324H88.8864V316.256H89.9264L90.0064 317.456C90.3104 316.624 91.1264 316.08 92.2144 316.08C92.4544 316.08 92.6624 316.096 92.9344 316.16ZM98.45 316.16V317.152H97.842C96.418 317.152 95.506 318.112 95.506 319.584V324H94.402V316.256H95.442L95.522 317.456C95.826 316.624 96.642 316.08 97.73 316.08C97.97 316.08 98.178 316.096 98.45 316.16ZM99.0768 320.128C99.0768 317.76 100.741 316.048 103.013 316.048C105.285 316.048 106.949 317.76 106.949 320.128C106.949 322.48 105.285 324.192 103.013 324.192C100.741 324.192 99.0768 322.48 99.0768 320.128ZM100.197 320.112C100.197 321.936 101.349 323.2 103.013 323.2C104.661 323.2 105.829 321.936 105.829 320.112C105.829 318.32 104.661 317.04 103.013 317.04C101.349 317.04 100.197 318.32 100.197 320.112ZM112.608 320.096C112.608 317.76 113.952 316.048 116.192 316.048C117.488 316.048 118.56 316.624 119.12 317.824L119.232 316.256H120.192V327.376H119.088V322.512C118.544 323.632 117.504 324.192 116.192 324.192C113.904 324.192 112.608 322.432 112.608 320.096ZM113.728 320.128C113.728 321.904 114.704 323.2 116.384 323.2C118.08 323.2 119.072 321.904 119.072 320.128C119.072 318.336 118.08 317.056 116.384 317.056C114.704 317.056 113.728 318.336 113.728 320.128ZM127.936 316.256H129.04V324H128.08L127.936 322.688C127.504 323.584 126.432 324.192 125.216 324.192C123.392 324.192 122.4 322.944 122.4 321.056V316.24H123.52V320.704C123.52 322.544 124.336 323.2 125.568 323.2C127.056 323.2 127.936 322.208 127.936 320.368V316.256ZM131.884 314.128C131.436 314.128 131.068 313.76 131.068 313.312C131.068 312.864 131.436 312.48 131.884 312.48C132.332 312.48 132.716 312.864 132.716 313.312C132.716 313.76 132.332 314.128 131.884 314.128ZM131.34 324V316.256H132.444V324H131.34ZM134.09 321.824H135.146C135.146 322.72 135.818 323.28 136.906 323.28C138.106 323.28 138.81 322.768 138.81 321.936C138.81 321.296 138.49 320.928 137.578 320.704L136.25 320.368C134.906 320.032 134.25 319.328 134.25 318.272C134.25 316.912 135.386 316.048 137.05 316.048C138.682 316.048 139.738 316.944 139.786 318.384H138.714C138.682 317.488 138.058 316.96 137.018 316.96C135.93 316.96 135.322 317.424 135.322 318.256C135.322 318.848 135.738 319.264 136.586 319.472L137.914 319.808C139.258 320.144 139.866 320.768 139.866 321.888C139.866 323.28 138.682 324.192 136.922 324.192C135.178 324.192 134.09 323.264 134.09 321.824ZM141.139 320.096C141.139 317.76 142.483 316.048 144.723 316.048C146.019 316.048 147.091 316.624 147.651 317.824L147.763 316.256H148.723V327.376H147.619V322.512C147.075 323.632 146.035 324.192 144.723 324.192C142.435 324.192 141.139 322.432 141.139 320.096ZM142.259 320.128C142.259 321.904 143.235 323.2 144.915 323.2C146.611 323.2 147.603 321.904 147.603 320.128C147.603 318.336 146.611 317.056 144.915 317.056C143.235 317.056 142.259 318.336 142.259 320.128ZM156.467 316.256H157.571V324H156.611L156.467 322.688C156.035 323.584 154.963 324.192 153.747 324.192C151.923 324.192 150.931 322.944 150.931 321.056V316.24H152.051V320.704C152.051 322.544 152.867 323.2 154.099 323.2C155.587 323.2 156.467 322.208 156.467 320.368V316.256ZM162.095 324.192C160.447 324.192 159.471 323.264 159.471 321.904C159.471 320.48 160.559 319.584 162.367 319.44L164.927 319.232V318.976C164.927 317.456 164.015 316.976 162.879 316.976C161.535 316.976 160.735 317.584 160.735 318.624H159.727C159.727 317.056 161.007 316.048 162.911 316.048C164.703 316.048 166.015 316.944 166.015 318.992V324H165.087L164.943 322.64C164.463 323.616 163.407 324.192 162.095 324.192ZM162.351 323.296C163.983 323.296 164.927 322.16 164.927 320.48V320.064L162.639 320.24C161.183 320.368 160.591 321.008 160.591 321.872C160.591 322.816 161.295 323.296 162.351 323.296ZM169.334 324H168.23V316.256H169.19L169.318 317.36C169.702 316.544 170.566 316.048 171.654 316.048C172.87 316.048 173.782 316.688 174.15 317.696C174.502 316.688 175.446 316.048 176.694 316.048C178.374 316.048 179.478 317.136 179.478 318.928V324H178.406V319.152C178.406 317.824 177.67 317.04 176.486 317.04C175.19 317.04 174.422 318.016 174.422 319.216V324H173.334V319.136C173.334 317.824 172.582 317.056 171.414 317.056C170.118 317.056 169.334 318.016 169.334 319.2V324ZM189.384 324.192C187.112 324.192 185.592 322.56 185.592 320.128C185.592 317.712 187.096 316.048 189.304 316.048C191.4 316.048 192.824 317.536 192.824 319.728V320.272H186.664C186.744 322.16 187.736 323.248 189.4 323.248C190.664 323.248 191.48 322.704 191.768 321.68H192.824C192.408 323.312 191.208 324.192 189.384 324.192ZM189.304 316.992C187.848 316.992 186.888 317.952 186.696 319.472H191.72C191.72 317.984 190.76 316.992 189.304 316.992ZM193.934 321.824H194.99C194.99 322.72 195.662 323.28 196.75 323.28C197.95 323.28 198.654 322.768 198.654 321.936C198.654 321.296 198.334 320.928 197.422 320.704L196.094 320.368C194.75 320.032 194.094 319.328 194.094 318.272C194.094 316.912 195.23 316.048 196.894 316.048C198.526 316.048 199.582 316.944 199.63 318.384H198.558C198.526 317.488 197.902 316.96 196.862 316.96C195.774 316.96 195.166 317.424 195.166 318.256C195.166 318.848 195.582 319.264 196.43 319.472L197.758 319.808C199.102 320.144 199.71 320.768 199.71 321.888C199.71 323.28 198.526 324.192 196.766 324.192C195.022 324.192 193.934 323.264 193.934 321.824ZM203.303 324H202.215V317.184H200.663V316.256H202.215V313.808H203.303V316.256H204.855V317.184H203.303V324ZM207.76 323.456C207.76 324.448 206.992 325.312 206 325.456V324.864C206.576 324.768 206.992 324.352 206.992 323.904C206.896 323.968 206.768 324.016 206.576 324.016C206.128 324.016 205.744 323.696 205.744 323.152C205.744 322.592 206.128 322.192 206.688 322.192C207.264 322.192 207.76 322.656 207.76 323.456ZM213.889 320.096C213.889 317.76 215.233 316.048 217.473 316.048C218.769 316.048 219.841 316.624 220.401 317.824L220.513 316.256H221.473V327.376H220.369V322.512C219.825 323.632 218.785 324.192 217.473 324.192C215.185 324.192 213.889 322.432 213.889 320.096ZM215.009 320.128C215.009 321.904 215.985 323.2 217.665 323.2C219.361 323.2 220.353 321.904 220.353 320.128C220.353 318.336 219.361 317.056 217.665 317.056C215.985 317.056 215.009 318.336 215.009 320.128ZM229.217 316.256H230.321V324H229.361L229.217 322.688C228.785 323.584 227.713 324.192 226.497 324.192C224.673 324.192 223.681 322.944 223.681 321.056V316.24H224.801V320.704C224.801 322.544 225.617 323.2 226.849 323.2C228.337 323.2 229.217 322.208 229.217 320.368V316.256ZM233.165 314.128C232.717 314.128 232.349 313.76 232.349 313.312C232.349 312.864 232.717 312.48 233.165 312.48C233.613 312.48 233.997 312.864 233.997 313.312C233.997 313.76 233.613 314.128 233.165 314.128ZM232.621 324V316.256H233.725V324H232.621ZM243.505 324.192C241.249 324.192 239.921 322.464 239.921 320.144C239.921 317.808 241.249 316.048 243.553 316.048C244.833 316.048 245.857 316.608 246.401 317.728V312.336H247.505V324H246.545L246.433 322.416C245.889 323.616 244.801 324.192 243.505 324.192ZM243.697 323.184C245.393 323.184 246.385 321.904 246.385 320.112C246.385 318.336 245.393 317.04 243.697 317.04C242.017 317.04 241.041 318.336 241.041 320.112C241.041 321.904 242.017 323.184 243.697 323.184ZM249.264 320.128C249.264 317.76 250.928 316.048 253.2 316.048C255.472 316.048 257.136 317.76 257.136 320.128C257.136 322.48 255.472 324.192 253.2 324.192C250.928 324.192 249.264 322.48 249.264 320.128ZM250.384 320.112C250.384 321.936 251.536 323.2 253.2 323.2C254.848 323.2 256.016 321.936 256.016 320.112C256.016 318.32 254.848 317.04 253.2 317.04C251.536 317.04 250.384 318.32 250.384 320.112ZM260.054 324H258.95V312.336H260.054V324ZM261.858 320.128C261.858 317.76 263.522 316.048 265.794 316.048C268.066 316.048 269.73 317.76 269.73 320.128C269.73 322.48 268.066 324.192 265.794 324.192C263.522 324.192 261.858 322.48 261.858 320.128ZM262.978 320.112C262.978 321.936 264.13 323.2 265.794 323.2C267.442 323.2 268.61 321.936 268.61 320.112C268.61 318.32 267.442 317.04 265.794 317.04C264.13 317.04 262.978 318.32 262.978 320.112ZM275.544 316.16V317.152H274.936C273.512 317.152 272.6 318.112 272.6 319.584V324H271.496V316.256H272.536L272.616 317.456C272.92 316.624 273.736 316.08 274.824 316.08C275.064 316.08 275.272 316.096 275.544 316.16ZM279.963 324.192C277.691 324.192 276.171 322.56 276.171 320.128C276.171 317.712 277.674 316.048 279.883 316.048C281.979 316.048 283.403 317.536 283.403 319.728V320.272H277.243C277.323 322.16 278.315 323.248 279.979 323.248C281.243 323.248 282.059 322.704 282.347 321.68H283.403C282.987 323.312 281.787 324.192 279.963 324.192ZM279.883 316.992C278.427 316.992 277.467 317.952 277.275 319.472H282.299C282.299 317.984 281.339 316.992 279.883 316.992ZM286.272 324H285.168V316.256H286.128L286.256 317.36C286.64 316.544 287.504 316.048 288.592 316.048C289.808 316.048 290.72 316.688 291.088 317.696C291.44 316.688 292.384 316.048 293.632 316.048C295.312 316.048 296.416 317.136 296.416 318.928V324H295.344V319.152C295.344 317.824 294.608 317.04 293.424 317.04C292.128 317.04 291.36 318.016 291.36 319.216V324H290.272V319.136C290.272 317.824 289.52 317.056 288.352 317.056C287.056 317.056 286.272 318.016 286.272 319.2V324ZM24.8679 336.128C24.4199 336.128 24.0519 335.76 24.0519 335.312C24.0519 334.864 24.4199 334.48 24.8679 334.48C25.3159 334.48 25.6999 334.864 25.6999 335.312C25.6999 335.76 25.3159 336.128 24.8679 336.128ZM24.3239 346V338.256H25.4279V346H24.3239ZM27.7301 349.376V338.256H28.6901L28.8021 339.824C29.3461 338.624 30.4341 338.048 31.7301 338.048C33.9701 338.048 35.3141 339.76 35.3141 342.096C35.3141 344.432 34.0181 346.192 31.7301 346.192C30.4181 346.192 29.3781 345.632 28.8341 344.512V349.376H27.7301ZM28.8501 342.128C28.8501 343.904 29.8421 345.2 31.5381 345.2C33.2181 345.2 34.1941 343.904 34.1941 342.128C34.1941 340.336 33.2181 339.056 31.5381 339.056C29.8421 339.056 28.8501 340.336 28.8501 342.128ZM36.4179 343.824H37.4739C37.4739 344.72 38.1459 345.28 39.2339 345.28C40.4339 345.28 41.1379 344.768 41.1379 343.936C41.1379 343.296 40.8179 342.928 39.9059 342.704L38.5779 342.368C37.2339 342.032 36.5779 341.328 36.5779 340.272C36.5779 338.912 37.7139 338.048 39.3779 338.048C41.0099 338.048 42.0659 338.944 42.1139 340.384H41.0419C41.0099 339.488 40.3859 338.96 39.3459 338.96C38.2579 338.96 37.6499 339.424 37.6499 340.256C37.6499 340.848 38.0659 341.264 38.9139 341.472L40.2419 341.808C41.5859 342.144 42.1939 342.768 42.1939 343.888C42.1939 345.28 41.0099 346.192 39.2499 346.192C37.5059 346.192 36.4179 345.264 36.4179 343.824ZM49.4514 338.256H50.5554V346H49.5954L49.4514 344.688C49.0194 345.584 47.9474 346.192 46.7314 346.192C44.9074 346.192 43.9154 344.944 43.9154 343.056V338.24H45.0354V342.704C45.0354 344.544 45.8514 345.2 47.0834 345.2C48.5714 345.2 49.4514 344.208 49.4514 342.368V338.256ZM53.9591 346H52.8551V338.256H53.8151L53.9431 339.36C54.3271 338.544 55.1911 338.048 56.2791 338.048C57.4951 338.048 58.4071 338.688 58.7751 339.696C59.1271 338.688 60.0711 338.048 61.3191 338.048C62.9991 338.048 64.1031 339.136 64.1031 340.928V346H63.0311V341.152C63.0311 339.824 62.2951 339.04 61.1111 339.04C59.8151 339.04 59.0471 340.016 59.0471 341.216V346H57.9591V341.136C57.9591 339.824 57.2071 339.056 56.0391 339.056C54.7431 339.056 53.9591 340.016 53.9591 341.2V346ZM70.2174 342.096C70.2174 339.76 71.5614 338.048 73.8014 338.048C75.0974 338.048 76.1694 338.624 76.7294 339.824L76.8414 338.256H77.8014V349.376H76.6974V344.512C76.1534 345.632 75.1134 346.192 73.8014 346.192C71.5134 346.192 70.2174 344.432 70.2174 342.096ZM71.3374 342.128C71.3374 343.904 72.3134 345.2 73.9934 345.2C75.6894 345.2 76.6814 343.904 76.6814 342.128C76.6814 340.336 75.6894 339.056 73.9934 339.056C72.3134 339.056 71.3374 340.336 71.3374 342.128ZM85.5451 338.256H86.6491V346H85.6891L85.5451 344.688C85.1131 345.584 84.0411 346.192 82.8251 346.192C81.0011 346.192 80.0091 344.944 80.0091 343.056V338.24H81.1291V342.704C81.1291 344.544 81.9451 345.2 83.1771 345.2C84.6651 345.2 85.5451 344.208 85.5451 342.368V338.256ZM89.4929 336.128C89.0449 336.128 88.6769 335.76 88.6769 335.312C88.6769 334.864 89.0449 334.48 89.4929 334.48C89.9409 334.48 90.3249 334.864 90.3249 335.312C90.3249 335.76 89.9409 336.128 89.4929 336.128ZM88.9489 346V338.256H90.0529V346H88.9489ZM94.5791 346.192C92.9311 346.192 91.9551 345.264 91.9551 343.904C91.9551 342.48 93.0431 341.584 94.8511 341.44L97.4111 341.232V340.976C97.4111 339.456 96.4991 338.976 95.3631 338.976C94.0191 338.976 93.2191 339.584 93.2191 340.624H92.2111C92.2111 339.056 93.4911 338.048 95.3951 338.048C97.1871 338.048 98.4991 338.944 98.4991 340.992V346H97.5711L97.4271 344.64C96.9471 345.616 95.8911 346.192 94.5791 346.192ZM94.8351 345.296C96.4671 345.296 97.4111 344.16 97.4111 342.48V342.064L95.1231 342.24C93.6671 342.368 93.0751 343.008 93.0751 343.872C93.0751 344.816 93.7791 345.296 94.8351 345.296ZM108.192 346.192C105.936 346.192 104.608 344.464 104.608 342.144C104.608 339.808 105.936 338.048 108.24 338.048C109.52 338.048 110.544 338.608 111.088 339.728V334.336H112.192V346H111.232L111.12 344.416C110.576 345.616 109.488 346.192 108.192 346.192ZM108.384 345.184C110.08 345.184 111.072 343.904 111.072 342.112C111.072 340.336 110.08 339.04 108.384 339.04C106.704 339.04 105.728 340.336 105.728 342.112C105.728 343.904 106.704 345.184 108.384 345.184ZM113.952 342.128C113.952 339.76 115.616 338.048 117.888 338.048C120.16 338.048 121.824 339.76 121.824 342.128C121.824 344.48 120.16 346.192 117.888 346.192C115.616 346.192 113.952 344.48 113.952 342.128ZM115.072 342.112C115.072 343.936 116.224 345.2 117.888 345.2C119.536 345.2 120.704 343.936 120.704 342.112C120.704 340.32 119.536 339.04 117.888 339.04C116.224 339.04 115.072 340.32 115.072 342.112ZM124.742 346H123.638V334.336H124.742V346ZM126.546 342.128C126.546 339.76 128.21 338.048 130.482 338.048C132.754 338.048 134.418 339.76 134.418 342.128C134.418 344.48 132.754 346.192 130.482 346.192C128.21 346.192 126.546 344.48 126.546 342.128ZM127.666 342.112C127.666 343.936 128.818 345.2 130.482 345.2C132.13 345.2 133.298 343.936 133.298 342.112C133.298 340.32 132.13 339.04 130.482 339.04C128.818 339.04 127.666 340.32 127.666 342.112ZM140.231 338.16V339.152H139.623C138.199 339.152 137.287 340.112 137.287 341.584V346H136.183V338.256H137.223L137.303 339.456C137.607 338.624 138.423 338.08 139.511 338.08C139.751 338.08 139.959 338.096 140.231 338.16ZM145.48 343.824H146.536C146.536 344.72 147.208 345.28 148.296 345.28C149.496 345.28 150.2 344.768 150.2 343.936C150.2 343.296 149.88 342.928 148.968 342.704L147.64 342.368C146.296 342.032 145.64 341.328 145.64 340.272C145.64 338.912 146.776 338.048 148.44 338.048C150.072 338.048 151.128 338.944 151.176 340.384H150.104C150.072 339.488 149.448 338.96 148.408 338.96C147.32 338.96 146.712 339.424 146.712 340.256C146.712 340.848 147.128 341.264 147.976 341.472L149.304 341.808C150.648 342.144 151.256 342.768 151.256 343.888C151.256 345.28 150.072 346.192 148.312 346.192C146.568 346.192 145.48 345.264 145.48 343.824ZM153.618 336.128C153.17 336.128 152.802 335.76 152.802 335.312C152.802 334.864 153.17 334.48 153.618 334.48C154.066 334.48 154.45 334.864 154.45 335.312C154.45 335.76 154.066 336.128 153.618 336.128ZM153.074 346V338.256H154.178V346H153.074ZM158.256 346H157.168V339.184H155.616V338.256H157.168V335.808H158.256V338.256H159.808V339.184H158.256V346ZM167.907 346.192C166.259 346.192 165.283 345.264 165.283 343.904C165.283 342.48 166.371 341.584 168.179 341.44L170.739 341.232V340.976C170.739 339.456 169.827 338.976 168.691 338.976C167.347 338.976 166.547 339.584 166.547 340.624H165.539C165.539 339.056 166.819 338.048 168.723 338.048C170.515 338.048 171.827 338.944 171.827 340.992V346H170.899L170.755 344.64C170.275 345.616 169.219 346.192 167.907 346.192ZM168.163 345.296C169.795 345.296 170.739 344.16 170.739 342.48V342.064L168.451 342.24C166.995 342.368 166.403 343.008 166.403 343.872C166.403 344.816 167.107 345.296 168.163 345.296ZM175.147 346H174.043V338.256H175.003L175.131 339.36C175.515 338.544 176.379 338.048 177.467 338.048C178.683 338.048 179.595 338.688 179.963 339.696C180.315 338.688 181.259 338.048 182.507 338.048C184.187 338.048 185.291 339.136 185.291 340.928V346H184.219V341.152C184.219 339.824 183.483 339.04 182.299 339.04C181.003 339.04 180.235 340.016 180.235 341.216V346H179.147V341.136C179.147 339.824 178.395 339.056 177.227 339.056C175.931 339.056 175.147 340.016 175.147 341.2V346ZM190.759 346.192C188.487 346.192 186.967 344.56 186.967 342.128C186.967 339.712 188.471 338.048 190.679 338.048C192.775 338.048 194.199 339.536 194.199 341.728V342.272H188.039C188.119 344.16 189.111 345.248 190.775 345.248C192.039 345.248 192.855 344.704 193.143 343.68H194.199C193.783 345.312 192.583 346.192 190.759 346.192ZM190.679 338.992C189.223 338.992 188.263 339.952 188.071 341.472H193.095C193.095 339.984 192.135 338.992 190.679 338.992ZM197.662 346H196.574V339.184H195.022V338.256H196.574V335.808H197.662V338.256H199.214V339.184H197.662V346ZM202.12 345.456C202.12 346.448 201.352 347.312 200.36 347.456V346.864C200.936 346.768 201.352 346.352 201.352 345.904C201.256 345.968 201.128 346.016 200.936 346.016C200.488 346.016 200.104 345.696 200.104 345.152C200.104 344.592 200.488 344.192 201.048 344.192C201.624 344.192 202.12 344.656 202.12 345.456ZM208.249 342.144C208.249 339.712 209.737 338.048 211.993 338.048C213.785 338.048 215.097 339.088 215.401 340.688H214.297C214.009 339.616 213.081 339.024 212.009 339.024C210.441 339.024 209.337 340.224 209.337 342.128C209.337 343.968 210.361 345.2 211.929 345.2C213.081 345.2 214.009 344.56 214.313 343.568H215.433C215.065 345.152 213.689 346.192 211.929 346.192C209.737 346.192 208.249 344.576 208.249 342.144ZM216.561 342.128C216.561 339.76 218.225 338.048 220.497 338.048C222.769 338.048 224.433 339.76 224.433 342.128C224.433 344.48 222.769 346.192 220.497 346.192C218.225 346.192 216.561 344.48 216.561 342.128ZM217.681 342.112C217.681 343.936 218.833 345.2 220.497 345.2C222.145 345.2 223.313 343.936 223.313 342.112C223.313 340.32 222.145 339.04 220.497 339.04C218.833 339.04 217.681 340.32 217.681 342.112ZM227.303 346H226.199V338.256H227.159L227.319 339.6C227.831 338.608 228.855 338.048 229.975 338.048C232.103 338.048 232.983 339.312 232.983 341.264V346H231.879V341.504C231.879 339.696 231.063 339.056 229.783 339.056C228.199 339.056 227.303 340.208 227.303 341.952V346ZM234.434 343.824H235.49C235.49 344.72 236.162 345.28 237.25 345.28C238.45 345.28 239.154 344.768 239.154 343.936C239.154 343.296 238.834 342.928 237.922 342.704L236.594 342.368C235.25 342.032 234.594 341.328 234.594 340.272C234.594 338.912 235.73 338.048 237.394 338.048C239.026 338.048 240.082 338.944 240.13 340.384H239.058C239.026 339.488 238.402 338.96 237.362 338.96C236.274 338.96 235.666 339.424 235.666 340.256C235.666 340.848 236.082 341.264 236.93 341.472L238.258 341.808C239.602 342.144 240.21 342.768 240.21 343.888C240.21 345.28 239.026 346.192 237.266 346.192C235.522 346.192 234.434 345.264 234.434 343.824ZM245.275 346.192C243.003 346.192 241.483 344.56 241.483 342.128C241.483 339.712 242.987 338.048 245.195 338.048C247.291 338.048 248.715 339.536 248.715 341.728V342.272H242.555C242.635 344.16 243.627 345.248 245.291 345.248C246.555 345.248 247.371 344.704 247.659 343.68H248.715C248.299 345.312 247.099 346.192 245.275 346.192ZM245.195 338.992C243.739 338.992 242.779 339.952 242.587 341.472H247.611C247.611 339.984 246.651 338.992 245.195 338.992ZM249.936 342.144C249.936 339.712 251.424 338.048 253.68 338.048C255.472 338.048 256.784 339.088 257.088 340.688H255.984C255.696 339.616 254.768 339.024 253.696 339.024C252.128 339.024 251.024 340.224 251.024 342.128C251.024 343.968 252.048 345.2 253.616 345.2C254.768 345.2 255.696 344.56 256 343.568H257.12C256.752 345.152 255.376 346.192 253.616 346.192C251.424 346.192 249.936 344.576 249.936 342.144ZM260.569 346H259.481V339.184H257.929V338.256H259.481V335.808H260.569V338.256H262.121V339.184H260.569V346ZM266.728 346.192C264.456 346.192 262.936 344.56 262.936 342.128C262.936 339.712 264.44 338.048 266.648 338.048C268.744 338.048 270.168 339.536 270.168 341.728V342.272H264.008C264.088 344.16 265.08 345.248 266.744 345.248C268.008 345.248 268.824 344.704 269.112 343.68H270.168C269.752 345.312 268.552 346.192 266.728 346.192ZM266.648 338.992C265.192 338.992 264.232 339.952 264.04 341.472H269.064C269.064 339.984 268.104 338.992 266.648 338.992ZM273.631 346H272.543V339.184H270.991V338.256H272.543V335.808H273.631V338.256H275.183V339.184H273.631V346ZM282.061 338.256H283.165V346H282.205L282.061 344.688C281.629 345.584 280.557 346.192 279.341 346.192C277.517 346.192 276.525 344.944 276.525 343.056V338.24H277.645V342.704C277.645 344.544 278.461 345.2 279.693 345.2C281.181 345.2 282.061 344.208 282.061 342.368V338.256ZM289.513 338.16V339.152H288.905C287.481 339.152 286.569 340.112 286.569 341.584V346H285.465V338.256H286.505L286.585 339.456C286.889 338.624 287.705 338.08 288.793 338.08C289.033 338.08 289.241 338.096 289.513 338.16ZM291.745 345.456C291.745 346.448 290.977 347.312 289.985 347.456V346.864C290.561 346.768 290.977 346.352 290.977 345.904C290.881 345.968 290.753 346.016 290.561 346.016C290.113 346.016 289.729 345.696 289.729 345.152C289.729 344.592 290.113 344.192 290.673 344.192C291.249 344.192 291.745 344.656 291.745 345.456ZM91.3682 368.192C89.7202 368.192 88.7442 367.264 88.7442 365.904C88.7442 364.48 89.8322 363.584 91.6402 363.44L94.2002 363.232V362.976C94.2002 361.456 93.2882 360.976 92.1522 360.976C90.8082 360.976 90.0082 361.584 90.0082 362.624H89.0002C89.0002 361.056 90.2802 360.048 92.1842 360.048C93.9762 360.048 95.2882 360.944 95.2882 362.992V368H94.3602L94.2162 366.64C93.7362 367.616 92.6802 368.192 91.3682 368.192ZM91.6242 367.296C93.2562 367.296 94.2002 366.16 94.2002 364.48V364.064L91.9122 364.24C90.4562 364.368 89.8642 365.008 89.8642 365.872C89.8642 366.816 90.5682 367.296 91.6242 367.296ZM100.544 368.192C98.2876 368.192 96.9596 366.464 96.9596 364.144C96.9596 361.808 98.2876 360.048 100.592 360.048C101.872 360.048 102.896 360.608 103.44 361.728V356.336H104.544V368H103.584L103.472 366.416C102.928 367.616 101.84 368.192 100.544 368.192ZM100.736 367.184C102.432 367.184 103.424 365.904 103.424 364.112C103.424 362.336 102.432 361.04 100.736 361.04C99.0556 361.04 98.0796 362.336 98.0796 364.112C98.0796 365.904 99.0556 367.184 100.736 367.184ZM107.391 358.128C106.943 358.128 106.575 357.76 106.575 357.312C106.575 356.864 106.943 356.48 107.391 356.48C107.839 356.48 108.223 356.864 108.223 357.312C108.223 357.76 107.839 358.128 107.391 358.128ZM106.847 368V360.256H107.951V368H106.847ZM110.254 371.376V360.256H111.214L111.326 361.824C111.87 360.624 112.958 360.048 114.254 360.048C116.494 360.048 117.838 361.76 117.838 364.096C117.838 366.432 116.542 368.192 114.254 368.192C112.942 368.192 111.902 367.632 111.358 366.512V371.376H110.254ZM111.374 364.128C111.374 365.904 112.366 367.2 114.062 367.2C115.742 367.2 116.718 365.904 116.718 364.128C116.718 362.336 115.742 361.056 114.062 361.056C112.366 361.056 111.374 362.336 111.374 364.128ZM120.141 358.128C119.693 358.128 119.325 357.76 119.325 357.312C119.325 356.864 119.693 356.48 120.141 356.48C120.589 356.48 120.973 356.864 120.973 357.312C120.973 357.76 120.589 358.128 120.141 358.128ZM119.597 368V360.256H120.701V368H119.597ZM122.348 365.824H123.404C123.404 366.72 124.076 367.28 125.164 367.28C126.364 367.28 127.068 366.768 127.068 365.936C127.068 365.296 126.748 364.928 125.836 364.704L124.508 364.368C123.164 364.032 122.508 363.328 122.508 362.272C122.508 360.912 123.644 360.048 125.308 360.048C126.94 360.048 127.996 360.944 128.044 362.384H126.972C126.94 361.488 126.316 360.96 125.276 360.96C124.188 360.96 123.58 361.424 123.58 362.256C123.58 362.848 123.996 363.264 124.844 363.472L126.172 363.808C127.516 364.144 128.124 364.768 128.124 365.888C128.124 367.28 126.94 368.192 125.18 368.192C123.436 368.192 122.348 367.264 122.348 365.824ZM129.397 364.144C129.397 361.712 130.885 360.048 133.141 360.048C134.933 360.048 136.245 361.088 136.549 362.688H135.445C135.157 361.616 134.229 361.024 133.157 361.024C131.589 361.024 130.485 362.224 130.485 364.128C130.485 365.968 131.509 367.2 133.077 367.2C134.229 367.2 135.157 366.56 135.461 365.568H136.581C136.213 367.152 134.837 368.192 133.077 368.192C130.885 368.192 129.397 366.576 129.397 364.144ZM138.798 358.128C138.35 358.128 137.982 357.76 137.982 357.312C137.982 356.864 138.35 356.48 138.798 356.48C139.246 356.48 139.63 356.864 139.63 357.312C139.63 357.76 139.246 358.128 138.798 358.128ZM138.254 368V360.256H139.358V368H138.254ZM148.257 368L145.089 360.256H146.273L148.273 365.248C148.481 365.808 148.689 366.336 148.833 366.848C148.977 366.32 149.185 365.808 149.409 365.248L151.441 360.256H152.577L149.361 368H148.257ZM156.783 368.192C154.511 368.192 152.991 366.56 152.991 364.128C152.991 361.712 154.495 360.048 156.703 360.048C158.799 360.048 160.223 361.536 160.223 363.728V364.272H154.063C154.143 366.16 155.135 367.248 156.799 367.248C158.063 367.248 158.879 366.704 159.167 365.68H160.223C159.807 367.312 158.607 368.192 156.783 368.192ZM156.703 360.992C155.247 360.992 154.287 361.952 154.095 363.472H159.119C159.119 361.984 158.159 360.992 156.703 360.992ZM163.14 368H162.036V356.336H163.14V368ZM166.032 358.128C165.584 358.128 165.216 357.76 165.216 357.312C165.216 356.864 165.584 356.48 166.032 356.48C166.48 356.48 166.864 356.864 166.864 357.312C166.864 357.76 166.48 358.128 166.032 358.128ZM165.488 368V360.256H166.592V368H165.488ZM170.67 368H169.582V361.184H168.03V360.256H169.582V357.808H170.67V360.256H172.222V361.184H170.67V368ZM175.127 367.456C175.127 368.448 174.359 369.312 173.367 369.456V368.864C173.943 368.768 174.359 368.352 174.359 367.904C174.263 367.968 174.135 368.016 173.943 368.016C173.495 368.016 173.111 367.696 173.111 367.152C173.111 366.592 173.495 366.192 174.055 366.192C174.631 366.192 175.127 366.656 175.127 367.456ZM181.144 365.824H182.2C182.2 366.72 182.872 367.28 183.96 367.28C185.16 367.28 185.864 366.768 185.864 365.936C185.864 365.296 185.544 364.928 184.632 364.704L183.304 364.368C181.96 364.032 181.304 363.328 181.304 362.272C181.304 360.912 182.44 360.048 184.104 360.048C185.736 360.048 186.792 360.944 186.84 362.384H185.768C185.736 361.488 185.112 360.96 184.072 360.96C182.984 360.96 182.376 361.424 182.376 362.256C182.376 362.848 182.792 363.264 183.64 363.472L184.968 363.808C186.312 364.144 186.92 364.768 186.92 365.888C186.92 367.28 185.736 368.192 183.976 368.192C182.232 368.192 181.144 367.264 181.144 365.824ZM191.986 368.192C189.714 368.192 188.194 366.56 188.194 364.128C188.194 361.712 189.698 360.048 191.906 360.048C194.002 360.048 195.426 361.536 195.426 363.728V364.272H189.266C189.346 366.16 190.338 367.248 192.002 367.248C193.266 367.248 194.082 366.704 194.37 365.68H195.426C195.01 367.312 193.81 368.192 191.986 368.192ZM191.906 360.992C190.45 360.992 189.49 361.952 189.298 363.472H194.322C194.322 361.984 193.362 360.992 191.906 360.992ZM200.231 368.192C197.975 368.192 196.647 366.464 196.647 364.144C196.647 361.808 197.975 360.048 200.279 360.048C201.559 360.048 202.583 360.608 203.127 361.728V356.336H204.231V368H203.271L203.159 366.416C202.615 367.616 201.527 368.192 200.231 368.192ZM200.423 367.184C202.119 367.184 203.111 365.904 203.111 364.112C203.111 362.336 202.119 361.04 200.423 361.04C198.743 361.04 197.767 362.336 197.767 364.112C197.767 365.904 198.743 367.184 200.423 367.184ZM210.428 364.096C210.428 361.76 211.772 360.048 214.012 360.048C215.308 360.048 216.38 360.624 216.94 361.824L217.052 360.256H218.012V371.376H216.908V366.512C216.364 367.632 215.324 368.192 214.012 368.192C211.724 368.192 210.428 366.432 210.428 364.096ZM211.548 364.128C211.548 365.904 212.524 367.2 214.204 367.2C215.9 367.2 216.892 365.904 216.892 364.128C216.892 362.336 215.9 361.056 214.204 361.056C212.524 361.056 211.548 362.336 211.548 364.128ZM225.756 360.256H226.86V368H225.9L225.756 366.688C225.324 367.584 224.252 368.192 223.036 368.192C221.212 368.192 220.22 366.944 220.22 365.056V360.24H221.34V364.704C221.34 366.544 222.156 367.2 223.388 367.2C224.876 367.2 225.756 366.208 225.756 364.368V360.256Z" fill="black"/>
</svg>
