<svg width="25" height="24" viewBox="0 0 25 24" fill="none" xmlns="http://www.w3.org/2000/svg">
<path d="M3.43457 6.25C3.43457 4.45507 4.88964 3 6.68457 3H18.1846C19.9795 3 21.4346 4.45507 21.4346 6.25V17.75C21.4346 19.5449 19.9795 21 18.1846 21H6.68457C4.88964 21 3.43457 19.5449 3.43457 17.75V6.25ZM6.68457 4.5C5.71807 4.5 4.93457 5.2835 4.93457 6.25V17.75C4.93457 18.7165 5.71807 19.5 6.68457 19.5H18.1846C19.1511 19.5 19.9346 18.7165 19.9346 17.75V6.25C19.9346 5.2835 19.1511 4.5 18.1846 4.5H6.68457Z" fill="#18465A"/>
</svg>
