<svg width="24" height="25" viewBox="0 0 24 25" fill="none" xmlns="http://www.w3.org/2000/svg">
<path d="M10 11.849L5.07498 17.6432C4.41411 18.4207 3.23201 18.4681 2.51138 17.7458C1.79074 17.0236 1.83795 15.8389 2.61376 15.1766L8.3953 10.2407" stroke="#344054" stroke-width="1.5" stroke-linejoin="round"/>
<path d="M18 10.2884L13.0476 15.2517M9.95238 2.22314L5 7.1864M9.33337 2.84351L5.61908 6.56596C5.61908 6.56596 7.47622 9.04759 9.33337 10.9088C11.1905 12.7701 13.6667 14.6313 13.6667 14.6313L17.381 10.9088C17.381 10.9088 15.5238 8.42718 13.6667 6.56596C11.8096 4.70474 9.33337 2.84351 9.33337 2.84351Z" stroke="#344054" stroke-width="1.5" stroke-linecap="round" stroke-linejoin="round"/>
<path d="M20 11.8807L22 10.2407M20 15.1606L22 16.2539" stroke="#344054" stroke-width="1.5" stroke-linecap="round" stroke-linejoin="round"/>
<path d="M11.002 22.2202H20.9998M12.2267 22.2202C12.7782 21.2328 13.19 19.3431 15.142 19.2372C15.7218 19.2058 16.3117 19.2058 16.8914 19.2372C18.8434 19.3431 19.2572 21.2328 19.8087 22.2202" stroke="#344054" stroke-width="1.5" stroke-linecap="round" stroke-linejoin="round"/>
</svg>
