<svg width="16" height="16" viewBox="0 0 16 16" fill="none" xmlns="http://www.w3.org/2000/svg">
<path d="M11.3335 2.66667L8.82682 2.04C8.72109 2.0135 8.6125 2.00007 8.50349 2H5.82482C5.57716 2.00001 5.3344 2.069 5.12374 2.19923C4.91308 2.32946 4.74286 2.51579 4.63216 2.73733L2.29882 7.404C2.19725 7.60728 2.14931 7.83315 2.15956 8.06016C2.16981 8.28717 2.23792 8.5078 2.35741 8.70109C2.4769 8.89438 2.64381 9.05393 2.84229 9.16458C3.04077 9.27524 3.26425 9.33333 3.49149 9.33333H6.66749H8.00082M11.3335 2.66667L11.3342 8.66667L9.07282 12.0587C8.80816 12.4553 8.66749 12.9207 8.66749 13.3973C8.66749 13.73 8.39749 14 8.06416 14H8.00016C7.64654 14 7.3074 13.8595 7.05735 13.6095C6.8073 13.3594 6.66682 13.0203 6.66682 12.6667V9.33333M11.3335 2.66667H12.6675C13.0211 2.66667 13.3603 2.80714 13.6103 3.05719C13.8603 3.30724 14.0008 3.64638 14.0008 4V8C14.0008 8.35362 13.8603 8.69276 13.6103 8.94281C13.3603 9.19286 13.0211 9.33333 12.6675 9.33333H11.0008" stroke="#344054" stroke-linecap="round" stroke-linejoin="round"/>
</svg>
