<svg width="24" height="25" viewBox="0 0 24 25" fill="none" xmlns="http://www.w3.org/2000/svg">
<path d="M14.062 11.8528L14.5621 11.3527C15.0032 10.9116 15.2238 10.691 15.5133 10.7825C15.8029 10.8741 15.8486 11.1359 15.9401 11.6595C15.9795 11.8847 16 12.1164 16 12.3528C16 14.5619 14.2091 16.3528 12 16.3528C11.4695 16.3528 10.9632 16.2495 10.5 16.062M10 12.8879L9.45585 13.4321C9.0216 13.8663 8.80447 14.0835 8.51776 13.9966C8.23106 13.9097 8.17985 13.6531 8.07744 13.14C8.02664 12.8855 8 12.6223 8 12.3528C8 10.1436 9.79086 8.35278 12 8.35278C12.5305 8.35278 13.0368 8.45603 13.5 8.64354" stroke="#344054" stroke-width="1.5" stroke-linecap="round" stroke-linejoin="round"/>
<path d="M21.011 14.4494C21.5329 14.3087 21.7939 14.2383 21.8969 14.1037C22 13.9692 22 13.7526 22 13.3197V11.3861C22 10.9532 22 10.7366 21.8969 10.6021C21.7938 10.4675 21.5329 10.3971 21.011 10.2564C19.0606 9.73044 17.8399 7.69136 18.3433 5.75372C18.4817 5.22084 18.5509 4.95441 18.4848 4.79814C18.4187 4.64187 18.2291 4.53419 17.8497 4.31881L16.125 3.33958C15.7528 3.12824 15.5667 3.02257 15.3997 3.04507C15.2326 3.06757 15.0442 3.25558 14.6672 3.63158C13.208 5.08733 10.7936 5.08727 9.33434 3.63149C8.95743 3.25548 8.76898 3.06748 8.60193 3.04497C8.43489 3.02247 8.24877 3.12814 7.87653 3.33948L6.15184 4.31872C5.77253 4.53408 5.58287 4.64176 5.51678 4.798C5.45068 4.95425 5.51987 5.22072 5.65825 5.75365C6.16137 7.69135 4.93972 9.73048 2.98902 10.2564C2.46712 10.3971 2.20617 10.4675 2.10308 10.602C2 10.7366 2 10.9532 2 11.3861V13.3197C2 13.7526 2 13.9692 2.10308 14.1037C2.20615 14.2383 2.46711 14.3087 2.98902 14.4494C4.9394 14.9754 6.16008 17.0144 5.65672 18.952C5.51829 19.4849 5.44907 19.7514 5.51516 19.9076C5.58126 20.0639 5.77092 20.1716 6.15025 20.3869L7.87495 21.3662C8.24721 21.5775 8.43334 21.6832 8.6004 21.6607C8.76746 21.6382 8.95588 21.4502 9.33271 21.0742C10.7927 19.6173 13.2088 19.6172 14.6689 21.0741C15.0457 21.4502 15.2341 21.6382 15.4012 21.6607C15.5682 21.6832 15.7544 21.5774 16.1266 21.3661L17.8513 20.3869C18.2307 20.1716 18.4204 20.0639 18.4864 19.9076C18.5525 19.7513 18.4833 19.4849 18.3448 18.952C17.8412 17.0145 19.0609 14.9755 21.011 14.4494Z" stroke="#344054" stroke-width="1.5" stroke-linecap="round"/>
</svg>
