<svg width="25" height="24" viewBox="0 0 25 24" fill="none" xmlns="http://www.w3.org/2000/svg">
<path d="M12.5 12.0002V21.0002M12.5 12.0002L10 14.0002M12.5 12.0002L15 14.0002M5.53402 9.11719C4.58823 9.35518 3.7619 9.93035 3.21028 10.7346C2.65865 11.5389 2.4197 12.5169 2.53833 13.485C2.65695 14.453 3.12499 15.3444 3.85449 15.9917C4.58399 16.639 5.52475 16.9976 6.50002 17.0002H7.50002" stroke="#191D23" stroke-width="2" stroke-linecap="round" stroke-linejoin="round"/>
<path d="M16.33 7.13821C15.9882 5.78478 15.1446 4.61195 13.9702 3.85746C12.7957 3.10298 11.3783 2.8233 10.0053 3.07511C8.63228 3.32692 7.40638 4.09139 6.5761 5.21354C5.74582 6.3357 5.3733 7.73157 5.53404 9.11821C5.53404 9.11821 5.68704 10.0002 6.00004 10.5002" stroke="#191D23" stroke-width="2" stroke-linecap="round" stroke-linejoin="round"/>
<path d="M17.5 17C18.206 16.9995 18.904 16.8495 19.5479 16.5599C20.1917 16.2702 20.767 15.8475 21.2357 15.3195C21.7045 14.7915 22.0561 14.1702 22.2674 13.4965C22.4787 12.8229 22.545 12.1121 22.4618 11.4109C22.3786 10.7098 22.1479 10.0343 21.7848 9.42874C21.4217 8.82321 20.9345 8.30145 20.3552 7.89778C19.776 7.49412 19.1178 7.21772 18.424 7.08676C17.7302 6.9558 17.0166 6.97327 16.33 7.138L15 7.5" stroke="#191D23" stroke-width="2" stroke-linecap="round" stroke-linejoin="round"/>
</svg>
